M48
; DRILL file {KiCad 7.0.5-0} date 2024 February 27, Tuesday 14:02:59
; FORMAT={-:-/ absolute / metric / decimal}
; #@! TF.CreationDate,2024-02-27T14:02:59-05:00
; #@! TF.GenerationSoftware,Kicad,Pcbnew,7.0.5-0
; #@! TF.FileFunction,Plated,1,2,PTH
FMAT,2
METRIC
; #@! TA.AperFunction,Plated,PTH,ViaDrill
T1C0.400
; #@! TA.AperFunction,Plated,PTH,ComponentDrill
T2C0.600
; #@! TA.AperFunction,Plated,PTH,ComponentDrill
T3C0.800
; #@! TA.AperFunction,Plated,PTH,ComponentDrill
T4C1.000
; #@! TA.AperFunction,Plated,PTH,ComponentDrill
T5C1.100
; #@! TA.AperFunction,Plated,PTH,ComponentDrill
T6C1.200
%
G90
G05
T1
X147.066Y-77.216
X147.193Y-79.502
X156.464Y-77.216
X156.591Y-80.01
X161.29Y-58.674
X166.116Y-57.277
X166.37Y-59.436
X166.878Y-107.188
X171.069Y-58.928
T2
X167.537Y-96.774
X169.037Y-96.774
T3
X135.752Y-60.742
X135.752Y-63.282
X135.752Y-65.822
X135.752Y-68.362
X135.752Y-70.902
X135.752Y-73.442
X135.752Y-75.982
X135.752Y-78.522
X135.752Y-81.062
X135.752Y-83.602
X135.752Y-86.142
X135.752Y-88.682
X135.752Y-91.222
X135.752Y-93.762
X135.752Y-96.302
X135.752Y-98.842
X135.752Y-101.382
X135.752Y-103.922
X135.752Y-106.462
X135.752Y-109.002
X150.972Y-60.742
X150.972Y-63.282
X150.972Y-65.822
X150.972Y-68.362
X150.972Y-70.902
X150.972Y-73.442
X150.972Y-75.982
X150.972Y-78.522
X150.972Y-81.062
X150.972Y-83.602
X150.972Y-86.142
X150.972Y-88.682
X150.972Y-91.222
X150.972Y-93.762
X150.972Y-96.302
X150.972Y-98.842
X150.972Y-101.382
X150.972Y-103.922
X150.972Y-106.462
X150.972Y-109.002
X157.385Y-85.725
X159.385Y-85.725
X162.052Y-61.849
X162.052Y-64.389
X162.052Y-66.929
X162.052Y-69.469
X162.052Y-72.009
X162.052Y-74.549
X162.052Y-77.089
X162.052Y-79.629
X169.672Y-61.849
X169.672Y-64.389
X169.672Y-66.929
X169.672Y-69.469
X169.672Y-72.009
X169.672Y-74.549
X169.672Y-77.089
X169.672Y-79.629
T4
X163.576Y-85.725
X166.116Y-85.725
X172.085Y-89.662
X172.085Y-92.202
X174.625Y-89.662
X174.625Y-92.202
X175.768Y-62.807
X175.768Y-67.457
X175.768Y-72.107
X175.768Y-76.757
X175.768Y-81.407
X177.165Y-89.662
X177.165Y-92.202
X178.308Y-62.807
X178.308Y-67.457
X178.308Y-72.107
X178.308Y-76.757
X178.308Y-81.407
X179.705Y-89.662
X179.705Y-92.202
X180.848Y-62.807
X180.848Y-67.457
X180.848Y-72.107
X180.848Y-76.757
X180.848Y-81.407
X182.245Y-89.662
X182.245Y-92.202
T5
X157.734Y-108.839
X160.274Y-108.839
X162.814Y-108.839
T6
X174.959Y-97.83
X174.959Y-102.83
X179.959Y-100.33
X179.959Y-105.33
T0
M30
