%TF.GenerationSoftware,KiCad,Pcbnew,7.0.5-0*%
%TF.CreationDate,2024-02-27T14:02:21-05:00*%
%TF.ProjectId,LED Controller,4c454420-436f-46e7-9472-6f6c6c65722e,rev?*%
%TF.SameCoordinates,Original*%
%TF.FileFunction,Legend,Bot*%
%TF.FilePolarity,Positive*%
%FSLAX46Y46*%
G04 Gerber Fmt 4.6, Leading zero omitted, Abs format (unit mm)*
G04 Created by KiCad (PCBNEW 7.0.5-0) date 2024-02-27 14:02:21*
%MOMM*%
%LPD*%
G01*
G04 APERTURE LIST*
G04 Aperture macros list*
%AMRoundRect*
0 Rectangle with rounded corners*
0 $1 Rounding radius*
0 $2 $3 $4 $5 $6 $7 $8 $9 X,Y pos of 4 corners*
0 Add a 4 corners polygon primitive as box body*
4,1,4,$2,$3,$4,$5,$6,$7,$8,$9,$2,$3,0*
0 Add four circle primitives for the rounded corners*
1,1,$1+$1,$2,$3*
1,1,$1+$1,$4,$5*
1,1,$1+$1,$6,$7*
1,1,$1+$1,$8,$9*
0 Add four rect primitives between the rounded corners*
20,1,$1+$1,$2,$3,$4,$5,0*
20,1,$1+$1,$4,$5,$6,$7,0*
20,1,$1+$1,$6,$7,$8,$9,0*
20,1,$1+$1,$8,$9,$2,$3,0*%
G04 Aperture macros list end*
%ADD10C,0.150000*%
%ADD11C,0.120000*%
%ADD12R,1.200000X1.200000*%
%ADD13C,1.200000*%
%ADD14R,1.700000X1.700000*%
%ADD15O,1.700000X1.700000*%
%ADD16C,2.100000*%
%ADD17R,3.000000X2.000000*%
%ADD18O,3.000000X2.000000*%
%ADD19C,1.600000*%
%ADD20R,1.600000X1.600000*%
%ADD21O,1.600000X1.600000*%
%ADD22O,3.500000X3.500000*%
%ADD23R,1.905000X2.000000*%
%ADD24O,1.905000X2.000000*%
%ADD25RoundRect,0.250000X-0.262500X-0.450000X0.262500X-0.450000X0.262500X0.450000X-0.262500X0.450000X0*%
G04 APERTURE END LIST*
D10*
%TO.C,R4*%
X164250666Y-60143819D02*
X164583999Y-59667628D01*
X164822094Y-60143819D02*
X164822094Y-59143819D01*
X164822094Y-59143819D02*
X164441142Y-59143819D01*
X164441142Y-59143819D02*
X164345904Y-59191438D01*
X164345904Y-59191438D02*
X164298285Y-59239057D01*
X164298285Y-59239057D02*
X164250666Y-59334295D01*
X164250666Y-59334295D02*
X164250666Y-59477152D01*
X164250666Y-59477152D02*
X164298285Y-59572390D01*
X164298285Y-59572390D02*
X164345904Y-59620009D01*
X164345904Y-59620009D02*
X164441142Y-59667628D01*
X164441142Y-59667628D02*
X164822094Y-59667628D01*
X163393523Y-59477152D02*
X163393523Y-60143819D01*
X163631618Y-59096200D02*
X163869713Y-59810485D01*
X163869713Y-59810485D02*
X163250666Y-59810485D01*
%TO.C,R3*%
X168822666Y-60143819D02*
X169155999Y-59667628D01*
X169394094Y-60143819D02*
X169394094Y-59143819D01*
X169394094Y-59143819D02*
X169013142Y-59143819D01*
X169013142Y-59143819D02*
X168917904Y-59191438D01*
X168917904Y-59191438D02*
X168870285Y-59239057D01*
X168870285Y-59239057D02*
X168822666Y-59334295D01*
X168822666Y-59334295D02*
X168822666Y-59477152D01*
X168822666Y-59477152D02*
X168870285Y-59572390D01*
X168870285Y-59572390D02*
X168917904Y-59620009D01*
X168917904Y-59620009D02*
X169013142Y-59667628D01*
X169013142Y-59667628D02*
X169394094Y-59667628D01*
X168489332Y-59143819D02*
X167870285Y-59143819D01*
X167870285Y-59143819D02*
X168203618Y-59524771D01*
X168203618Y-59524771D02*
X168060761Y-59524771D01*
X168060761Y-59524771D02*
X167965523Y-59572390D01*
X167965523Y-59572390D02*
X167917904Y-59620009D01*
X167917904Y-59620009D02*
X167870285Y-59715247D01*
X167870285Y-59715247D02*
X167870285Y-59953342D01*
X167870285Y-59953342D02*
X167917904Y-60048580D01*
X167917904Y-60048580D02*
X167965523Y-60096200D01*
X167965523Y-60096200D02*
X168060761Y-60143819D01*
X168060761Y-60143819D02*
X168346475Y-60143819D01*
X168346475Y-60143819D02*
X168441713Y-60096200D01*
X168441713Y-60096200D02*
X168489332Y-60048580D01*
D11*
%TO.C,R4*%
X163856936Y-57304000D02*
X164311064Y-57304000D01*
X163856936Y-58774000D02*
X164311064Y-58774000D01*
%TO.C,R3*%
X168428936Y-57304000D02*
X168883064Y-57304000D01*
X168428936Y-58774000D02*
X168883064Y-58774000D01*
%TD*%
%LPC*%
D12*
%TO.C,C2*%
X167537000Y-96774000D03*
D13*
X169037000Y-96774000D03*
%TD*%
D14*
%TO.C,J4*%
X180848000Y-76757000D03*
D15*
X178308000Y-76757000D03*
X175768000Y-76757000D03*
%TD*%
D16*
%TO.C,H2*%
X185420000Y-111760000D03*
%TD*%
D17*
%TO.C,J6*%
X179959000Y-105330000D03*
X174959000Y-102830000D03*
D18*
X179959000Y-100330000D03*
X174959000Y-97830000D03*
%TD*%
D19*
%TO.C,M1*%
X135751999Y-60742000D03*
X135751999Y-63282000D03*
X135751999Y-65822000D03*
X135751999Y-68362000D03*
X135751999Y-70902000D03*
X135751999Y-73442000D03*
X135751999Y-75982000D03*
X135751999Y-78522000D03*
X135751999Y-81062000D03*
X135751999Y-83602000D03*
X135751999Y-86142000D03*
X135751999Y-88682000D03*
X135751999Y-91222000D03*
X135751999Y-93762000D03*
X135751999Y-96302000D03*
X135751999Y-98842000D03*
X135751999Y-101382000D03*
X135751999Y-103922000D03*
X135751999Y-106462000D03*
X135751999Y-109002000D03*
X150971999Y-109002000D03*
X150971999Y-106462000D03*
X150971999Y-103922000D03*
X150971999Y-101382000D03*
X150971999Y-98842000D03*
X150971999Y-96302000D03*
X150971999Y-93762000D03*
X150971999Y-91222000D03*
X150971999Y-88682000D03*
X150971999Y-86142000D03*
X150971999Y-83602000D03*
X150971999Y-81062000D03*
X150971999Y-78522000D03*
X150971999Y-75982000D03*
X150971999Y-73442000D03*
X150971999Y-70902000D03*
X150971999Y-68362000D03*
X150971999Y-65822000D03*
X150971999Y-63282000D03*
X150971999Y-60742000D03*
%TD*%
D16*
%TO.C,H3*%
X130810000Y-111760000D03*
%TD*%
D20*
%TO.C,U1*%
X162052000Y-61849000D03*
D21*
X162052000Y-64389000D03*
X162052000Y-66929000D03*
X162052000Y-69469000D03*
X162052000Y-72009000D03*
X162052000Y-74549000D03*
X162052000Y-77089000D03*
X162052000Y-79629000D03*
X169672000Y-79629000D03*
X169672000Y-77089000D03*
X169672000Y-74549000D03*
X169672000Y-72009000D03*
X169672000Y-69469000D03*
X169672000Y-66929000D03*
X169672000Y-64389000D03*
X169672000Y-61849000D03*
%TD*%
D16*
%TO.C,H1*%
X185420000Y-58547000D03*
%TD*%
D20*
%TO.C,C1*%
X159385000Y-85725000D03*
D19*
X157385000Y-85725000D03*
%TD*%
D22*
%TO.C,U2*%
X160274000Y-92179000D03*
D23*
X157734000Y-108839000D03*
D24*
X160274000Y-108839000D03*
X162814000Y-108839000D03*
%TD*%
D14*
%TO.C,J2*%
X180848000Y-67457000D03*
D15*
X178308000Y-67457000D03*
X175768000Y-67457000D03*
%TD*%
D14*
%TO.C,J3*%
X180848000Y-72107000D03*
D15*
X178308000Y-72107000D03*
X175768000Y-72107000D03*
%TD*%
D14*
%TO.C,J7*%
X172085000Y-92202000D03*
D15*
X172085000Y-89662000D03*
X174625000Y-92202000D03*
X174625000Y-89662000D03*
X177165000Y-92202000D03*
X177165000Y-89662000D03*
X179705000Y-92202000D03*
X179705000Y-89662000D03*
X182245000Y-92202000D03*
X182245000Y-89662000D03*
%TD*%
D14*
%TO.C,J5*%
X180848000Y-81407000D03*
D15*
X178308000Y-81407000D03*
X175768000Y-81407000D03*
%TD*%
D14*
%TO.C,J8*%
X163576000Y-85725000D03*
D15*
X166116000Y-85725000D03*
%TD*%
D16*
%TO.C,H4*%
X130810000Y-58547000D03*
%TD*%
D14*
%TO.C,J1*%
X180848000Y-62807000D03*
D15*
X178308000Y-62807000D03*
X175768000Y-62807000D03*
%TD*%
D25*
%TO.C,R4*%
X163171500Y-58039000D03*
X164996500Y-58039000D03*
%TD*%
%TO.C,R3*%
X167743500Y-58039000D03*
X169568500Y-58039000D03*
%TD*%
%LPD*%
M02*
