%TF.GenerationSoftware,KiCad,Pcbnew,7.0.5-0*%
%TF.CreationDate,2024-02-27T14:02:21-05:00*%
%TF.ProjectId,LED Controller,4c454420-436f-46e7-9472-6f6c6c65722e,rev?*%
%TF.SameCoordinates,Original*%
%TF.FileFunction,Copper,L1,Top*%
%TF.FilePolarity,Positive*%
%FSLAX46Y46*%
G04 Gerber Fmt 4.6, Leading zero omitted, Abs format (unit mm)*
G04 Created by KiCad (PCBNEW 7.0.5-0) date 2024-02-27 14:02:21*
%MOMM*%
%LPD*%
G01*
G04 APERTURE LIST*
G04 Aperture macros list*
%AMRoundRect*
0 Rectangle with rounded corners*
0 $1 Rounding radius*
0 $2 $3 $4 $5 $6 $7 $8 $9 X,Y pos of 4 corners*
0 Add a 4 corners polygon primitive as box body*
4,1,4,$2,$3,$4,$5,$6,$7,$8,$9,$2,$3,0*
0 Add four circle primitives for the rounded corners*
1,1,$1+$1,$2,$3*
1,1,$1+$1,$4,$5*
1,1,$1+$1,$6,$7*
1,1,$1+$1,$8,$9*
0 Add four rect primitives between the rounded corners*
20,1,$1+$1,$2,$3,$4,$5,0*
20,1,$1+$1,$4,$5,$6,$7,0*
20,1,$1+$1,$6,$7,$8,$9,0*
20,1,$1+$1,$8,$9,$2,$3,0*%
G04 Aperture macros list end*
%TA.AperFunction,ComponentPad*%
%ADD10R,1.200000X1.200000*%
%TD*%
%TA.AperFunction,ComponentPad*%
%ADD11C,1.200000*%
%TD*%
%TA.AperFunction,ComponentPad*%
%ADD12R,1.700000X1.700000*%
%TD*%
%TA.AperFunction,ComponentPad*%
%ADD13O,1.700000X1.700000*%
%TD*%
%TA.AperFunction,SMDPad,CuDef*%
%ADD14RoundRect,0.250000X-0.262500X-0.450000X0.262500X-0.450000X0.262500X0.450000X-0.262500X0.450000X0*%
%TD*%
%TA.AperFunction,SMDPad,CuDef*%
%ADD15RoundRect,0.243750X0.243750X0.456250X-0.243750X0.456250X-0.243750X-0.456250X0.243750X-0.456250X0*%
%TD*%
%TA.AperFunction,ComponentPad*%
%ADD16R,3.000000X2.000000*%
%TD*%
%TA.AperFunction,ComponentPad*%
%ADD17O,3.000000X2.000000*%
%TD*%
%TA.AperFunction,ComponentPad*%
%ADD18C,1.600000*%
%TD*%
%TA.AperFunction,ComponentPad*%
%ADD19R,1.600000X1.600000*%
%TD*%
%TA.AperFunction,ComponentPad*%
%ADD20O,1.600000X1.600000*%
%TD*%
%TA.AperFunction,ComponentPad*%
%ADD21R,1.905000X2.000000*%
%TD*%
%TA.AperFunction,ComponentPad*%
%ADD22O,1.905000X2.000000*%
%TD*%
%TA.AperFunction,SMDPad,CuDef*%
%ADD23RoundRect,0.250000X0.262500X0.450000X-0.262500X0.450000X-0.262500X-0.450000X0.262500X-0.450000X0*%
%TD*%
%TA.AperFunction,ViaPad*%
%ADD24C,0.800000*%
%TD*%
%TA.AperFunction,Conductor*%
%ADD25C,0.250000*%
%TD*%
G04 APERTURE END LIST*
D10*
%TO.P,C2,1*%
%TO.N,/12V*%
X167537000Y-96774000D03*
D11*
%TO.P,C2,2*%
%TO.N,GND*%
X169037000Y-96774000D03*
%TD*%
D12*
%TO.P,J4,1,Pin_1*%
%TO.N,/12V*%
X180848000Y-76757000D03*
D13*
%TO.P,J4,2,Pin_2*%
%TO.N,/CH4_H*%
X178308000Y-76757000D03*
%TO.P,J4,3,Pin_3*%
%TO.N,GND*%
X175768000Y-76757000D03*
%TD*%
D14*
%TO.P,R1,1*%
%TO.N,/12V*%
X167593000Y-106270000D03*
%TO.P,R1,2*%
%TO.N,/12V_SNS*%
X169418000Y-106270000D03*
%TD*%
D15*
%TO.P,D2,1,K*%
%TO.N,Net-(D2-K)*%
X165021500Y-58039000D03*
%TO.P,D2,2,A*%
%TO.N,/COMM*%
X163146500Y-58039000D03*
%TD*%
%TO.P,D1,1,K*%
%TO.N,Net-(D1-K)*%
X169593500Y-58039000D03*
%TO.P,D1,2,A*%
%TO.N,/STATUS*%
X167718500Y-58039000D03*
%TD*%
D16*
%TO.P,J6,1,Pin_1*%
%TO.N,/12V*%
X179959000Y-105330000D03*
X174959000Y-102830000D03*
D17*
%TO.P,J6,2,Pin_2*%
%TO.N,GND*%
X179959000Y-100330000D03*
X174959000Y-97830000D03*
%TD*%
D18*
%TO.P,M1,1,B12*%
%TO.N,unconnected-(M1-B12-Pad1)*%
X135751999Y-60742000D03*
%TO.P,M1,2,B13*%
%TO.N,unconnected-(M1-B13-Pad2)*%
X135751999Y-63282000D03*
%TO.P,M1,3,B14*%
%TO.N,unconnected-(M1-B14-Pad3)*%
X135751999Y-65822000D03*
%TO.P,M1,4,B15*%
%TO.N,unconnected-(M1-B15-Pad4)*%
X135751999Y-68362000D03*
%TO.P,M1,5,A8*%
%TO.N,unconnected-(M1-A8-Pad5)*%
X135751999Y-70902000D03*
%TO.P,M1,6,A9*%
%TO.N,unconnected-(M1-A9-Pad6)*%
X135751999Y-73442000D03*
%TO.P,M1,7,A10*%
%TO.N,unconnected-(M1-A10-Pad7)*%
X135751999Y-75982000D03*
%TO.P,M1,8,A11*%
%TO.N,unconnected-(M1-A11-Pad8)*%
X135751999Y-78522000D03*
%TO.P,M1,9,A12*%
%TO.N,unconnected-(M1-A12-Pad9)*%
X135751999Y-81062000D03*
%TO.P,M1,10,A15*%
%TO.N,/SPI1_NSS*%
X135751999Y-83602000D03*
%TO.P,M1,11,B3*%
%TO.N,/SPI1_SCK*%
X135751999Y-86142000D03*
%TO.P,M1,12,B4*%
%TO.N,/SPI1_MISO*%
X135751999Y-88682000D03*
%TO.P,M1,13,B5*%
%TO.N,/SPI1_MOSI*%
X135751999Y-91222000D03*
%TO.P,M1,14,B6*%
%TO.N,unconnected-(M1-B6-Pad14)*%
X135751999Y-93762000D03*
%TO.P,M1,15,B7*%
%TO.N,unconnected-(M1-B7-Pad15)*%
X135751999Y-96302000D03*
%TO.P,M1,16,B8*%
%TO.N,unconnected-(M1-B8-Pad16)*%
X135751999Y-98842000D03*
%TO.P,M1,17,B9*%
%TO.N,unconnected-(M1-B9-Pad17)*%
X135751999Y-101382000D03*
%TO.P,M1,18,5V*%
%TO.N,+5V*%
X135751999Y-103922000D03*
%TO.P,M1,19,GND*%
%TO.N,GND*%
X135751999Y-106462000D03*
%TO.P,M1,20,3V3*%
%TO.N,unconnected-(M1-3V3-Pad20)*%
X135751999Y-109002000D03*
%TO.P,M1,21,VB*%
%TO.N,unconnected-(M1-VB-Pad21)*%
X150971999Y-109002000D03*
%TO.P,M1,22,C13*%
%TO.N,unconnected-(M1-C13-Pad22)*%
X150971999Y-106462000D03*
%TO.P,M1,23,C14*%
%TO.N,unconnected-(M1-C14-Pad23)*%
X150971999Y-103922000D03*
%TO.P,M1,24,C15*%
%TO.N,unconnected-(M1-C15-Pad24)*%
X150971999Y-101382000D03*
%TO.P,M1,25,R*%
%TO.N,unconnected-(M1-R-Pad25)*%
X150971999Y-98842000D03*
%TO.P,M1,26,A0*%
%TO.N,/CH5_L*%
X150971999Y-96302000D03*
%TO.P,M1,27,A1*%
%TO.N,/12V_SNS*%
X150971999Y-93762000D03*
%TO.P,M1,28,A2*%
%TO.N,unconnected-(M1-A2-Pad28)*%
X150971999Y-91222000D03*
%TO.P,M1,29,A3*%
%TO.N,unconnected-(M1-A3-Pad29)*%
X150971999Y-88682000D03*
%TO.P,M1,30,A4*%
%TO.N,unconnected-(M1-A4-Pad30)*%
X150971999Y-86142000D03*
%TO.P,M1,31,A5*%
%TO.N,unconnected-(M1-A5-Pad31)*%
X150971999Y-83602000D03*
%TO.P,M1,32,A6*%
%TO.N,/CH4_L*%
X150971999Y-81062000D03*
%TO.P,M1,33,A7*%
%TO.N,/CH3_L*%
X150971999Y-78522000D03*
%TO.P,M1,34,B0*%
%TO.N,/CH2_L*%
X150971999Y-75982000D03*
%TO.P,M1,35,B1*%
%TO.N,/CH1_L*%
X150971999Y-73442000D03*
%TO.P,M1,36,B2*%
%TO.N,/STATUS*%
X150971999Y-70902000D03*
%TO.P,M1,37,B10*%
%TO.N,/COMM*%
X150971999Y-68362000D03*
%TO.P,M1,38,3V3*%
%TO.N,+3V3*%
X150971999Y-65822000D03*
%TO.P,M1,39,GND*%
%TO.N,GND*%
X150971999Y-63282000D03*
%TO.P,M1,40,5V*%
%TO.N,+5V*%
X150971999Y-60742000D03*
%TD*%
D19*
%TO.P,U1,1,VCC*%
%TO.N,+3V3*%
X162052000Y-61849000D03*
D20*
%TO.P,U1,2,Aout*%
%TO.N,/CH1_H*%
X162052000Y-64389000D03*
%TO.P,U1,3,Ain*%
%TO.N,/CH1_L*%
X162052000Y-66929000D03*
%TO.P,U1,4,Bout*%
%TO.N,/CH2_H*%
X162052000Y-69469000D03*
%TO.P,U1,5,Bin*%
%TO.N,/CH2_L*%
X162052000Y-72009000D03*
%TO.P,U1,6,Cout*%
%TO.N,/CH3_H*%
X162052000Y-74549000D03*
%TO.P,U1,7,Cin*%
%TO.N,/CH3_L*%
X162052000Y-77089000D03*
%TO.P,U1,8,VSS*%
%TO.N,GND*%
X162052000Y-79629000D03*
%TO.P,U1,9,Din*%
%TO.N,/CH5_L*%
X169672000Y-79629000D03*
%TO.P,U1,10,Dout*%
%TO.N,/CH5_H*%
X169672000Y-77089000D03*
%TO.P,U1,11,Ein*%
%TO.N,/CH4_L*%
X169672000Y-74549000D03*
%TO.P,U1,12,Eout*%
%TO.N,/CH4_H*%
X169672000Y-72009000D03*
%TO.P,U1,13,Select*%
%TO.N,+3V3*%
X169672000Y-69469000D03*
%TO.P,U1,14,Fin*%
%TO.N,unconnected-(U1-Fin-Pad14)*%
X169672000Y-66929000D03*
%TO.P,U1,15,Fout*%
%TO.N,unconnected-(U1-Fout-Pad15)*%
X169672000Y-64389000D03*
%TO.P,U1,16,VDD*%
%TO.N,+5V*%
X169672000Y-61849000D03*
%TD*%
D19*
%TO.P,C1,1*%
%TO.N,Net-(J8-Pin_1)*%
X159385000Y-85725000D03*
D18*
%TO.P,C1,2*%
%TO.N,GND*%
X157385000Y-85725000D03*
%TD*%
D21*
%TO.P,U2,1,IN*%
%TO.N,/12V*%
X157734000Y-108839000D03*
D22*
%TO.P,U2,2,GND*%
%TO.N,GND*%
X160274000Y-108839000D03*
%TO.P,U2,3,OUT*%
%TO.N,Net-(J8-Pin_1)*%
X162814000Y-108839000D03*
%TD*%
D12*
%TO.P,J2,1,Pin_1*%
%TO.N,/12V*%
X180848000Y-67457000D03*
D13*
%TO.P,J2,2,Pin_2*%
%TO.N,/CH2_H*%
X178308000Y-67457000D03*
%TO.P,J2,3,Pin_3*%
%TO.N,GND*%
X175768000Y-67457000D03*
%TD*%
D12*
%TO.P,J3,1,Pin_1*%
%TO.N,/12V*%
X180848000Y-72107000D03*
D13*
%TO.P,J3,2,Pin_2*%
%TO.N,/CH3_H*%
X178308000Y-72107000D03*
%TO.P,J3,3,Pin_3*%
%TO.N,GND*%
X175768000Y-72107000D03*
%TD*%
D12*
%TO.P,J7,1,Pin_1*%
%TO.N,GND*%
X172085000Y-92202000D03*
D13*
%TO.P,J7,2,Pin_2*%
%TO.N,/SPI1_SCK*%
X172085000Y-89662000D03*
%TO.P,J7,3,Pin_3*%
%TO.N,/SPI1_MOSI*%
X174625000Y-92202000D03*
%TO.P,J7,4,Pin_4*%
%TO.N,/SPI1_MISO*%
X174625000Y-89662000D03*
%TO.P,J7,5,Pin_5*%
%TO.N,unconnected-(J7-Pin_5-Pad5)*%
X177165000Y-92202000D03*
%TO.P,J7,6,Pin_6*%
%TO.N,unconnected-(J7-Pin_6-Pad6)*%
X177165000Y-89662000D03*
%TO.P,J7,7,Pin_7*%
%TO.N,unconnected-(J7-Pin_7-Pad7)*%
X179705000Y-92202000D03*
%TO.P,J7,8,Pin_8*%
%TO.N,unconnected-(J7-Pin_8-Pad8)*%
X179705000Y-89662000D03*
%TO.P,J7,9,Pin_9*%
%TO.N,unconnected-(J7-Pin_9-Pad9)*%
X182245000Y-92202000D03*
%TO.P,J7,10,Pin_10*%
%TO.N,/SPI1_NSS*%
X182245000Y-89662000D03*
%TD*%
D12*
%TO.P,J5,1,Pin_1*%
%TO.N,/12V*%
X180848000Y-81407000D03*
D13*
%TO.P,J5,2,Pin_2*%
%TO.N,/CH5_H*%
X178308000Y-81407000D03*
%TO.P,J5,3,Pin_3*%
%TO.N,GND*%
X175768000Y-81407000D03*
%TD*%
D23*
%TO.P,R2,1*%
%TO.N,/12V_SNS*%
X169418000Y-109220000D03*
%TO.P,R2,2*%
%TO.N,GND*%
X167593000Y-109220000D03*
%TD*%
D12*
%TO.P,J8,1,Pin_1*%
%TO.N,Net-(J8-Pin_1)*%
X163576000Y-85725000D03*
D13*
%TO.P,J8,2,Pin_2*%
%TO.N,+5V*%
X166116000Y-85725000D03*
%TD*%
D12*
%TO.P,J1,1,Pin_1*%
%TO.N,/12V*%
X180848000Y-62807000D03*
D13*
%TO.P,J1,2,Pin_2*%
%TO.N,/CH1_H*%
X178308000Y-62807000D03*
%TO.P,J1,3,Pin_3*%
%TO.N,GND*%
X175768000Y-62807000D03*
%TD*%
D24*
%TO.N,GND*%
X156591000Y-80010000D03*
X147066000Y-77216000D03*
X156464000Y-77216000D03*
X147193000Y-79502000D03*
%TO.N,/12V*%
X166878000Y-107188000D03*
%TO.N,Net-(D1-K)*%
X171069000Y-58928000D03*
%TO.N,/STATUS*%
X166370000Y-59436000D03*
%TO.N,Net-(D2-K)*%
X166116000Y-57277000D03*
%TO.N,/COMM*%
X161290000Y-58674000D03*
%TD*%
D25*
%TO.N,/CH1_H*%
X178308000Y-62807000D02*
X176345000Y-64770000D01*
X166116000Y-63119000D02*
X164846000Y-64389000D01*
X173101000Y-64770000D02*
X171450000Y-63119000D01*
X171450000Y-63119000D02*
X166116000Y-63119000D01*
X176345000Y-64770000D02*
X173101000Y-64770000D01*
X164846000Y-64389000D02*
X162052000Y-64389000D01*
%TO.N,/CH2_H*%
X162052000Y-69469000D02*
X163322000Y-68199000D01*
X173736000Y-69596000D02*
X176169000Y-69596000D01*
X163322000Y-68199000D02*
X172339000Y-68199000D01*
X172339000Y-68199000D02*
X173736000Y-69596000D01*
X176169000Y-69596000D02*
X178308000Y-67457000D01*
%TO.N,/SPI1_MISO*%
X135751999Y-88682000D02*
X136985999Y-89916000D01*
X136985999Y-89916000D02*
X158538796Y-89916000D01*
X158538796Y-89916000D02*
X159459796Y-88995000D01*
X169672000Y-90932000D02*
X173355000Y-90932000D01*
X167735000Y-88995000D02*
X169672000Y-90932000D01*
X159459796Y-88995000D02*
X167735000Y-88995000D01*
X173355000Y-90932000D02*
X174625000Y-89662000D01*
%TO.N,/SPI1_NSS*%
X135751999Y-83602000D02*
X137565999Y-81788000D01*
X137565999Y-81788000D02*
X149098000Y-81788000D01*
X176530000Y-83947000D02*
X182245000Y-89662000D01*
X149098000Y-81788000D02*
X149606000Y-82296000D01*
X172466000Y-83947000D02*
X176530000Y-83947000D01*
X149606000Y-82296000D02*
X152273000Y-82296000D01*
X152273000Y-82296000D02*
X152781000Y-81788000D01*
X152781000Y-81788000D02*
X170307000Y-81788000D01*
X170307000Y-81788000D02*
X172466000Y-83947000D01*
%TO.N,/SPI1_SCK*%
X172085000Y-89662000D02*
X172085000Y-86233000D01*
X137057999Y-84836000D02*
X135751999Y-86142000D01*
X153162000Y-84836000D02*
X137057999Y-84836000D01*
X172085000Y-86233000D02*
X168275000Y-82423000D01*
X168275000Y-82423000D02*
X155575000Y-82423000D01*
X155575000Y-82423000D02*
X153162000Y-84836000D01*
%TO.N,/SPI1_MOSI*%
X136985999Y-92456000D02*
X156591000Y-92456000D01*
X156591000Y-92456000D02*
X158877000Y-94742000D01*
X135751999Y-91222000D02*
X136985999Y-92456000D01*
X158877000Y-94742000D02*
X172466000Y-94742000D01*
X172466000Y-94742000D02*
X174625000Y-92583000D01*
X174625000Y-92583000D02*
X174625000Y-92202000D01*
%TO.N,GND*%
X162052000Y-79629000D02*
X156972000Y-79629000D01*
X156972000Y-79629000D02*
X156591000Y-80010000D01*
%TO.N,/CH3_H*%
X172974000Y-70739000D02*
X173228000Y-70485000D01*
X173228000Y-70485000D02*
X176686000Y-70485000D01*
X162052000Y-74549000D02*
X165862000Y-70739000D01*
X176686000Y-70485000D02*
X178308000Y-72107000D01*
X165862000Y-70739000D02*
X172974000Y-70739000D01*
%TO.N,/CH4_H*%
X169672000Y-72009000D02*
X170307000Y-72009000D01*
X172847000Y-74549000D02*
X176100000Y-74549000D01*
X176100000Y-74549000D02*
X178308000Y-76757000D01*
X170307000Y-72009000D02*
X172847000Y-74549000D01*
%TO.N,/CH5_H*%
X169672000Y-77089000D02*
X170942000Y-77089000D01*
X170942000Y-77089000D02*
X173228000Y-79375000D01*
X173228000Y-79375000D02*
X176276000Y-79375000D01*
X176276000Y-79375000D02*
X178308000Y-81407000D01*
%TO.N,/12V*%
X167593000Y-106473000D02*
X166878000Y-107188000D01*
X167593000Y-106270000D02*
X167593000Y-106473000D01*
%TO.N,Net-(D1-K)*%
X170180000Y-58039000D02*
X169593500Y-58039000D01*
X171069000Y-58928000D02*
X170180000Y-58039000D01*
%TO.N,/CH1_L*%
X150971999Y-73442000D02*
X155539000Y-73442000D01*
X155539000Y-73442000D02*
X162052000Y-66929000D01*
%TO.N,/CH2_L*%
X158079000Y-75982000D02*
X162052000Y-72009000D01*
X150971999Y-75982000D02*
X158079000Y-75982000D01*
%TO.N,/STATUS*%
X167718500Y-58039000D02*
X167718500Y-58087500D01*
X167718500Y-58087500D02*
X166370000Y-59436000D01*
%TO.N,Net-(D2-K)*%
X164996500Y-58039000D02*
X165354000Y-58039000D01*
X165354000Y-58039000D02*
X166116000Y-57277000D01*
%TO.N,/COMM*%
X163171500Y-58039000D02*
X161925000Y-58039000D01*
X161925000Y-58039000D02*
X161290000Y-58674000D01*
%TO.N,+5V*%
X165606604Y-62484000D02*
X169037000Y-62484000D01*
X169037000Y-62484000D02*
X169672000Y-61849000D01*
X150971999Y-60742000D02*
X151896999Y-59817000D01*
X151896999Y-59817000D02*
X162939604Y-59817000D01*
X162939604Y-59817000D02*
X165606604Y-62484000D01*
%TO.N,+3V3*%
X150971999Y-65822000D02*
X158079000Y-65822000D01*
X158079000Y-65822000D02*
X162052000Y-61849000D01*
%TO.N,/CH3_L*%
X160619000Y-78522000D02*
X162052000Y-77089000D01*
X150971999Y-78522000D02*
X160619000Y-78522000D01*
%TO.N,/CH4_L*%
X150971999Y-81062000D02*
X151189999Y-81280000D01*
X162941000Y-81280000D02*
X169672000Y-74549000D01*
X151189999Y-81280000D02*
X162941000Y-81280000D01*
%TO.N,/12V_SNS*%
X169418000Y-106270000D02*
X156910000Y-93762000D01*
X156910000Y-93762000D02*
X150971999Y-93762000D01*
X169418000Y-109220000D02*
X169418000Y-106270000D01*
%TO.N,Net-(J8-Pin_1)*%
X159385000Y-85725000D02*
X163576000Y-85725000D01*
%TD*%
%TA.AperFunction,Conductor*%
%TO.N,GND*%
G36*
X167491587Y-89640185D02*
G01*
X167512229Y-89656819D01*
X169171194Y-91315784D01*
X169181019Y-91328048D01*
X169181240Y-91327866D01*
X169186210Y-91333874D01*
X169235949Y-91380582D01*
X169237316Y-91381906D01*
X169257530Y-91402120D01*
X169263004Y-91406366D01*
X169267442Y-91410156D01*
X169301418Y-91442062D01*
X169301422Y-91442064D01*
X169318973Y-91451713D01*
X169335231Y-91462392D01*
X169351064Y-91474674D01*
X169370301Y-91482998D01*
X169393837Y-91493183D01*
X169399081Y-91495752D01*
X169439908Y-91518197D01*
X169459312Y-91523179D01*
X169477710Y-91529478D01*
X169496105Y-91537438D01*
X169542129Y-91544726D01*
X169547832Y-91545907D01*
X169592981Y-91557500D01*
X169613016Y-91557500D01*
X169632413Y-91559026D01*
X169652196Y-91562160D01*
X169698583Y-91557775D01*
X169704422Y-91557500D01*
X170611000Y-91557500D01*
X170678039Y-91577185D01*
X170723794Y-91629989D01*
X170735000Y-91681500D01*
X170735000Y-91952000D01*
X171651314Y-91952000D01*
X171625507Y-91992156D01*
X171585000Y-92130111D01*
X171585000Y-92273889D01*
X171625507Y-92411844D01*
X171651314Y-92452000D01*
X170735000Y-92452000D01*
X170735000Y-93099844D01*
X170741401Y-93159372D01*
X170741403Y-93159379D01*
X170791645Y-93294086D01*
X170791649Y-93294093D01*
X170877809Y-93409187D01*
X170877812Y-93409190D01*
X170992906Y-93495350D01*
X170992913Y-93495354D01*
X171127620Y-93545596D01*
X171127627Y-93545598D01*
X171187155Y-93551999D01*
X171187172Y-93552000D01*
X171835000Y-93552000D01*
X171835000Y-92637501D01*
X171942685Y-92686680D01*
X172049237Y-92702000D01*
X172120763Y-92702000D01*
X172227315Y-92686680D01*
X172335000Y-92637501D01*
X172335000Y-93552000D01*
X172472047Y-93552000D01*
X172539086Y-93571685D01*
X172584841Y-93624489D01*
X172594785Y-93693647D01*
X172565760Y-93757203D01*
X172559728Y-93763681D01*
X172243228Y-94080181D01*
X172181905Y-94113666D01*
X172155547Y-94116500D01*
X161808789Y-94116500D01*
X161741750Y-94096815D01*
X161695995Y-94044011D01*
X161686051Y-93974853D01*
X161715076Y-93911297D01*
X161725611Y-93900536D01*
X161770824Y-93859643D01*
X161868758Y-93773758D01*
X161877799Y-93763446D01*
X161882823Y-93758345D01*
X161895333Y-93747032D01*
X161979443Y-93647545D01*
X162063273Y-93551957D01*
X162072687Y-93537866D01*
X162076895Y-93532279D01*
X162089863Y-93516941D01*
X162089865Y-93516939D01*
X162157941Y-93410298D01*
X162158592Y-93409301D01*
X162227172Y-93306665D01*
X162236098Y-93288562D01*
X162239441Y-93282631D01*
X162251993Y-93262970D01*
X162262421Y-93240498D01*
X162303901Y-93151111D01*
X162304535Y-93149787D01*
X162337492Y-93082957D01*
X162357652Y-93042077D01*
X162365179Y-93019899D01*
X162367641Y-93013752D01*
X162378823Y-92989658D01*
X162414417Y-92874909D01*
X162414858Y-92873551D01*
X162452481Y-92762722D01*
X162457677Y-92736597D01*
X162459271Y-92730316D01*
X162468093Y-92701879D01*
X162487534Y-92586623D01*
X162487847Y-92584921D01*
X162510034Y-92473380D01*
X162511986Y-92443576D01*
X162512714Y-92437342D01*
X162518209Y-92404770D01*
X162522006Y-92291169D01*
X162522104Y-92289218D01*
X162529329Y-92179005D01*
X162529329Y-92179001D01*
X162529329Y-92179000D01*
X162527162Y-92145955D01*
X162527065Y-92139849D01*
X162527391Y-92130111D01*
X162528277Y-92103631D01*
X162517228Y-91993808D01*
X162517050Y-91991661D01*
X162510035Y-91884632D01*
X162510034Y-91884623D01*
X162510034Y-91884620D01*
X162502944Y-91848977D01*
X162502068Y-91843107D01*
X162501965Y-91842087D01*
X162498118Y-91803838D01*
X162473265Y-91699555D01*
X162472777Y-91697319D01*
X162468210Y-91674357D01*
X162452481Y-91595278D01*
X162439764Y-91557816D01*
X162438169Y-91552283D01*
X162428269Y-91510739D01*
X162390899Y-91413709D01*
X162390057Y-91411385D01*
X162380061Y-91381937D01*
X162357652Y-91315923D01*
X162338732Y-91277556D01*
X162336485Y-91272429D01*
X162319977Y-91229566D01*
X162283775Y-91163506D01*
X162271555Y-91141207D01*
X162270334Y-91138862D01*
X162237604Y-91072490D01*
X162227175Y-91051341D01*
X162215303Y-91033574D01*
X162201612Y-91013083D01*
X162198798Y-91008444D01*
X162175175Y-90965335D01*
X162117312Y-90886802D01*
X162115706Y-90884514D01*
X162063273Y-90806043D01*
X162063269Y-90806038D01*
X162030817Y-90769033D01*
X162027516Y-90764930D01*
X161996450Y-90722768D01*
X161996446Y-90722762D01*
X161958134Y-90683147D01*
X161930884Y-90654970D01*
X161928838Y-90652749D01*
X161868760Y-90584244D01*
X161829322Y-90549656D01*
X161825635Y-90546144D01*
X161786981Y-90506176D01*
X161715514Y-90449740D01*
X161713059Y-90447696D01*
X161646960Y-90389729D01*
X161600656Y-90358788D01*
X161596677Y-90355894D01*
X161550517Y-90319443D01*
X161535677Y-90310653D01*
X161474918Y-90274666D01*
X161472089Y-90272884D01*
X161401666Y-90225828D01*
X161348821Y-90199767D01*
X161344668Y-90197518D01*
X161291270Y-90165891D01*
X161291266Y-90165889D01*
X161291262Y-90165887D01*
X161261641Y-90153327D01*
X161213346Y-90132847D01*
X161210157Y-90131386D01*
X161137075Y-90095347D01*
X161078243Y-90075375D01*
X161073969Y-90073746D01*
X161035174Y-90057297D01*
X161013872Y-90048264D01*
X161013868Y-90048263D01*
X161013866Y-90048262D01*
X160935365Y-90026757D01*
X160931815Y-90025670D01*
X160857734Y-90000522D01*
X160857723Y-90000519D01*
X160857722Y-90000519D01*
X160793608Y-89987765D01*
X160789333Y-89986756D01*
X160723281Y-89968662D01*
X160723265Y-89968658D01*
X160645792Y-89958239D01*
X160641962Y-89957601D01*
X160595006Y-89948262D01*
X160568380Y-89942966D01*
X160568377Y-89942965D01*
X160568374Y-89942965D01*
X160499959Y-89938481D01*
X160495750Y-89938061D01*
X160461282Y-89933426D01*
X160424653Y-89928500D01*
X160424650Y-89928500D01*
X160349698Y-89928500D01*
X160345650Y-89928367D01*
X160313627Y-89926268D01*
X160274006Y-89923671D01*
X160274002Y-89923671D01*
X160274000Y-89923671D01*
X160244972Y-89925573D01*
X160202971Y-89928326D01*
X160200997Y-89928424D01*
X160198764Y-89928498D01*
X160137977Y-89932567D01*
X160125157Y-89933426D01*
X160081461Y-89936290D01*
X159979620Y-89942965D01*
X159978420Y-89943123D01*
X159974506Y-89943511D01*
X159973375Y-89943587D01*
X159973372Y-89943587D01*
X159973366Y-89943588D01*
X159859446Y-89966742D01*
X159830399Y-89972646D01*
X159690277Y-90000518D01*
X159690270Y-90000520D01*
X159689508Y-90000779D01*
X159681943Y-90002822D01*
X159678097Y-90003603D01*
X159664093Y-90008466D01*
X159594306Y-90011860D01*
X159533763Y-89976985D01*
X159501685Y-89914914D01*
X159508258Y-89845354D01*
X159535736Y-89803649D01*
X159682569Y-89656816D01*
X159743890Y-89623334D01*
X159770248Y-89620500D01*
X167424548Y-89620500D01*
X167491587Y-89640185D01*
G37*
%TD.AperFunction*%
%TA.AperFunction,Conductor*%
G36*
X168031587Y-83068185D02*
G01*
X168052229Y-83084819D01*
X171423181Y-86455770D01*
X171456666Y-86517093D01*
X171459500Y-86543451D01*
X171459500Y-88386773D01*
X171439815Y-88453812D01*
X171406623Y-88488348D01*
X171213597Y-88623505D01*
X171046505Y-88790597D01*
X170910965Y-88984169D01*
X170910964Y-88984171D01*
X170811098Y-89198335D01*
X170811094Y-89198344D01*
X170749938Y-89426586D01*
X170749936Y-89426596D01*
X170729341Y-89661999D01*
X170729341Y-89662000D01*
X170749936Y-89897403D01*
X170749938Y-89897413D01*
X170811094Y-90125655D01*
X170811099Y-90125669D01*
X170813163Y-90130094D01*
X170823656Y-90199171D01*
X170795137Y-90262955D01*
X170736661Y-90301196D01*
X170700782Y-90306500D01*
X169982452Y-90306500D01*
X169915413Y-90286815D01*
X169894771Y-90270181D01*
X168235803Y-88611212D01*
X168225980Y-88598950D01*
X168225759Y-88599134D01*
X168220786Y-88593122D01*
X168171066Y-88546432D01*
X168169666Y-88545075D01*
X168149476Y-88524884D01*
X168143986Y-88520625D01*
X168139561Y-88516847D01*
X168105582Y-88484938D01*
X168105580Y-88484936D01*
X168105577Y-88484935D01*
X168088029Y-88475288D01*
X168071763Y-88464604D01*
X168070421Y-88463563D01*
X168055936Y-88452327D01*
X168055935Y-88452326D01*
X168055933Y-88452325D01*
X168013168Y-88433818D01*
X168007922Y-88431248D01*
X167967093Y-88408803D01*
X167967092Y-88408802D01*
X167947693Y-88403822D01*
X167929281Y-88397518D01*
X167910898Y-88389562D01*
X167910892Y-88389560D01*
X167864874Y-88382272D01*
X167859152Y-88381087D01*
X167814021Y-88369500D01*
X167814019Y-88369500D01*
X167793984Y-88369500D01*
X167774586Y-88367973D01*
X167767162Y-88366797D01*
X167754805Y-88364840D01*
X167754804Y-88364840D01*
X167708416Y-88369225D01*
X167702578Y-88369500D01*
X159542539Y-88369500D01*
X159526918Y-88367775D01*
X159526891Y-88368061D01*
X159519129Y-88367326D01*
X159450936Y-88369469D01*
X159448989Y-88369500D01*
X159420445Y-88369500D01*
X159413574Y-88370367D01*
X159407755Y-88370825D01*
X159361170Y-88372289D01*
X159361164Y-88372290D01*
X159341922Y-88377880D01*
X159322883Y-88381823D01*
X159303013Y-88384334D01*
X159302999Y-88384337D01*
X159259679Y-88401488D01*
X159254154Y-88403380D01*
X159209409Y-88416380D01*
X159209406Y-88416381D01*
X159192162Y-88426579D01*
X159174701Y-88435133D01*
X159156070Y-88442510D01*
X159156058Y-88442517D01*
X159118366Y-88469902D01*
X159113483Y-88473109D01*
X159073376Y-88496829D01*
X159059210Y-88510995D01*
X159044420Y-88523627D01*
X159028210Y-88535404D01*
X159028207Y-88535407D01*
X158998506Y-88571309D01*
X158994573Y-88575631D01*
X158316024Y-89254181D01*
X158254701Y-89287666D01*
X158228343Y-89290500D01*
X152316864Y-89290500D01*
X152249825Y-89270815D01*
X152204070Y-89218011D01*
X152194126Y-89148853D01*
X152197887Y-89133873D01*
X152197337Y-89133726D01*
X152234386Y-88995454D01*
X152257634Y-88908692D01*
X152277467Y-88682000D01*
X152257634Y-88455308D01*
X152198738Y-88235504D01*
X152102567Y-88029266D01*
X151972046Y-87842861D01*
X151972044Y-87842858D01*
X151811140Y-87681954D01*
X151624733Y-87551432D01*
X151624727Y-87551429D01*
X151566724Y-87524382D01*
X151514284Y-87478210D01*
X151495132Y-87411017D01*
X151515347Y-87344135D01*
X151566724Y-87299618D01*
X151624733Y-87272568D01*
X151811138Y-87142047D01*
X151972046Y-86981139D01*
X152102567Y-86794734D01*
X152198738Y-86588496D01*
X152257634Y-86368692D01*
X152277467Y-86142000D01*
X152274296Y-86105761D01*
X152267683Y-86030165D01*
X152257634Y-85915308D01*
X152206642Y-85725002D01*
X156080034Y-85725002D01*
X156099858Y-85951599D01*
X156099860Y-85951610D01*
X156158730Y-86171317D01*
X156158734Y-86171326D01*
X156254865Y-86377481D01*
X156254866Y-86377483D01*
X156305973Y-86450471D01*
X156305974Y-86450472D01*
X156987046Y-85769399D01*
X156999835Y-85850148D01*
X157057359Y-85963045D01*
X157146955Y-86052641D01*
X157259852Y-86110165D01*
X157340597Y-86122953D01*
X156659526Y-86804025D01*
X156659526Y-86804026D01*
X156732512Y-86855131D01*
X156732516Y-86855133D01*
X156938673Y-86951265D01*
X156938682Y-86951269D01*
X157158389Y-87010139D01*
X157158400Y-87010141D01*
X157384998Y-87029966D01*
X157385002Y-87029966D01*
X157611599Y-87010141D01*
X157611610Y-87010139D01*
X157831317Y-86951269D01*
X157831326Y-86951265D01*
X158037481Y-86855134D01*
X158050253Y-86846191D01*
X158116459Y-86823862D01*
X158184227Y-86840870D01*
X158220644Y-86873449D01*
X158227454Y-86882546D01*
X158273643Y-86917123D01*
X158342664Y-86968793D01*
X158342671Y-86968797D01*
X158477517Y-87019091D01*
X158477516Y-87019091D01*
X158484444Y-87019835D01*
X158537127Y-87025500D01*
X160232872Y-87025499D01*
X160292483Y-87019091D01*
X160427331Y-86968796D01*
X160542546Y-86882546D01*
X160628796Y-86767331D01*
X160679091Y-86632483D01*
X160685500Y-86572873D01*
X160685500Y-86474500D01*
X160705185Y-86407461D01*
X160757989Y-86361706D01*
X160809500Y-86350500D01*
X162101501Y-86350500D01*
X162168540Y-86370185D01*
X162214295Y-86422989D01*
X162225501Y-86474500D01*
X162225501Y-86622876D01*
X162231908Y-86682483D01*
X162282202Y-86817328D01*
X162282206Y-86817335D01*
X162368452Y-86932544D01*
X162368455Y-86932547D01*
X162483664Y-87018793D01*
X162483671Y-87018797D01*
X162618517Y-87069091D01*
X162618516Y-87069091D01*
X162625444Y-87069835D01*
X162678127Y-87075500D01*
X164473872Y-87075499D01*
X164533483Y-87069091D01*
X164668331Y-87018796D01*
X164783546Y-86932546D01*
X164869796Y-86817331D01*
X164918810Y-86685916D01*
X164960681Y-86629984D01*
X165026145Y-86605566D01*
X165094418Y-86620417D01*
X165122672Y-86641568D01*
X165244599Y-86763495D01*
X165330812Y-86823862D01*
X165438165Y-86899032D01*
X165438167Y-86899033D01*
X165438170Y-86899035D01*
X165652337Y-86998903D01*
X165880592Y-87060063D01*
X166057034Y-87075500D01*
X166115999Y-87080659D01*
X166116000Y-87080659D01*
X166116001Y-87080659D01*
X166174966Y-87075500D01*
X166351408Y-87060063D01*
X166579663Y-86998903D01*
X166793830Y-86899035D01*
X166987401Y-86763495D01*
X167154495Y-86596401D01*
X167290035Y-86402830D01*
X167389903Y-86188663D01*
X167451063Y-85960408D01*
X167471659Y-85725000D01*
X167451063Y-85489592D01*
X167389903Y-85261337D01*
X167290035Y-85047171D01*
X167265011Y-85011432D01*
X167154494Y-84853597D01*
X166987402Y-84686506D01*
X166987395Y-84686501D01*
X166981922Y-84682669D01*
X166910518Y-84632671D01*
X166793834Y-84550967D01*
X166793830Y-84550965D01*
X166766406Y-84538177D01*
X166579663Y-84451097D01*
X166579659Y-84451096D01*
X166579655Y-84451094D01*
X166351413Y-84389938D01*
X166351403Y-84389936D01*
X166116001Y-84369341D01*
X166115999Y-84369341D01*
X165880596Y-84389936D01*
X165880586Y-84389938D01*
X165652344Y-84451094D01*
X165652335Y-84451098D01*
X165438171Y-84550964D01*
X165438169Y-84550965D01*
X165244600Y-84686503D01*
X165122673Y-84808430D01*
X165061350Y-84841914D01*
X164991658Y-84836930D01*
X164935725Y-84795058D01*
X164918810Y-84764081D01*
X164869797Y-84632671D01*
X164869793Y-84632664D01*
X164783547Y-84517455D01*
X164783544Y-84517452D01*
X164668335Y-84431206D01*
X164668328Y-84431202D01*
X164533482Y-84380908D01*
X164533483Y-84380908D01*
X164473883Y-84374501D01*
X164473881Y-84374500D01*
X164473873Y-84374500D01*
X164473864Y-84374500D01*
X162678129Y-84374500D01*
X162678123Y-84374501D01*
X162618516Y-84380908D01*
X162483671Y-84431202D01*
X162483664Y-84431206D01*
X162368455Y-84517452D01*
X162368452Y-84517455D01*
X162282206Y-84632664D01*
X162282202Y-84632671D01*
X162231908Y-84767517D01*
X162225501Y-84827116D01*
X162225500Y-84827135D01*
X162225500Y-84975500D01*
X162205815Y-85042539D01*
X162153011Y-85088294D01*
X162101500Y-85099500D01*
X160809499Y-85099500D01*
X160742460Y-85079815D01*
X160696705Y-85027011D01*
X160685499Y-84975500D01*
X160685499Y-84877129D01*
X160685498Y-84877123D01*
X160685053Y-84872984D01*
X160679091Y-84817517D01*
X160674717Y-84805791D01*
X160628797Y-84682671D01*
X160628793Y-84682664D01*
X160542547Y-84567455D01*
X160542544Y-84567452D01*
X160427335Y-84481206D01*
X160427328Y-84481202D01*
X160292482Y-84430908D01*
X160292483Y-84430908D01*
X160232883Y-84424501D01*
X160232881Y-84424500D01*
X160232873Y-84424500D01*
X160232864Y-84424500D01*
X158537129Y-84424500D01*
X158537123Y-84424501D01*
X158477516Y-84430908D01*
X158342671Y-84481202D01*
X158342664Y-84481206D01*
X158227457Y-84567451D01*
X158227452Y-84567456D01*
X158220645Y-84576549D01*
X158164710Y-84618418D01*
X158095018Y-84623400D01*
X158050260Y-84603812D01*
X158037485Y-84594868D01*
X158037481Y-84594865D01*
X157831326Y-84498734D01*
X157831317Y-84498730D01*
X157611610Y-84439860D01*
X157611599Y-84439858D01*
X157385002Y-84420034D01*
X157384998Y-84420034D01*
X157158400Y-84439858D01*
X157158389Y-84439860D01*
X156938682Y-84498730D01*
X156938673Y-84498734D01*
X156732513Y-84594868D01*
X156659526Y-84645973D01*
X157340599Y-85327046D01*
X157259852Y-85339835D01*
X157146955Y-85397359D01*
X157057359Y-85486955D01*
X156999835Y-85599852D01*
X156987046Y-85680599D01*
X156305973Y-84999526D01*
X156305972Y-84999527D01*
X156254868Y-85072513D01*
X156158734Y-85278673D01*
X156158730Y-85278682D01*
X156099860Y-85498389D01*
X156099858Y-85498400D01*
X156080034Y-85724997D01*
X156080034Y-85725002D01*
X152206642Y-85725002D01*
X152198738Y-85695504D01*
X152171879Y-85637905D01*
X152161387Y-85568827D01*
X152189907Y-85505043D01*
X152248383Y-85466804D01*
X152284261Y-85461500D01*
X153079257Y-85461500D01*
X153094877Y-85463224D01*
X153094904Y-85462939D01*
X153102666Y-85463673D01*
X153102666Y-85463672D01*
X153102667Y-85463673D01*
X153105999Y-85463568D01*
X153170847Y-85461531D01*
X153172794Y-85461500D01*
X153201347Y-85461500D01*
X153201350Y-85461500D01*
X153208228Y-85460630D01*
X153214041Y-85460172D01*
X153260627Y-85458709D01*
X153279869Y-85453117D01*
X153298912Y-85449174D01*
X153318792Y-85446664D01*
X153362122Y-85429507D01*
X153367646Y-85427617D01*
X153371396Y-85426527D01*
X153412390Y-85414618D01*
X153429629Y-85404422D01*
X153447103Y-85395862D01*
X153465727Y-85388488D01*
X153465727Y-85388487D01*
X153465732Y-85388486D01*
X153503449Y-85361082D01*
X153508305Y-85357892D01*
X153548420Y-85334170D01*
X153562589Y-85319999D01*
X153577379Y-85307368D01*
X153593587Y-85295594D01*
X153623299Y-85259676D01*
X153627212Y-85255376D01*
X155797771Y-83084819D01*
X155859095Y-83051334D01*
X155885453Y-83048500D01*
X167964548Y-83048500D01*
X168031587Y-83068185D01*
G37*
%TD.AperFunction*%
%TA.AperFunction,Conductor*%
G36*
X160662295Y-79148161D02*
G01*
X160727236Y-79158628D01*
X160779256Y-79205273D01*
X160797799Y-79272637D01*
X160793592Y-79302624D01*
X160773127Y-79378999D01*
X160773128Y-79379000D01*
X161736314Y-79379000D01*
X161724359Y-79390955D01*
X161666835Y-79503852D01*
X161647014Y-79629000D01*
X161666835Y-79754148D01*
X161724359Y-79867045D01*
X161736314Y-79879000D01*
X160773128Y-79879000D01*
X160825730Y-80075317D01*
X160825734Y-80075326D01*
X160921866Y-80281482D01*
X161046429Y-80459376D01*
X161068756Y-80525582D01*
X161051746Y-80593350D01*
X161000798Y-80641163D01*
X160944854Y-80654500D01*
X152295919Y-80654500D01*
X152228880Y-80634815D01*
X152183537Y-80582905D01*
X152102567Y-80409267D01*
X152102566Y-80409265D01*
X152036326Y-80314664D01*
X151972046Y-80222861D01*
X151972044Y-80222858D01*
X151811140Y-80061954D01*
X151624733Y-79931432D01*
X151624727Y-79931429D01*
X151566724Y-79904382D01*
X151514284Y-79858210D01*
X151495132Y-79791017D01*
X151515347Y-79724135D01*
X151566724Y-79679618D01*
X151624733Y-79652568D01*
X151811138Y-79522047D01*
X151972046Y-79361139D01*
X152084611Y-79200377D01*
X152139188Y-79156752D01*
X152186187Y-79147500D01*
X160536257Y-79147500D01*
X160551877Y-79149224D01*
X160551904Y-79148939D01*
X160559666Y-79149673D01*
X160559666Y-79149672D01*
X160559667Y-79149673D01*
X160562999Y-79149568D01*
X160627847Y-79147531D01*
X160629794Y-79147500D01*
X160658347Y-79147500D01*
X160658350Y-79147500D01*
X160658352Y-79147499D01*
X160662238Y-79147255D01*
X160662295Y-79148161D01*
G37*
%TD.AperFunction*%
%TA.AperFunction,Conductor*%
G36*
X168409990Y-71384185D02*
G01*
X168455745Y-71436989D01*
X168465689Y-71506147D01*
X168455333Y-71540905D01*
X168445262Y-71562502D01*
X168445258Y-71562511D01*
X168386366Y-71782302D01*
X168386364Y-71782313D01*
X168366532Y-72008998D01*
X168366532Y-72009001D01*
X168386364Y-72235686D01*
X168386366Y-72235697D01*
X168445258Y-72455488D01*
X168445261Y-72455497D01*
X168541431Y-72661732D01*
X168541432Y-72661734D01*
X168671954Y-72848141D01*
X168832858Y-73009045D01*
X168832861Y-73009047D01*
X169019266Y-73139568D01*
X169077275Y-73166618D01*
X169129714Y-73212791D01*
X169148866Y-73279984D01*
X169128650Y-73346865D01*
X169077275Y-73391382D01*
X169019267Y-73418431D01*
X169019265Y-73418432D01*
X168832858Y-73548954D01*
X168671954Y-73709858D01*
X168541432Y-73896265D01*
X168541431Y-73896267D01*
X168445261Y-74102502D01*
X168445258Y-74102511D01*
X168386366Y-74322302D01*
X168386364Y-74322313D01*
X168366532Y-74548996D01*
X168366532Y-74549000D01*
X168386364Y-74775686D01*
X168386365Y-74775691D01*
X168386366Y-74775697D01*
X168404680Y-74844048D01*
X168403017Y-74913897D01*
X168372586Y-74963821D01*
X163485791Y-79850616D01*
X163424468Y-79884101D01*
X163354776Y-79879117D01*
X163354618Y-79879000D01*
X162367686Y-79879000D01*
X162379641Y-79867045D01*
X162437165Y-79754148D01*
X162456986Y-79629000D01*
X162437165Y-79503852D01*
X162379641Y-79390955D01*
X162367686Y-79379000D01*
X163330872Y-79379000D01*
X163330872Y-79378999D01*
X163278269Y-79182682D01*
X163278265Y-79182673D01*
X163182134Y-78976517D01*
X163051657Y-78790179D01*
X162890820Y-78629342D01*
X162704482Y-78498865D01*
X162646133Y-78471657D01*
X162593694Y-78425484D01*
X162574542Y-78358291D01*
X162594758Y-78291410D01*
X162646129Y-78246895D01*
X162704734Y-78219568D01*
X162891139Y-78089047D01*
X163052047Y-77928139D01*
X163182568Y-77741734D01*
X163278739Y-77535496D01*
X163337635Y-77315692D01*
X163357468Y-77089000D01*
X163337635Y-76862308D01*
X163278739Y-76642504D01*
X163182568Y-76436266D01*
X163052047Y-76249861D01*
X163052045Y-76249858D01*
X162891141Y-76088954D01*
X162704734Y-75958432D01*
X162704728Y-75958429D01*
X162646725Y-75931382D01*
X162594285Y-75885210D01*
X162575133Y-75818017D01*
X162595348Y-75751135D01*
X162646725Y-75706618D01*
X162704734Y-75679568D01*
X162891139Y-75549047D01*
X163052047Y-75388139D01*
X163182568Y-75201734D01*
X163278739Y-74995496D01*
X163337635Y-74775692D01*
X163357468Y-74549000D01*
X163337635Y-74322308D01*
X163319318Y-74253947D01*
X163320981Y-74184101D01*
X163351410Y-74134178D01*
X166084770Y-71400819D01*
X166146094Y-71367334D01*
X166172452Y-71364500D01*
X168342951Y-71364500D01*
X168409990Y-71384185D01*
G37*
%TD.AperFunction*%
%TA.AperFunction,Conductor*%
G36*
X160670196Y-74377907D02*
G01*
X160726129Y-74419779D01*
X160750546Y-74485243D01*
X160750390Y-74504895D01*
X160746532Y-74548996D01*
X160746532Y-74549001D01*
X160766364Y-74775686D01*
X160766366Y-74775697D01*
X160825258Y-74995488D01*
X160825261Y-74995497D01*
X160921431Y-75201732D01*
X160921432Y-75201734D01*
X161051954Y-75388141D01*
X161212858Y-75549045D01*
X161212861Y-75549047D01*
X161399266Y-75679568D01*
X161457275Y-75706618D01*
X161509714Y-75752791D01*
X161528866Y-75819984D01*
X161508650Y-75886865D01*
X161457275Y-75931382D01*
X161399267Y-75958431D01*
X161399265Y-75958432D01*
X161212858Y-76088954D01*
X161051954Y-76249858D01*
X160921432Y-76436265D01*
X160921431Y-76436267D01*
X160825261Y-76642502D01*
X160825258Y-76642511D01*
X160766366Y-76862302D01*
X160766364Y-76862313D01*
X160746637Y-77087798D01*
X160746532Y-77089000D01*
X160766364Y-77315686D01*
X160766365Y-77315691D01*
X160766366Y-77315697D01*
X160784680Y-77384048D01*
X160783017Y-77453897D01*
X160752586Y-77503821D01*
X160396228Y-77860181D01*
X160334905Y-77893666D01*
X160308547Y-77896500D01*
X152186187Y-77896500D01*
X152119148Y-77876815D01*
X152084612Y-77843623D01*
X151972044Y-77682858D01*
X151811140Y-77521954D01*
X151624733Y-77391432D01*
X151624727Y-77391429D01*
X151566724Y-77364382D01*
X151514284Y-77318210D01*
X151495132Y-77251017D01*
X151515347Y-77184135D01*
X151566724Y-77139618D01*
X151624733Y-77112568D01*
X151811138Y-76982047D01*
X151972046Y-76821139D01*
X152084611Y-76660377D01*
X152139188Y-76616752D01*
X152186187Y-76607500D01*
X157996257Y-76607500D01*
X158011877Y-76609224D01*
X158011904Y-76608939D01*
X158019666Y-76609673D01*
X158019666Y-76609672D01*
X158019667Y-76609673D01*
X158022999Y-76609568D01*
X158087847Y-76607531D01*
X158089794Y-76607500D01*
X158118347Y-76607500D01*
X158118350Y-76607500D01*
X158125228Y-76606630D01*
X158131041Y-76606172D01*
X158177627Y-76604709D01*
X158196869Y-76599117D01*
X158215912Y-76595174D01*
X158235792Y-76592664D01*
X158279122Y-76575507D01*
X158284646Y-76573617D01*
X158288396Y-76572527D01*
X158329390Y-76560618D01*
X158346629Y-76550422D01*
X158364103Y-76541862D01*
X158382727Y-76534488D01*
X158382727Y-76534487D01*
X158382732Y-76534486D01*
X158420449Y-76507082D01*
X158425305Y-76503892D01*
X158465420Y-76480170D01*
X158479589Y-76465999D01*
X158494379Y-76453368D01*
X158510587Y-76441594D01*
X158540299Y-76405676D01*
X158544212Y-76401376D01*
X160539182Y-74406406D01*
X160600504Y-74372923D01*
X160670196Y-74377907D01*
G37*
%TD.AperFunction*%
%TA.AperFunction,Conductor*%
G36*
X160921496Y-60462185D02*
G01*
X160967251Y-60514989D01*
X160977195Y-60584147D01*
X160948170Y-60647703D01*
X160928768Y-60665766D01*
X160894455Y-60691452D01*
X160894452Y-60691455D01*
X160808206Y-60806664D01*
X160808202Y-60806671D01*
X160757908Y-60941517D01*
X160751501Y-61001116D01*
X160751500Y-61001135D01*
X160751500Y-62213546D01*
X160731815Y-62280585D01*
X160715181Y-62301227D01*
X157856228Y-65160181D01*
X157794905Y-65193666D01*
X157768547Y-65196500D01*
X152186187Y-65196500D01*
X152119148Y-65176815D01*
X152084612Y-65143623D01*
X151972044Y-64982858D01*
X151811140Y-64821954D01*
X151624734Y-64691433D01*
X151624735Y-64691433D01*
X151624733Y-64691432D01*
X151566131Y-64664105D01*
X151513693Y-64617933D01*
X151494542Y-64550739D01*
X151514758Y-64483858D01*
X151566134Y-64439341D01*
X151624481Y-64412133D01*
X151697471Y-64361025D01*
X151016400Y-63679953D01*
X151097147Y-63667165D01*
X151210044Y-63609641D01*
X151299640Y-63520045D01*
X151357164Y-63407148D01*
X151369952Y-63326400D01*
X152051024Y-64007472D01*
X152102135Y-63934478D01*
X152198263Y-63728331D01*
X152198268Y-63728317D01*
X152257138Y-63508610D01*
X152257140Y-63508599D01*
X152276965Y-63282002D01*
X152276965Y-63281997D01*
X152257140Y-63055400D01*
X152257138Y-63055389D01*
X152198268Y-62835682D01*
X152198264Y-62835673D01*
X152102132Y-62629516D01*
X152102130Y-62629512D01*
X152051025Y-62556526D01*
X152051024Y-62556526D01*
X151369952Y-63237598D01*
X151357164Y-63156852D01*
X151299640Y-63043955D01*
X151210044Y-62954359D01*
X151097147Y-62896835D01*
X151016399Y-62884046D01*
X151697471Y-62202974D01*
X151697470Y-62202973D01*
X151624482Y-62151866D01*
X151624480Y-62151865D01*
X151566132Y-62124657D01*
X151513693Y-62078484D01*
X151494541Y-62011291D01*
X151514757Y-61944410D01*
X151566128Y-61899895D01*
X151624733Y-61872568D01*
X151811138Y-61742047D01*
X151972046Y-61581139D01*
X152102567Y-61394734D01*
X152198738Y-61188496D01*
X152257634Y-60968692D01*
X152277467Y-60742000D01*
X152263058Y-60577306D01*
X152276825Y-60508808D01*
X152325440Y-60458625D01*
X152386586Y-60442500D01*
X160854457Y-60442500D01*
X160921496Y-60462185D01*
G37*
%TD.AperFunction*%
%TA.AperFunction,Conductor*%
G36*
X168738261Y-96801490D02*
G01*
X168737643Y-96800357D01*
X168737866Y-96797227D01*
X168738261Y-96801490D01*
G37*
%TD.AperFunction*%
%TA.AperFunction,Conductor*%
G36*
X185421808Y-56004432D02*
G01*
X185522311Y-56010318D01*
X185721669Y-56022968D01*
X185728562Y-56023795D01*
X185864276Y-56047858D01*
X186026609Y-56079096D01*
X186032748Y-56080606D01*
X186170776Y-56122167D01*
X186172110Y-56122587D01*
X186322449Y-56171881D01*
X186327781Y-56173907D01*
X186462448Y-56232351D01*
X186464328Y-56233205D01*
X186604797Y-56299949D01*
X186609293Y-56302319D01*
X186737387Y-56376761D01*
X186739644Y-56378140D01*
X186785535Y-56407575D01*
X186869471Y-56461414D01*
X186873195Y-56463999D01*
X186992152Y-56553204D01*
X186994757Y-56555269D01*
X187112604Y-56653936D01*
X187115535Y-56656553D01*
X187223412Y-56759170D01*
X187226172Y-56761967D01*
X187330611Y-56874749D01*
X187332794Y-56877237D01*
X187427832Y-56991595D01*
X187430600Y-56995185D01*
X187520256Y-57120697D01*
X187521767Y-57122914D01*
X187538598Y-57148806D01*
X187602471Y-57247067D01*
X187605090Y-57251487D01*
X187678743Y-57388404D01*
X187679714Y-57390285D01*
X187744790Y-57521828D01*
X187747096Y-57527087D01*
X187803812Y-57674715D01*
X187804337Y-57676132D01*
X187852708Y-57811823D01*
X187854530Y-57817904D01*
X187893862Y-57978582D01*
X187924643Y-58112801D01*
X187925815Y-58119655D01*
X187948445Y-58318483D01*
X187959135Y-58416661D01*
X187959500Y-58423378D01*
X187959500Y-111758259D01*
X187959402Y-111761736D01*
X187953013Y-111875490D01*
X187942599Y-112047668D01*
X187941835Y-112054315D01*
X187918722Y-112190343D01*
X187891440Y-112339218D01*
X187890032Y-112345209D01*
X187850798Y-112481394D01*
X187850413Y-112482676D01*
X187806744Y-112622815D01*
X187804831Y-112628099D01*
X187749959Y-112760572D01*
X187749216Y-112762291D01*
X187689668Y-112894600D01*
X187687393Y-112899147D01*
X187617624Y-113025385D01*
X187616419Y-113027470D01*
X187541781Y-113150934D01*
X187539287Y-113154738D01*
X187455571Y-113272726D01*
X187453811Y-113275086D01*
X187365088Y-113388332D01*
X187362512Y-113391409D01*
X187265980Y-113499430D01*
X187263590Y-113501957D01*
X187161957Y-113603590D01*
X187159430Y-113605980D01*
X187051409Y-113702512D01*
X187048332Y-113705088D01*
X186935086Y-113793811D01*
X186932726Y-113795571D01*
X186814738Y-113879287D01*
X186810934Y-113881781D01*
X186687470Y-113956419D01*
X186685385Y-113957624D01*
X186559147Y-114027393D01*
X186554600Y-114029668D01*
X186422291Y-114089216D01*
X186420572Y-114089959D01*
X186288099Y-114144831D01*
X186282815Y-114146744D01*
X186142676Y-114190413D01*
X186141394Y-114190798D01*
X186005209Y-114230032D01*
X185999218Y-114231440D01*
X185850343Y-114258722D01*
X185714315Y-114281835D01*
X185707668Y-114282599D01*
X185535490Y-114293013D01*
X185421736Y-114299402D01*
X185418259Y-114299500D01*
X130811741Y-114299500D01*
X130808264Y-114299402D01*
X130694508Y-114293013D01*
X130522330Y-114282599D01*
X130515683Y-114281835D01*
X130379655Y-114258722D01*
X130230780Y-114231440D01*
X130224789Y-114230032D01*
X130088604Y-114190798D01*
X130087322Y-114190413D01*
X129947183Y-114146744D01*
X129941899Y-114144831D01*
X129809426Y-114089959D01*
X129807707Y-114089216D01*
X129675398Y-114029668D01*
X129670851Y-114027393D01*
X129544613Y-113957624D01*
X129542528Y-113956419D01*
X129419064Y-113881781D01*
X129415260Y-113879287D01*
X129297272Y-113795571D01*
X129294912Y-113793811D01*
X129181666Y-113705088D01*
X129178589Y-113702512D01*
X129070568Y-113605980D01*
X129068041Y-113603590D01*
X128966408Y-113501957D01*
X128964018Y-113499430D01*
X128867486Y-113391409D01*
X128864910Y-113388332D01*
X128850874Y-113370416D01*
X128776176Y-113275072D01*
X128774427Y-113272726D01*
X128690711Y-113154738D01*
X128688217Y-113150934D01*
X128633546Y-113060499D01*
X128613568Y-113027451D01*
X128612374Y-113025385D01*
X128542605Y-112899147D01*
X128540330Y-112894600D01*
X128480754Y-112762227D01*
X128480058Y-112760617D01*
X128425164Y-112628092D01*
X128423259Y-112622830D01*
X128379569Y-112482624D01*
X128379200Y-112481394D01*
X128359419Y-112412732D01*
X128339963Y-112345198D01*
X128338561Y-112339232D01*
X128311288Y-112190416D01*
X128288161Y-112054299D01*
X128287401Y-112047691D01*
X128276986Y-111875490D01*
X128272686Y-111798927D01*
X128270598Y-111761735D01*
X128270549Y-111760001D01*
X129504532Y-111760001D01*
X129524364Y-111986686D01*
X129524366Y-111986697D01*
X129583258Y-112206488D01*
X129583261Y-112206497D01*
X129679431Y-112412732D01*
X129679432Y-112412734D01*
X129809954Y-112599141D01*
X129970858Y-112760045D01*
X129970861Y-112760047D01*
X130157266Y-112890568D01*
X130363504Y-112986739D01*
X130363509Y-112986740D01*
X130363511Y-112986741D01*
X130416415Y-113000916D01*
X130583308Y-113045635D01*
X130753214Y-113060499D01*
X130753215Y-113060500D01*
X130753216Y-113060500D01*
X130866785Y-113060500D01*
X130866785Y-113060499D01*
X131036692Y-113045635D01*
X131256496Y-112986739D01*
X131462734Y-112890568D01*
X131649139Y-112760047D01*
X131810047Y-112599139D01*
X131940568Y-112412734D01*
X132036739Y-112206496D01*
X132095635Y-111986692D01*
X132115468Y-111760001D01*
X184114532Y-111760001D01*
X184134364Y-111986686D01*
X184134366Y-111986697D01*
X184193258Y-112206488D01*
X184193261Y-112206497D01*
X184289431Y-112412732D01*
X184289432Y-112412734D01*
X184419954Y-112599141D01*
X184580858Y-112760045D01*
X184580861Y-112760047D01*
X184767266Y-112890568D01*
X184973504Y-112986739D01*
X184973509Y-112986740D01*
X184973511Y-112986741D01*
X185026415Y-113000916D01*
X185193308Y-113045635D01*
X185363214Y-113060499D01*
X185363215Y-113060500D01*
X185363216Y-113060500D01*
X185476785Y-113060500D01*
X185476785Y-113060499D01*
X185646692Y-113045635D01*
X185866496Y-112986739D01*
X186072734Y-112890568D01*
X186259139Y-112760047D01*
X186420047Y-112599139D01*
X186550568Y-112412734D01*
X186646739Y-112206496D01*
X186705635Y-111986692D01*
X186725468Y-111760000D01*
X186705635Y-111533308D01*
X186646739Y-111313504D01*
X186550568Y-111107266D01*
X186420047Y-110920861D01*
X186420045Y-110920858D01*
X186259141Y-110759954D01*
X186072734Y-110629432D01*
X186072732Y-110629431D01*
X185866497Y-110533261D01*
X185866488Y-110533258D01*
X185646697Y-110474366D01*
X185646687Y-110474364D01*
X185476785Y-110459500D01*
X185476784Y-110459500D01*
X185363216Y-110459500D01*
X185363215Y-110459500D01*
X185193312Y-110474364D01*
X185193302Y-110474366D01*
X184973511Y-110533258D01*
X184973502Y-110533261D01*
X184767267Y-110629431D01*
X184767265Y-110629432D01*
X184580858Y-110759954D01*
X184419954Y-110920858D01*
X184289432Y-111107265D01*
X184289431Y-111107267D01*
X184193261Y-111313502D01*
X184193258Y-111313511D01*
X184134366Y-111533302D01*
X184134364Y-111533313D01*
X184114532Y-111759998D01*
X184114532Y-111760001D01*
X132115468Y-111760001D01*
X132115468Y-111760000D01*
X132095635Y-111533308D01*
X132036739Y-111313504D01*
X131940568Y-111107266D01*
X131810047Y-110920861D01*
X131810045Y-110920858D01*
X131649141Y-110759954D01*
X131462734Y-110629432D01*
X131462732Y-110629431D01*
X131256497Y-110533261D01*
X131256488Y-110533258D01*
X131036697Y-110474366D01*
X131036687Y-110474364D01*
X130866785Y-110459500D01*
X130866784Y-110459500D01*
X130753216Y-110459500D01*
X130753215Y-110459500D01*
X130583312Y-110474364D01*
X130583302Y-110474366D01*
X130363511Y-110533258D01*
X130363502Y-110533261D01*
X130157267Y-110629431D01*
X130157265Y-110629432D01*
X129970858Y-110759954D01*
X129809954Y-110920858D01*
X129679432Y-111107265D01*
X129679431Y-111107267D01*
X129583261Y-111313502D01*
X129583258Y-111313511D01*
X129524366Y-111533302D01*
X129524364Y-111533313D01*
X129504532Y-111759998D01*
X129504532Y-111760001D01*
X128270549Y-111760001D01*
X128270500Y-111758259D01*
X128270500Y-109002001D01*
X134446531Y-109002001D01*
X134466363Y-109228686D01*
X134466365Y-109228697D01*
X134525257Y-109448488D01*
X134525260Y-109448497D01*
X134621430Y-109654732D01*
X134621431Y-109654734D01*
X134751953Y-109841141D01*
X134912857Y-110002045D01*
X134912860Y-110002047D01*
X135099265Y-110132568D01*
X135305503Y-110228739D01*
X135525307Y-110287635D01*
X135687229Y-110301801D01*
X135751997Y-110307468D01*
X135751999Y-110307468D01*
X135752001Y-110307468D01*
X135808671Y-110302509D01*
X135978691Y-110287635D01*
X136198495Y-110228739D01*
X136404733Y-110132568D01*
X136591138Y-110002047D01*
X136752046Y-109841139D01*
X136882567Y-109654734D01*
X136978738Y-109448496D01*
X137037634Y-109228692D01*
X137057467Y-109002000D01*
X137037634Y-108775308D01*
X136978738Y-108555504D01*
X136882567Y-108349266D01*
X136752046Y-108162861D01*
X136752044Y-108162858D01*
X136591140Y-108001954D01*
X136404734Y-107871433D01*
X136404735Y-107871433D01*
X136404733Y-107871432D01*
X136346131Y-107844105D01*
X136293693Y-107797933D01*
X136274542Y-107730739D01*
X136294758Y-107663858D01*
X136346134Y-107619341D01*
X136404481Y-107592133D01*
X136477471Y-107541025D01*
X135796400Y-106859953D01*
X135877147Y-106847165D01*
X135990044Y-106789641D01*
X136079640Y-106700045D01*
X136137164Y-106587148D01*
X136149952Y-106506400D01*
X136831024Y-107187472D01*
X136882135Y-107114478D01*
X136978263Y-106908331D01*
X136978268Y-106908317D01*
X137037138Y-106688610D01*
X137037140Y-106688599D01*
X137056965Y-106462002D01*
X137056965Y-106461997D01*
X137037140Y-106235400D01*
X137037138Y-106235389D01*
X136978268Y-106015682D01*
X136978264Y-106015673D01*
X136882132Y-105809516D01*
X136882130Y-105809512D01*
X136831025Y-105736526D01*
X136831024Y-105736526D01*
X136149952Y-106417597D01*
X136137164Y-106336852D01*
X136079640Y-106223955D01*
X135990044Y-106134359D01*
X135877147Y-106076835D01*
X135796399Y-106064046D01*
X136477471Y-105382974D01*
X136477470Y-105382973D01*
X136404482Y-105331866D01*
X136404480Y-105331865D01*
X136346132Y-105304657D01*
X136293693Y-105258484D01*
X136274541Y-105191291D01*
X136294757Y-105124410D01*
X136346128Y-105079895D01*
X136404733Y-105052568D01*
X136591138Y-104922047D01*
X136752046Y-104761139D01*
X136882567Y-104574734D01*
X136978738Y-104368496D01*
X137037634Y-104148692D01*
X137056112Y-103937483D01*
X137057467Y-103922001D01*
X137057467Y-103921998D01*
X137037634Y-103695313D01*
X137037634Y-103695308D01*
X136978738Y-103475504D01*
X136882567Y-103269266D01*
X136752046Y-103082861D01*
X136752044Y-103082858D01*
X136591140Y-102921954D01*
X136404733Y-102791432D01*
X136404727Y-102791429D01*
X136346724Y-102764382D01*
X136294284Y-102718210D01*
X136275132Y-102651017D01*
X136295347Y-102584135D01*
X136346724Y-102539618D01*
X136404733Y-102512568D01*
X136591138Y-102382047D01*
X136752046Y-102221139D01*
X136882567Y-102034734D01*
X136978738Y-101828496D01*
X137037634Y-101608692D01*
X137057467Y-101382000D01*
X137054615Y-101349407D01*
X137037634Y-101155313D01*
X137037634Y-101155308D01*
X136978738Y-100935504D01*
X136882567Y-100729266D01*
X136752046Y-100542861D01*
X136752044Y-100542858D01*
X136591140Y-100381954D01*
X136404733Y-100251432D01*
X136404727Y-100251429D01*
X136346724Y-100224382D01*
X136294284Y-100178210D01*
X136275132Y-100111017D01*
X136295347Y-100044135D01*
X136346724Y-99999618D01*
X136404733Y-99972568D01*
X136591138Y-99842047D01*
X136752046Y-99681139D01*
X136882567Y-99494734D01*
X136978738Y-99288496D01*
X137037634Y-99068692D01*
X137057467Y-98842000D01*
X137037634Y-98615308D01*
X136989217Y-98434614D01*
X136978740Y-98395511D01*
X136978737Y-98395502D01*
X136882567Y-98189267D01*
X136882566Y-98189265D01*
X136752044Y-98002858D01*
X136591140Y-97841954D01*
X136404733Y-97711432D01*
X136404727Y-97711429D01*
X136346724Y-97684382D01*
X136294284Y-97638210D01*
X136275132Y-97571017D01*
X136295347Y-97504135D01*
X136346724Y-97459618D01*
X136404733Y-97432568D01*
X136591138Y-97302047D01*
X136752046Y-97141139D01*
X136882567Y-96954734D01*
X136978738Y-96748496D01*
X137037634Y-96528692D01*
X137057467Y-96302000D01*
X137037634Y-96075308D01*
X136978738Y-95855504D01*
X136882567Y-95649266D01*
X136752046Y-95462861D01*
X136752044Y-95462858D01*
X136591140Y-95301954D01*
X136404733Y-95171432D01*
X136404727Y-95171429D01*
X136346724Y-95144382D01*
X136294284Y-95098210D01*
X136275132Y-95031017D01*
X136295347Y-94964135D01*
X136346724Y-94919618D01*
X136404733Y-94892568D01*
X136591138Y-94762047D01*
X136752046Y-94601139D01*
X136882567Y-94414734D01*
X136978738Y-94208496D01*
X137037634Y-93988692D01*
X137057467Y-93762000D01*
X137056157Y-93747032D01*
X137051487Y-93693647D01*
X137037634Y-93535308D01*
X136978738Y-93315504D01*
X136951879Y-93257905D01*
X136941387Y-93188827D01*
X136969907Y-93125043D01*
X137028383Y-93086804D01*
X137064261Y-93081500D01*
X149659737Y-93081500D01*
X149726776Y-93101185D01*
X149772531Y-93153989D01*
X149782475Y-93223147D01*
X149772119Y-93257905D01*
X149745261Y-93315502D01*
X149745257Y-93315511D01*
X149686365Y-93535302D01*
X149686363Y-93535313D01*
X149666531Y-93761998D01*
X149666531Y-93762001D01*
X149686363Y-93988686D01*
X149686365Y-93988697D01*
X149745257Y-94208488D01*
X149745260Y-94208497D01*
X149841430Y-94414732D01*
X149841431Y-94414734D01*
X149971953Y-94601141D01*
X150132857Y-94762045D01*
X150132860Y-94762047D01*
X150319265Y-94892568D01*
X150377274Y-94919618D01*
X150429713Y-94965791D01*
X150448865Y-95032984D01*
X150428649Y-95099865D01*
X150377274Y-95144382D01*
X150319266Y-95171431D01*
X150319264Y-95171432D01*
X150132857Y-95301954D01*
X149971953Y-95462858D01*
X149841431Y-95649265D01*
X149841430Y-95649267D01*
X149745260Y-95855502D01*
X149745257Y-95855511D01*
X149686365Y-96075302D01*
X149686363Y-96075313D01*
X149666531Y-96301998D01*
X149666531Y-96302001D01*
X149686363Y-96528686D01*
X149686365Y-96528697D01*
X149745257Y-96748488D01*
X149745260Y-96748497D01*
X149841430Y-96954732D01*
X149841431Y-96954734D01*
X149971953Y-97141141D01*
X150132857Y-97302045D01*
X150132860Y-97302047D01*
X150319265Y-97432568D01*
X150377274Y-97459618D01*
X150429713Y-97505791D01*
X150448865Y-97572984D01*
X150428649Y-97639865D01*
X150377274Y-97684382D01*
X150319266Y-97711431D01*
X150319264Y-97711432D01*
X150132857Y-97841954D01*
X149971953Y-98002858D01*
X149841431Y-98189265D01*
X149841430Y-98189267D01*
X149745260Y-98395502D01*
X149745257Y-98395511D01*
X149686365Y-98615302D01*
X149686363Y-98615313D01*
X149666531Y-98841998D01*
X149666531Y-98842001D01*
X149686363Y-99068686D01*
X149686365Y-99068697D01*
X149745257Y-99288488D01*
X149745260Y-99288497D01*
X149841430Y-99494732D01*
X149841431Y-99494734D01*
X149971953Y-99681141D01*
X150132857Y-99842045D01*
X150132860Y-99842047D01*
X150319265Y-99972568D01*
X150377274Y-99999618D01*
X150429713Y-100045791D01*
X150448865Y-100112984D01*
X150428649Y-100179865D01*
X150377274Y-100224382D01*
X150319266Y-100251431D01*
X150319264Y-100251432D01*
X150132857Y-100381954D01*
X149971953Y-100542858D01*
X149841431Y-100729265D01*
X149841430Y-100729267D01*
X149745260Y-100935502D01*
X149745257Y-100935511D01*
X149686365Y-101155302D01*
X149686363Y-101155313D01*
X149666531Y-101381998D01*
X149666531Y-101382001D01*
X149686363Y-101608686D01*
X149686365Y-101608697D01*
X149745257Y-101828488D01*
X149745260Y-101828497D01*
X149841430Y-102034732D01*
X149841431Y-102034734D01*
X149971953Y-102221141D01*
X150132857Y-102382045D01*
X150132860Y-102382047D01*
X150319265Y-102512568D01*
X150377274Y-102539618D01*
X150429713Y-102585791D01*
X150448865Y-102652984D01*
X150428649Y-102719865D01*
X150377274Y-102764382D01*
X150319266Y-102791431D01*
X150319264Y-102791432D01*
X150132857Y-102921954D01*
X149971953Y-103082858D01*
X149841431Y-103269265D01*
X149841430Y-103269267D01*
X149745260Y-103475502D01*
X149745257Y-103475511D01*
X149686365Y-103695302D01*
X149686363Y-103695313D01*
X149666531Y-103921998D01*
X149666531Y-103922001D01*
X149686363Y-104148686D01*
X149686365Y-104148697D01*
X149745257Y-104368488D01*
X149745260Y-104368497D01*
X149841430Y-104574732D01*
X149841431Y-104574734D01*
X149971953Y-104761141D01*
X150132857Y-104922045D01*
X150132860Y-104922047D01*
X150319265Y-105052568D01*
X150377274Y-105079618D01*
X150429713Y-105125791D01*
X150448865Y-105192984D01*
X150428649Y-105259865D01*
X150377274Y-105304382D01*
X150319266Y-105331431D01*
X150319264Y-105331432D01*
X150132857Y-105461954D01*
X149971953Y-105622858D01*
X149841431Y-105809265D01*
X149841430Y-105809267D01*
X149745260Y-106015502D01*
X149745257Y-106015511D01*
X149686365Y-106235302D01*
X149686363Y-106235313D01*
X149666531Y-106461998D01*
X149666531Y-106462001D01*
X149686363Y-106688686D01*
X149686365Y-106688697D01*
X149745257Y-106908488D01*
X149745260Y-106908497D01*
X149841430Y-107114732D01*
X149841431Y-107114734D01*
X149971953Y-107301141D01*
X150132857Y-107462045D01*
X150132860Y-107462047D01*
X150319265Y-107592568D01*
X150376680Y-107619341D01*
X150377274Y-107619618D01*
X150429713Y-107665791D01*
X150448865Y-107732984D01*
X150428649Y-107799865D01*
X150377274Y-107844382D01*
X150319266Y-107871431D01*
X150319264Y-107871432D01*
X150132857Y-108001954D01*
X149971953Y-108162858D01*
X149841431Y-108349265D01*
X149841430Y-108349267D01*
X149745260Y-108555502D01*
X149745257Y-108555511D01*
X149686365Y-108775302D01*
X149686363Y-108775313D01*
X149666531Y-109001998D01*
X149666531Y-109002001D01*
X149686363Y-109228686D01*
X149686365Y-109228697D01*
X149745257Y-109448488D01*
X149745260Y-109448497D01*
X149841430Y-109654732D01*
X149841431Y-109654734D01*
X149971953Y-109841141D01*
X150132857Y-110002045D01*
X150132860Y-110002047D01*
X150319265Y-110132568D01*
X150525503Y-110228739D01*
X150745307Y-110287635D01*
X150907229Y-110301801D01*
X150971997Y-110307468D01*
X150971999Y-110307468D01*
X150972001Y-110307468D01*
X151028671Y-110302509D01*
X151198691Y-110287635D01*
X151418495Y-110228739D01*
X151624733Y-110132568D01*
X151811138Y-110002047D01*
X151926315Y-109886870D01*
X156281000Y-109886870D01*
X156281001Y-109886876D01*
X156287408Y-109946483D01*
X156337702Y-110081328D01*
X156337706Y-110081335D01*
X156423952Y-110196544D01*
X156423955Y-110196547D01*
X156539164Y-110282793D01*
X156539171Y-110282797D01*
X156674017Y-110333091D01*
X156674016Y-110333091D01*
X156680944Y-110333835D01*
X156733627Y-110339500D01*
X158734372Y-110339499D01*
X158793983Y-110333091D01*
X158928831Y-110282796D01*
X159044046Y-110196546D01*
X159130296Y-110081331D01*
X159130297Y-110081328D01*
X159130298Y-110081327D01*
X159141907Y-110050199D01*
X159183776Y-109994264D01*
X159249240Y-109969844D01*
X159317513Y-109984694D01*
X159334252Y-109995675D01*
X159476831Y-110106649D01*
X159476840Y-110106655D01*
X159688531Y-110221215D01*
X159688545Y-110221221D01*
X159916207Y-110299379D01*
X160024000Y-110317366D01*
X160024000Y-109330683D01*
X160052819Y-109348209D01*
X160198404Y-109389000D01*
X160311622Y-109389000D01*
X160423783Y-109373584D01*
X160524000Y-109330053D01*
X160524000Y-110317366D01*
X160631792Y-110299379D01*
X160859454Y-110221221D01*
X160859468Y-110221215D01*
X161071159Y-110106655D01*
X161071168Y-110106649D01*
X161261116Y-109958806D01*
X161261126Y-109958797D01*
X161424154Y-109781702D01*
X161424155Y-109781701D01*
X161439891Y-109757616D01*
X161493036Y-109712258D01*
X161562267Y-109702833D01*
X161625604Y-109732333D01*
X161647510Y-109757614D01*
X161663446Y-109782007D01*
X161663448Y-109782009D01*
X161663449Y-109782010D01*
X161826537Y-109959171D01*
X161982908Y-110080879D01*
X162016017Y-110106649D01*
X162016561Y-110107072D01*
X162074925Y-110138657D01*
X162227478Y-110221215D01*
X162228336Y-110221679D01*
X162346598Y-110262278D01*
X162456083Y-110299865D01*
X162456085Y-110299865D01*
X162456087Y-110299866D01*
X162693601Y-110339500D01*
X162693602Y-110339500D01*
X162934398Y-110339500D01*
X162934399Y-110339500D01*
X163171913Y-110299866D01*
X163399664Y-110221679D01*
X163611439Y-110107072D01*
X163801463Y-109959171D01*
X163964551Y-109782010D01*
X164096255Y-109580422D01*
X164144691Y-109470000D01*
X166580501Y-109470000D01*
X166580501Y-109719986D01*
X166590994Y-109822697D01*
X166646141Y-109989119D01*
X166646143Y-109989124D01*
X166738184Y-110138345D01*
X166862154Y-110262315D01*
X167011375Y-110354356D01*
X167011380Y-110354358D01*
X167177802Y-110409505D01*
X167177809Y-110409506D01*
X167280519Y-110419999D01*
X167342999Y-110419998D01*
X167343000Y-110419998D01*
X167343000Y-109470000D01*
X166580501Y-109470000D01*
X164144691Y-109470000D01*
X164192983Y-109359905D01*
X164252095Y-109126476D01*
X164267000Y-108946600D01*
X164267000Y-108731400D01*
X164252095Y-108551524D01*
X164192983Y-108318095D01*
X164096255Y-108097578D01*
X163964551Y-107895990D01*
X163801463Y-107718829D01*
X163639245Y-107592570D01*
X163611441Y-107570929D01*
X163399665Y-107456321D01*
X163399656Y-107456318D01*
X163171916Y-107378134D01*
X162972800Y-107344908D01*
X162934399Y-107338500D01*
X162693601Y-107338500D01*
X162655200Y-107344908D01*
X162456083Y-107378134D01*
X162228343Y-107456318D01*
X162228334Y-107456321D01*
X162016558Y-107570929D01*
X161882456Y-107675305D01*
X161826537Y-107718829D01*
X161826534Y-107718831D01*
X161826534Y-107718832D01*
X161663450Y-107895988D01*
X161663446Y-107895994D01*
X161647507Y-107920389D01*
X161594359Y-107965744D01*
X161525127Y-107975165D01*
X161461793Y-107945661D01*
X161439892Y-107920385D01*
X161424154Y-107896296D01*
X161261126Y-107719202D01*
X161261116Y-107719193D01*
X161071168Y-107571350D01*
X161071159Y-107571344D01*
X160859468Y-107456784D01*
X160859454Y-107456778D01*
X160631791Y-107378619D01*
X160524000Y-107360633D01*
X160524000Y-108347316D01*
X160495181Y-108329791D01*
X160349596Y-108289000D01*
X160236378Y-108289000D01*
X160124217Y-108304416D01*
X160024000Y-108347946D01*
X160024000Y-107360633D01*
X160023999Y-107360633D01*
X159916208Y-107378619D01*
X159688545Y-107456778D01*
X159688531Y-107456784D01*
X159476840Y-107571344D01*
X159476838Y-107571345D01*
X159334252Y-107682325D01*
X159269258Y-107707967D01*
X159200718Y-107694400D01*
X159150393Y-107645932D01*
X159141907Y-107627801D01*
X159130297Y-107596671D01*
X159130293Y-107596664D01*
X159044047Y-107481455D01*
X159044044Y-107481452D01*
X158928835Y-107395206D01*
X158928828Y-107395202D01*
X158793982Y-107344908D01*
X158793983Y-107344908D01*
X158734383Y-107338501D01*
X158734381Y-107338500D01*
X158734373Y-107338500D01*
X158734364Y-107338500D01*
X156733629Y-107338500D01*
X156733623Y-107338501D01*
X156674016Y-107344908D01*
X156539171Y-107395202D01*
X156539164Y-107395206D01*
X156423955Y-107481452D01*
X156423952Y-107481455D01*
X156337706Y-107596664D01*
X156337702Y-107596671D01*
X156287408Y-107731517D01*
X156281001Y-107791116D01*
X156281000Y-107791135D01*
X156281000Y-109886870D01*
X151926315Y-109886870D01*
X151972046Y-109841139D01*
X152102567Y-109654734D01*
X152198738Y-109448496D01*
X152257634Y-109228692D01*
X152277467Y-109002000D01*
X152257634Y-108775308D01*
X152198738Y-108555504D01*
X152102567Y-108349266D01*
X151972046Y-108162861D01*
X151972044Y-108162858D01*
X151811140Y-108001954D01*
X151624733Y-107871432D01*
X151624727Y-107871429D01*
X151566724Y-107844382D01*
X151514284Y-107798210D01*
X151495132Y-107731017D01*
X151515347Y-107664135D01*
X151566724Y-107619618D01*
X151567318Y-107619341D01*
X151624733Y-107592568D01*
X151811138Y-107462047D01*
X151972046Y-107301139D01*
X152102567Y-107114734D01*
X152198738Y-106908496D01*
X152257634Y-106688692D01*
X152277467Y-106462000D01*
X152257634Y-106235308D01*
X152198738Y-106015504D01*
X152102567Y-105809266D01*
X151972046Y-105622861D01*
X151972044Y-105622858D01*
X151811140Y-105461954D01*
X151624733Y-105331432D01*
X151624727Y-105331429D01*
X151566724Y-105304382D01*
X151514284Y-105258210D01*
X151495132Y-105191017D01*
X151515347Y-105124135D01*
X151566724Y-105079618D01*
X151624733Y-105052568D01*
X151811138Y-104922047D01*
X151972046Y-104761139D01*
X152102567Y-104574734D01*
X152198738Y-104368496D01*
X152257634Y-104148692D01*
X152276112Y-103937483D01*
X152277467Y-103922001D01*
X152277467Y-103921998D01*
X152257634Y-103695313D01*
X152257634Y-103695308D01*
X152198738Y-103475504D01*
X152102567Y-103269266D01*
X151972046Y-103082861D01*
X151972044Y-103082858D01*
X151811140Y-102921954D01*
X151624733Y-102791432D01*
X151624727Y-102791429D01*
X151566724Y-102764382D01*
X151514284Y-102718210D01*
X151495132Y-102651017D01*
X151515347Y-102584135D01*
X151566724Y-102539618D01*
X151624733Y-102512568D01*
X151811138Y-102382047D01*
X151972046Y-102221139D01*
X152102567Y-102034734D01*
X152198738Y-101828496D01*
X152257634Y-101608692D01*
X152277467Y-101382000D01*
X152274615Y-101349407D01*
X152257634Y-101155313D01*
X152257634Y-101155308D01*
X152198738Y-100935504D01*
X152102567Y-100729266D01*
X151972046Y-100542861D01*
X151972044Y-100542858D01*
X151811140Y-100381954D01*
X151624733Y-100251432D01*
X151624727Y-100251429D01*
X151566724Y-100224382D01*
X151514284Y-100178210D01*
X151495132Y-100111017D01*
X151515347Y-100044135D01*
X151566724Y-99999618D01*
X151624733Y-99972568D01*
X151811138Y-99842047D01*
X151972046Y-99681139D01*
X152102567Y-99494734D01*
X152198738Y-99288496D01*
X152257634Y-99068692D01*
X152277467Y-98842000D01*
X152257634Y-98615308D01*
X152209217Y-98434614D01*
X152198740Y-98395511D01*
X152198737Y-98395502D01*
X152102567Y-98189267D01*
X152102566Y-98189265D01*
X151972044Y-98002858D01*
X151811140Y-97841954D01*
X151624733Y-97711432D01*
X151624727Y-97711429D01*
X151566724Y-97684382D01*
X151514284Y-97638210D01*
X151495132Y-97571017D01*
X151515347Y-97504135D01*
X151566724Y-97459618D01*
X151624733Y-97432568D01*
X151811138Y-97302047D01*
X151972046Y-97141139D01*
X152102567Y-96954734D01*
X152198738Y-96748496D01*
X152257634Y-96528692D01*
X152277467Y-96302000D01*
X152257634Y-96075308D01*
X152198738Y-95855504D01*
X152102567Y-95649266D01*
X151972046Y-95462861D01*
X151972044Y-95462858D01*
X151811140Y-95301954D01*
X151624733Y-95171432D01*
X151624727Y-95171429D01*
X151566724Y-95144382D01*
X151514284Y-95098210D01*
X151495132Y-95031017D01*
X151515347Y-94964135D01*
X151566724Y-94919618D01*
X151624733Y-94892568D01*
X151811138Y-94762047D01*
X151972046Y-94601139D01*
X152084611Y-94440377D01*
X152139188Y-94396752D01*
X152186187Y-94387500D01*
X156599548Y-94387500D01*
X156666587Y-94407185D01*
X156687229Y-94423819D01*
X167160015Y-104896605D01*
X167193500Y-104957928D01*
X167188516Y-105027620D01*
X167146644Y-105083553D01*
X167111339Y-105101992D01*
X167011166Y-105135186D01*
X167011163Y-105135187D01*
X166861842Y-105227289D01*
X166737789Y-105351342D01*
X166645687Y-105500663D01*
X166645685Y-105500666D01*
X166645686Y-105500666D01*
X166590501Y-105667203D01*
X166590501Y-105667204D01*
X166590500Y-105667204D01*
X166580000Y-105769983D01*
X166580000Y-106254431D01*
X166560315Y-106321470D01*
X166507511Y-106367225D01*
X166506437Y-106367710D01*
X166425267Y-106403849D01*
X166272129Y-106515111D01*
X166145466Y-106655785D01*
X166050821Y-106819715D01*
X166050818Y-106819722D01*
X165992327Y-106999740D01*
X165992326Y-106999744D01*
X165972540Y-107188000D01*
X165992326Y-107376256D01*
X165992327Y-107376259D01*
X166050818Y-107556277D01*
X166050821Y-107556284D01*
X166145467Y-107720216D01*
X166257018Y-107844106D01*
X166272129Y-107860888D01*
X166425265Y-107972148D01*
X166425270Y-107972151D01*
X166598191Y-108049142D01*
X166598193Y-108049142D01*
X166598197Y-108049144D01*
X166698505Y-108070465D01*
X166759984Y-108103656D01*
X166793761Y-108164818D01*
X166789109Y-108234533D01*
X166760405Y-108279434D01*
X166738182Y-108301656D01*
X166646143Y-108450875D01*
X166646141Y-108450880D01*
X166590994Y-108617302D01*
X166590993Y-108617309D01*
X166580500Y-108720013D01*
X166580500Y-108970000D01*
X167343000Y-108970000D01*
X167343000Y-108026417D01*
X167362685Y-107959378D01*
X167394115Y-107926099D01*
X167483871Y-107860888D01*
X167610533Y-107720216D01*
X167681866Y-107596664D01*
X167705176Y-107556290D01*
X167705176Y-107556288D01*
X167705179Y-107556284D01*
X167705210Y-107556186D01*
X167705244Y-107556136D01*
X167707820Y-107550352D01*
X167708877Y-107550822D01*
X167744643Y-107498511D01*
X167809000Y-107471308D01*
X167823143Y-107470499D01*
X167905502Y-107470499D01*
X167905508Y-107470499D01*
X168008297Y-107459999D01*
X168174834Y-107404814D01*
X168324156Y-107312712D01*
X168417819Y-107219048D01*
X168479142Y-107185564D01*
X168548834Y-107190548D01*
X168593181Y-107219048D01*
X168686844Y-107312712D01*
X168733596Y-107341548D01*
X168780320Y-107393494D01*
X168792500Y-107447087D01*
X168792500Y-108042911D01*
X168772815Y-108109950D01*
X168733598Y-108148449D01*
X168686846Y-108177286D01*
X168592827Y-108271305D01*
X168531503Y-108304789D01*
X168461812Y-108299805D01*
X168417465Y-108271304D01*
X168323845Y-108177684D01*
X168174624Y-108085643D01*
X168174619Y-108085641D01*
X168008197Y-108030494D01*
X168008190Y-108030493D01*
X167905486Y-108020000D01*
X167843000Y-108020000D01*
X167843000Y-110419999D01*
X167905472Y-110419999D01*
X167905486Y-110419998D01*
X168008197Y-110409505D01*
X168174619Y-110354358D01*
X168174624Y-110354356D01*
X168323842Y-110262317D01*
X168417464Y-110168695D01*
X168478787Y-110135210D01*
X168548479Y-110140194D01*
X168592827Y-110168695D01*
X168686844Y-110262712D01*
X168836166Y-110354814D01*
X169002703Y-110409999D01*
X169105491Y-110420500D01*
X169730508Y-110420499D01*
X169730516Y-110420498D01*
X169730519Y-110420498D01*
X169786802Y-110414748D01*
X169833297Y-110409999D01*
X169999834Y-110354814D01*
X170149156Y-110262712D01*
X170273212Y-110138656D01*
X170365314Y-109989334D01*
X170420499Y-109822797D01*
X170431000Y-109720009D01*
X170430999Y-108719992D01*
X170420499Y-108617203D01*
X170365314Y-108450666D01*
X170273212Y-108301344D01*
X170149156Y-108177288D01*
X170149155Y-108177287D01*
X170102402Y-108148449D01*
X170055678Y-108096500D01*
X170043500Y-108042911D01*
X170043500Y-107447087D01*
X170063185Y-107380048D01*
X170102402Y-107341548D01*
X170149156Y-107312712D01*
X170273212Y-107188656D01*
X170365314Y-107039334D01*
X170420499Y-106872797D01*
X170431000Y-106770009D01*
X170431000Y-106377870D01*
X177958500Y-106377870D01*
X177958501Y-106377876D01*
X177964908Y-106437483D01*
X178015202Y-106572328D01*
X178015206Y-106572335D01*
X178101452Y-106687544D01*
X178101455Y-106687547D01*
X178216664Y-106773793D01*
X178216671Y-106773797D01*
X178351517Y-106824091D01*
X178351516Y-106824091D01*
X178358444Y-106824835D01*
X178411127Y-106830500D01*
X181506872Y-106830499D01*
X181566483Y-106824091D01*
X181701331Y-106773796D01*
X181816546Y-106687546D01*
X181902796Y-106572331D01*
X181953091Y-106437483D01*
X181959500Y-106377873D01*
X181959499Y-104282128D01*
X181953091Y-104222517D01*
X181902796Y-104087669D01*
X181902795Y-104087668D01*
X181902793Y-104087664D01*
X181816547Y-103972455D01*
X181816544Y-103972452D01*
X181701335Y-103886206D01*
X181701328Y-103886202D01*
X181566482Y-103835908D01*
X181566483Y-103835908D01*
X181506883Y-103829501D01*
X181506881Y-103829500D01*
X181506873Y-103829500D01*
X181506864Y-103829500D01*
X178411129Y-103829500D01*
X178411123Y-103829501D01*
X178351516Y-103835908D01*
X178216671Y-103886202D01*
X178216664Y-103886206D01*
X178101455Y-103972452D01*
X178101452Y-103972455D01*
X178015206Y-104087664D01*
X178015202Y-104087671D01*
X177964908Y-104222517D01*
X177958501Y-104282116D01*
X177958501Y-104282123D01*
X177958500Y-104282135D01*
X177958500Y-106377870D01*
X170431000Y-106377870D01*
X170430999Y-105769992D01*
X170427580Y-105736526D01*
X170420499Y-105667203D01*
X170420498Y-105667200D01*
X170405804Y-105622858D01*
X170365314Y-105500666D01*
X170273212Y-105351344D01*
X170149156Y-105227288D01*
X169999834Y-105135186D01*
X169833297Y-105080001D01*
X169833295Y-105080000D01*
X169730516Y-105069500D01*
X169153453Y-105069500D01*
X169086414Y-105049815D01*
X169065772Y-105033181D01*
X167910461Y-103877870D01*
X172958500Y-103877870D01*
X172958501Y-103877876D01*
X172964908Y-103937483D01*
X173015202Y-104072328D01*
X173015206Y-104072335D01*
X173101452Y-104187544D01*
X173101455Y-104187547D01*
X173216664Y-104273793D01*
X173216671Y-104273797D01*
X173351517Y-104324091D01*
X173351516Y-104324091D01*
X173358444Y-104324835D01*
X173411127Y-104330500D01*
X176506872Y-104330499D01*
X176566483Y-104324091D01*
X176701331Y-104273796D01*
X176816546Y-104187546D01*
X176902796Y-104072331D01*
X176953091Y-103937483D01*
X176959500Y-103877873D01*
X176959499Y-101782128D01*
X176953091Y-101722517D01*
X176902796Y-101587669D01*
X176902795Y-101587668D01*
X176902793Y-101587664D01*
X176816547Y-101472455D01*
X176816544Y-101472452D01*
X176701335Y-101386206D01*
X176701328Y-101386202D01*
X176566482Y-101335908D01*
X176566483Y-101335908D01*
X176506883Y-101329501D01*
X176506881Y-101329500D01*
X176506873Y-101329500D01*
X176506864Y-101329500D01*
X173411129Y-101329500D01*
X173411123Y-101329501D01*
X173351516Y-101335908D01*
X173216671Y-101386202D01*
X173216664Y-101386206D01*
X173101455Y-101472452D01*
X173101452Y-101472455D01*
X173015206Y-101587664D01*
X173015202Y-101587671D01*
X172964908Y-101722517D01*
X172961568Y-101753587D01*
X172958501Y-101782123D01*
X172958500Y-101782135D01*
X172958500Y-103877870D01*
X167910461Y-103877870D01*
X164112590Y-100079999D01*
X177979976Y-100079999D01*
X177979978Y-100080000D01*
X179413118Y-100080000D01*
X179374444Y-100173369D01*
X179353823Y-100330000D01*
X179374444Y-100486631D01*
X179413118Y-100580000D01*
X177979977Y-100580000D01*
X177999916Y-100699492D01*
X178080630Y-100934603D01*
X178080635Y-100934614D01*
X178198942Y-101153228D01*
X178198948Y-101153237D01*
X178351626Y-101349397D01*
X178351635Y-101349407D01*
X178534522Y-101517767D01*
X178534521Y-101517767D01*
X178742632Y-101653732D01*
X178970282Y-101753587D01*
X179211261Y-101814612D01*
X179211269Y-101814614D01*
X179396945Y-101829999D01*
X179396961Y-101830000D01*
X179709000Y-101830000D01*
X179709000Y-100875881D01*
X179802369Y-100914556D01*
X179919677Y-100930000D01*
X179998323Y-100930000D01*
X180115631Y-100914556D01*
X180209000Y-100875881D01*
X180209000Y-101830000D01*
X180521039Y-101830000D01*
X180521054Y-101829999D01*
X180706730Y-101814614D01*
X180706738Y-101814612D01*
X180947717Y-101753587D01*
X181175367Y-101653732D01*
X181383478Y-101517767D01*
X181566364Y-101349407D01*
X181566373Y-101349397D01*
X181719051Y-101153237D01*
X181719057Y-101153228D01*
X181837364Y-100934614D01*
X181837369Y-100934603D01*
X181918083Y-100699492D01*
X181938023Y-100580000D01*
X180504882Y-100580000D01*
X180543556Y-100486631D01*
X180564177Y-100330000D01*
X180543556Y-100173369D01*
X180504882Y-100080000D01*
X181938022Y-100080000D01*
X181938023Y-100079999D01*
X181918083Y-99960507D01*
X181837369Y-99725396D01*
X181837364Y-99725385D01*
X181719057Y-99506771D01*
X181719051Y-99506762D01*
X181566373Y-99310602D01*
X181566364Y-99310592D01*
X181383477Y-99142232D01*
X181383478Y-99142232D01*
X181175367Y-99006267D01*
X180947717Y-98906412D01*
X180706738Y-98845387D01*
X180706730Y-98845385D01*
X180521054Y-98830000D01*
X180209000Y-98830000D01*
X180209000Y-99784118D01*
X180115631Y-99745444D01*
X179998323Y-99730000D01*
X179919677Y-99730000D01*
X179802369Y-99745444D01*
X179709000Y-99784118D01*
X179709000Y-98830000D01*
X179396945Y-98830000D01*
X179211269Y-98845385D01*
X179211261Y-98845387D01*
X178970282Y-98906412D01*
X178742632Y-99006267D01*
X178534521Y-99142232D01*
X178351635Y-99310592D01*
X178351626Y-99310602D01*
X178198948Y-99506762D01*
X178198942Y-99506771D01*
X178080635Y-99725385D01*
X178080630Y-99725396D01*
X177999916Y-99960507D01*
X177979976Y-100079999D01*
X164112590Y-100079999D01*
X161454461Y-97421870D01*
X166436500Y-97421870D01*
X166436501Y-97421876D01*
X166442908Y-97481483D01*
X166493202Y-97616328D01*
X166493206Y-97616335D01*
X166579452Y-97731544D01*
X166579455Y-97731547D01*
X166694664Y-97817793D01*
X166694671Y-97817797D01*
X166829517Y-97868091D01*
X166829516Y-97868091D01*
X166836444Y-97868835D01*
X166889127Y-97874500D01*
X168184872Y-97874499D01*
X168244483Y-97868091D01*
X168314563Y-97841953D01*
X168379329Y-97817797D01*
X168379329Y-97817796D01*
X168379331Y-97817796D01*
X168428993Y-97780618D01*
X168494454Y-97756201D01*
X168548097Y-97764258D01*
X168734678Y-97836539D01*
X168935072Y-97874000D01*
X169138928Y-97874000D01*
X169339321Y-97836539D01*
X169529414Y-97762897D01*
X169617688Y-97708240D01*
X169489447Y-97579999D01*
X172979976Y-97579999D01*
X172979978Y-97580000D01*
X174413118Y-97580000D01*
X174374444Y-97673369D01*
X174353823Y-97830000D01*
X174374444Y-97986631D01*
X174413118Y-98080000D01*
X172979977Y-98080000D01*
X172999916Y-98199492D01*
X173080630Y-98434603D01*
X173080635Y-98434614D01*
X173198942Y-98653228D01*
X173198948Y-98653237D01*
X173351626Y-98849397D01*
X173351635Y-98849407D01*
X173534522Y-99017767D01*
X173534521Y-99017767D01*
X173742632Y-99153732D01*
X173970282Y-99253587D01*
X174211261Y-99314612D01*
X174211269Y-99314614D01*
X174396945Y-99329999D01*
X174396961Y-99330000D01*
X174709000Y-99330000D01*
X174709000Y-98375881D01*
X174802369Y-98414556D01*
X174919677Y-98430000D01*
X174998323Y-98430000D01*
X175115631Y-98414556D01*
X175209000Y-98375881D01*
X175209000Y-99330000D01*
X175521039Y-99330000D01*
X175521054Y-99329999D01*
X175706730Y-99314614D01*
X175706738Y-99314612D01*
X175947717Y-99253587D01*
X176175367Y-99153732D01*
X176383478Y-99017767D01*
X176566364Y-98849407D01*
X176566373Y-98849397D01*
X176719051Y-98653237D01*
X176719057Y-98653228D01*
X176837364Y-98434614D01*
X176837369Y-98434603D01*
X176918083Y-98199492D01*
X176938023Y-98080000D01*
X175504882Y-98080000D01*
X175543556Y-97986631D01*
X175564177Y-97830000D01*
X175543556Y-97673369D01*
X175504882Y-97580000D01*
X176938022Y-97580000D01*
X176938023Y-97579999D01*
X176918083Y-97460507D01*
X176837369Y-97225396D01*
X176837364Y-97225385D01*
X176719057Y-97006771D01*
X176719051Y-97006762D01*
X176566373Y-96810602D01*
X176566364Y-96810592D01*
X176383477Y-96642232D01*
X176383478Y-96642232D01*
X176175367Y-96506267D01*
X175947717Y-96406412D01*
X175706738Y-96345387D01*
X175706730Y-96345385D01*
X175521054Y-96330000D01*
X175209000Y-96330000D01*
X175209000Y-97284118D01*
X175115631Y-97245444D01*
X174998323Y-97230000D01*
X174919677Y-97230000D01*
X174802369Y-97245444D01*
X174709000Y-97284118D01*
X174709000Y-96330000D01*
X174396945Y-96330000D01*
X174211269Y-96345385D01*
X174211261Y-96345387D01*
X173970282Y-96406412D01*
X173742632Y-96506267D01*
X173534521Y-96642232D01*
X173351635Y-96810592D01*
X173351626Y-96810602D01*
X173198948Y-97006762D01*
X173198942Y-97006771D01*
X173080635Y-97225385D01*
X173080630Y-97225396D01*
X172999916Y-97460507D01*
X172979976Y-97579999D01*
X169489447Y-97579999D01*
X168983448Y-97074000D01*
X169064802Y-97074000D01*
X169147250Y-97058588D01*
X169242610Y-96999543D01*
X169310201Y-96910038D01*
X169340895Y-96802160D01*
X169338286Y-96774000D01*
X169390553Y-96774000D01*
X169974465Y-97357912D01*
X169976247Y-97355552D01*
X169976249Y-97355550D01*
X170067113Y-97173069D01*
X170067116Y-97173063D01*
X170122902Y-96976992D01*
X170122903Y-96976989D01*
X170141713Y-96774000D01*
X170141713Y-96773999D01*
X170122903Y-96571010D01*
X170122902Y-96571007D01*
X170067116Y-96374936D01*
X170067113Y-96374930D01*
X169976244Y-96192441D01*
X169974466Y-96190086D01*
X169974465Y-96190085D01*
X169390553Y-96773999D01*
X169390553Y-96774000D01*
X169338286Y-96774000D01*
X169330546Y-96690479D01*
X169280552Y-96590078D01*
X169197666Y-96514516D01*
X169093080Y-96474000D01*
X169009198Y-96474000D01*
X168977526Y-96479920D01*
X169037000Y-96420447D01*
X169617688Y-95839758D01*
X169617687Y-95839757D01*
X169529418Y-95785104D01*
X169529411Y-95785100D01*
X169339321Y-95711460D01*
X169138928Y-95674000D01*
X168935072Y-95674000D01*
X168734677Y-95711460D01*
X168548098Y-95783741D01*
X168478474Y-95789603D01*
X168428993Y-95767381D01*
X168379331Y-95730204D01*
X168379329Y-95730203D01*
X168379328Y-95730202D01*
X168244482Y-95679908D01*
X168244483Y-95679908D01*
X168184883Y-95673501D01*
X168184881Y-95673500D01*
X168184873Y-95673500D01*
X168184864Y-95673500D01*
X166889129Y-95673500D01*
X166889123Y-95673501D01*
X166829516Y-95679908D01*
X166694671Y-95730202D01*
X166694664Y-95730206D01*
X166579455Y-95816452D01*
X166579452Y-95816455D01*
X166493206Y-95931664D01*
X166493202Y-95931671D01*
X166442908Y-96066517D01*
X166436501Y-96126116D01*
X166436500Y-96126135D01*
X166436500Y-97421870D01*
X161454461Y-97421870D01*
X159611772Y-95579181D01*
X159578287Y-95517858D01*
X159583271Y-95448166D01*
X159625143Y-95392233D01*
X159690607Y-95367816D01*
X159699453Y-95367500D01*
X172383257Y-95367500D01*
X172398877Y-95369224D01*
X172398904Y-95368939D01*
X172406666Y-95369673D01*
X172406666Y-95369672D01*
X172406667Y-95369673D01*
X172409999Y-95369568D01*
X172474847Y-95367531D01*
X172476794Y-95367500D01*
X172505347Y-95367500D01*
X172505350Y-95367500D01*
X172512228Y-95366630D01*
X172518041Y-95366172D01*
X172564627Y-95364709D01*
X172583869Y-95359117D01*
X172602912Y-95355174D01*
X172622792Y-95352664D01*
X172666122Y-95335507D01*
X172671646Y-95333617D01*
X172675396Y-95332527D01*
X172716390Y-95320618D01*
X172733629Y-95310422D01*
X172751103Y-95301862D01*
X172769727Y-95294488D01*
X172769727Y-95294487D01*
X172769732Y-95294486D01*
X172807449Y-95267082D01*
X172812305Y-95263892D01*
X172852420Y-95240170D01*
X172866589Y-95225999D01*
X172881379Y-95213368D01*
X172897587Y-95201594D01*
X172927299Y-95165676D01*
X172931212Y-95161376D01*
X174501291Y-93591297D01*
X174562612Y-93557814D01*
X174599777Y-93555452D01*
X174625000Y-93557659D01*
X174625001Y-93557659D01*
X174689681Y-93552000D01*
X174860408Y-93537063D01*
X175088663Y-93475903D01*
X175302830Y-93376035D01*
X175496401Y-93240495D01*
X175663495Y-93073401D01*
X175793424Y-92887842D01*
X175848002Y-92844217D01*
X175917500Y-92837023D01*
X175979855Y-92868546D01*
X175996575Y-92887842D01*
X176126500Y-93073395D01*
X176126505Y-93073401D01*
X176293599Y-93240495D01*
X176362259Y-93288571D01*
X176487165Y-93376032D01*
X176487167Y-93376033D01*
X176487170Y-93376035D01*
X176701337Y-93475903D01*
X176929592Y-93537063D01*
X177100319Y-93552000D01*
X177164999Y-93557659D01*
X177165000Y-93557659D01*
X177165001Y-93557659D01*
X177229681Y-93552000D01*
X177400408Y-93537063D01*
X177628663Y-93475903D01*
X177842830Y-93376035D01*
X178036401Y-93240495D01*
X178203495Y-93073401D01*
X178333424Y-92887842D01*
X178388002Y-92844217D01*
X178457500Y-92837023D01*
X178519855Y-92868546D01*
X178536575Y-92887842D01*
X178666500Y-93073395D01*
X178666505Y-93073401D01*
X178833599Y-93240495D01*
X178902259Y-93288571D01*
X179027165Y-93376032D01*
X179027167Y-93376033D01*
X179027170Y-93376035D01*
X179241337Y-93475903D01*
X179469592Y-93537063D01*
X179640319Y-93552000D01*
X179704999Y-93557659D01*
X179705000Y-93557659D01*
X179705001Y-93557659D01*
X179769681Y-93552000D01*
X179940408Y-93537063D01*
X180168663Y-93475903D01*
X180382830Y-93376035D01*
X180576401Y-93240495D01*
X180743495Y-93073401D01*
X180873424Y-92887842D01*
X180928002Y-92844217D01*
X180997500Y-92837023D01*
X181059855Y-92868546D01*
X181076575Y-92887842D01*
X181206500Y-93073395D01*
X181206505Y-93073401D01*
X181373599Y-93240495D01*
X181442259Y-93288571D01*
X181567165Y-93376032D01*
X181567167Y-93376033D01*
X181567170Y-93376035D01*
X181781337Y-93475903D01*
X182009592Y-93537063D01*
X182180319Y-93552000D01*
X182244999Y-93557659D01*
X182245000Y-93557659D01*
X182245001Y-93557659D01*
X182309681Y-93552000D01*
X182480408Y-93537063D01*
X182708663Y-93475903D01*
X182922830Y-93376035D01*
X183116401Y-93240495D01*
X183283495Y-93073401D01*
X183419035Y-92879830D01*
X183518903Y-92665663D01*
X183580063Y-92437408D01*
X183600659Y-92202000D01*
X183580063Y-91966592D01*
X183529275Y-91777048D01*
X183518905Y-91738344D01*
X183518904Y-91738343D01*
X183518903Y-91738337D01*
X183419035Y-91524171D01*
X183418339Y-91523176D01*
X183283494Y-91330597D01*
X183116402Y-91163506D01*
X183116401Y-91163505D01*
X182982044Y-91069427D01*
X182930841Y-91033574D01*
X182887216Y-90978997D01*
X182880024Y-90909498D01*
X182911546Y-90847144D01*
X182930836Y-90830428D01*
X183116401Y-90700495D01*
X183283495Y-90533401D01*
X183419035Y-90339830D01*
X183518903Y-90125663D01*
X183580063Y-89897408D01*
X183600659Y-89662000D01*
X183580063Y-89426592D01*
X183518903Y-89198337D01*
X183419035Y-88984171D01*
X183414048Y-88977048D01*
X183283494Y-88790597D01*
X183116402Y-88623506D01*
X183116395Y-88623501D01*
X182922834Y-88487967D01*
X182922830Y-88487965D01*
X182887782Y-88471622D01*
X182708663Y-88388097D01*
X182708659Y-88388096D01*
X182708655Y-88388094D01*
X182480413Y-88326938D01*
X182480403Y-88326936D01*
X182245001Y-88306341D01*
X182244999Y-88306341D01*
X182009590Y-88326937D01*
X182009589Y-88326937D01*
X181909124Y-88353855D01*
X181839274Y-88352191D01*
X181789352Y-88321761D01*
X177030803Y-83563212D01*
X177020980Y-83550950D01*
X177020759Y-83551134D01*
X177015786Y-83545122D01*
X176966066Y-83498432D01*
X176964666Y-83497075D01*
X176944476Y-83476884D01*
X176938986Y-83472625D01*
X176934561Y-83468847D01*
X176900582Y-83436938D01*
X176900580Y-83436936D01*
X176900577Y-83436935D01*
X176883029Y-83427288D01*
X176866763Y-83416604D01*
X176850933Y-83404325D01*
X176808168Y-83385818D01*
X176802922Y-83383248D01*
X176762093Y-83360803D01*
X176762092Y-83360802D01*
X176742693Y-83355822D01*
X176724281Y-83349518D01*
X176705898Y-83341562D01*
X176705892Y-83341560D01*
X176659874Y-83334272D01*
X176654152Y-83333087D01*
X176609021Y-83321500D01*
X176609019Y-83321500D01*
X176588984Y-83321500D01*
X176569586Y-83319973D01*
X176562162Y-83318797D01*
X176549805Y-83316840D01*
X176549804Y-83316840D01*
X176503416Y-83321225D01*
X176497578Y-83321500D01*
X172776452Y-83321500D01*
X172709413Y-83301815D01*
X172688771Y-83285181D01*
X171756799Y-82353209D01*
X170807803Y-81404212D01*
X170797980Y-81391950D01*
X170797759Y-81392134D01*
X170792786Y-81386122D01*
X170743066Y-81339432D01*
X170741666Y-81338075D01*
X170721476Y-81317884D01*
X170715986Y-81313625D01*
X170711561Y-81309847D01*
X170677582Y-81277938D01*
X170677580Y-81277936D01*
X170677577Y-81277935D01*
X170660029Y-81268288D01*
X170643763Y-81257604D01*
X170627936Y-81245327D01*
X170627935Y-81245326D01*
X170627933Y-81245325D01*
X170585168Y-81226818D01*
X170579922Y-81224248D01*
X170539093Y-81201803D01*
X170539092Y-81201802D01*
X170519693Y-81196822D01*
X170501281Y-81190518D01*
X170482898Y-81182562D01*
X170482892Y-81182560D01*
X170436874Y-81175272D01*
X170431152Y-81174087D01*
X170386021Y-81162500D01*
X170386019Y-81162500D01*
X170365984Y-81162500D01*
X170346586Y-81160973D01*
X170339162Y-81159797D01*
X170326805Y-81157840D01*
X170326804Y-81157840D01*
X170280416Y-81162225D01*
X170274578Y-81162500D01*
X169905646Y-81162500D01*
X169838607Y-81142815D01*
X169792852Y-81090011D01*
X169782908Y-81020853D01*
X169811933Y-80957297D01*
X169870711Y-80919523D01*
X169894838Y-80914972D01*
X169898692Y-80914635D01*
X170118496Y-80855739D01*
X170324734Y-80759568D01*
X170511139Y-80629047D01*
X170672047Y-80468139D01*
X170802568Y-80281734D01*
X170898739Y-80075496D01*
X170957635Y-79855692D01*
X170977468Y-79629000D01*
X170957635Y-79402308D01*
X170898739Y-79182504D01*
X170802568Y-78976266D01*
X170688822Y-78813818D01*
X170672045Y-78789858D01*
X170511141Y-78628954D01*
X170324734Y-78498432D01*
X170324728Y-78498429D01*
X170266725Y-78471382D01*
X170214285Y-78425210D01*
X170195133Y-78358017D01*
X170215348Y-78291135D01*
X170266725Y-78246618D01*
X170324734Y-78219568D01*
X170511139Y-78089047D01*
X170672047Y-77928139D01*
X170679741Y-77917149D01*
X170734315Y-77873524D01*
X170803813Y-77866327D01*
X170866169Y-77897847D01*
X170868997Y-77900587D01*
X171800734Y-78832325D01*
X172727197Y-79758788D01*
X172737022Y-79771051D01*
X172737243Y-79770869D01*
X172742211Y-79776874D01*
X172791932Y-79823566D01*
X172793332Y-79824923D01*
X172813523Y-79845115D01*
X172813527Y-79845118D01*
X172813529Y-79845120D01*
X172819011Y-79849373D01*
X172823443Y-79853157D01*
X172857418Y-79885062D01*
X172874976Y-79894714D01*
X172891235Y-79905395D01*
X172907064Y-79917673D01*
X172949838Y-79936182D01*
X172955056Y-79938738D01*
X172995908Y-79961197D01*
X173015316Y-79966180D01*
X173033717Y-79972480D01*
X173052104Y-79980437D01*
X173095488Y-79987308D01*
X173098119Y-79987725D01*
X173103839Y-79988909D01*
X173148981Y-80000500D01*
X173169016Y-80000500D01*
X173188414Y-80002026D01*
X173208194Y-80005159D01*
X173208195Y-80005160D01*
X173208195Y-80005159D01*
X173208196Y-80005160D01*
X173254583Y-80000775D01*
X173260422Y-80000500D01*
X175031042Y-80000500D01*
X175098081Y-80020185D01*
X175143836Y-80072989D01*
X175153780Y-80142147D01*
X175124755Y-80205703D01*
X175093044Y-80231886D01*
X175090420Y-80233400D01*
X174896926Y-80368886D01*
X174896920Y-80368891D01*
X174729891Y-80535920D01*
X174729886Y-80535926D01*
X174594400Y-80729420D01*
X174594399Y-80729422D01*
X174494570Y-80943507D01*
X174494567Y-80943513D01*
X174437364Y-81156999D01*
X174437364Y-81157000D01*
X175334314Y-81157000D01*
X175308507Y-81197156D01*
X175268000Y-81335111D01*
X175268000Y-81478889D01*
X175308507Y-81616844D01*
X175334314Y-81657000D01*
X174437364Y-81657000D01*
X174494567Y-81870486D01*
X174494570Y-81870492D01*
X174594399Y-82084578D01*
X174729894Y-82278082D01*
X174896917Y-82445105D01*
X175090421Y-82580600D01*
X175304507Y-82680429D01*
X175304516Y-82680433D01*
X175518000Y-82737634D01*
X175518000Y-81842501D01*
X175625685Y-81891680D01*
X175732237Y-81907000D01*
X175803763Y-81907000D01*
X175910315Y-81891680D01*
X176018000Y-81842501D01*
X176018000Y-82737633D01*
X176231483Y-82680433D01*
X176231492Y-82680429D01*
X176445578Y-82580600D01*
X176639082Y-82445105D01*
X176806105Y-82278082D01*
X176936119Y-82092405D01*
X176990696Y-82048781D01*
X177060195Y-82041588D01*
X177122549Y-82073110D01*
X177139269Y-82092405D01*
X177269505Y-82278401D01*
X177436599Y-82445495D01*
X177533384Y-82513264D01*
X177630165Y-82581032D01*
X177630167Y-82581033D01*
X177630170Y-82581035D01*
X177844337Y-82680903D01*
X178072592Y-82742063D01*
X178249034Y-82757500D01*
X178307999Y-82762659D01*
X178308000Y-82762659D01*
X178308001Y-82762659D01*
X178366966Y-82757500D01*
X178543408Y-82742063D01*
X178771663Y-82680903D01*
X178985830Y-82581035D01*
X179179401Y-82445495D01*
X179301329Y-82323566D01*
X179362648Y-82290084D01*
X179432340Y-82295068D01*
X179488274Y-82336939D01*
X179505189Y-82367917D01*
X179554202Y-82499328D01*
X179554206Y-82499335D01*
X179640452Y-82614544D01*
X179640455Y-82614547D01*
X179755664Y-82700793D01*
X179755671Y-82700797D01*
X179890517Y-82751091D01*
X179890516Y-82751091D01*
X179897444Y-82751835D01*
X179950127Y-82757500D01*
X181745872Y-82757499D01*
X181805483Y-82751091D01*
X181940331Y-82700796D01*
X182055546Y-82614546D01*
X182141796Y-82499331D01*
X182192091Y-82364483D01*
X182198500Y-82304873D01*
X182198499Y-80509128D01*
X182192091Y-80449517D01*
X182190810Y-80446083D01*
X182141797Y-80314671D01*
X182141793Y-80314664D01*
X182055547Y-80199455D01*
X182055544Y-80199452D01*
X181940335Y-80113206D01*
X181940328Y-80113202D01*
X181805482Y-80062908D01*
X181805483Y-80062908D01*
X181745883Y-80056501D01*
X181745881Y-80056500D01*
X181745873Y-80056500D01*
X181745864Y-80056500D01*
X179950129Y-80056500D01*
X179950123Y-80056501D01*
X179890516Y-80062908D01*
X179755671Y-80113202D01*
X179755664Y-80113206D01*
X179640455Y-80199452D01*
X179640452Y-80199455D01*
X179554206Y-80314664D01*
X179554203Y-80314669D01*
X179505189Y-80446083D01*
X179463317Y-80502016D01*
X179397853Y-80526433D01*
X179329580Y-80511581D01*
X179301326Y-80490430D01*
X179179402Y-80368506D01*
X179179395Y-80368501D01*
X178985834Y-80232967D01*
X178985830Y-80232965D01*
X178964162Y-80222861D01*
X178771663Y-80133097D01*
X178771659Y-80133096D01*
X178771655Y-80133094D01*
X178543413Y-80071938D01*
X178543403Y-80071936D01*
X178308001Y-80051341D01*
X178307999Y-80051341D01*
X178072596Y-80071936D01*
X178072586Y-80071938D01*
X177972126Y-80098856D01*
X177902276Y-80097193D01*
X177852352Y-80066762D01*
X176776803Y-78991212D01*
X176766980Y-78978950D01*
X176766759Y-78979134D01*
X176761786Y-78973122D01*
X176712066Y-78926432D01*
X176710666Y-78925075D01*
X176690476Y-78904884D01*
X176684986Y-78900625D01*
X176680561Y-78896847D01*
X176646582Y-78864938D01*
X176646580Y-78864936D01*
X176646577Y-78864935D01*
X176629029Y-78855288D01*
X176612763Y-78844604D01*
X176596933Y-78832325D01*
X176554168Y-78813818D01*
X176548922Y-78811248D01*
X176508093Y-78788803D01*
X176508092Y-78788802D01*
X176488693Y-78783822D01*
X176470281Y-78777518D01*
X176451898Y-78769562D01*
X176451892Y-78769560D01*
X176405874Y-78762272D01*
X176400152Y-78761087D01*
X176355021Y-78749500D01*
X176355019Y-78749500D01*
X176334984Y-78749500D01*
X176315586Y-78747973D01*
X176308162Y-78746797D01*
X176295805Y-78744840D01*
X176295804Y-78744840D01*
X176249416Y-78749225D01*
X176243578Y-78749500D01*
X173538453Y-78749500D01*
X173471414Y-78729815D01*
X173450772Y-78713181D01*
X171442803Y-76705212D01*
X171432980Y-76692950D01*
X171432759Y-76693134D01*
X171427786Y-76687122D01*
X171378066Y-76640432D01*
X171376666Y-76639075D01*
X171356476Y-76618884D01*
X171350986Y-76614625D01*
X171346561Y-76610847D01*
X171312582Y-76578938D01*
X171312580Y-76578936D01*
X171312577Y-76578935D01*
X171295029Y-76569288D01*
X171278763Y-76558604D01*
X171268220Y-76550426D01*
X171262936Y-76546327D01*
X171262935Y-76546326D01*
X171262933Y-76546325D01*
X171220168Y-76527818D01*
X171214922Y-76525248D01*
X171174093Y-76502803D01*
X171174092Y-76502802D01*
X171154693Y-76497822D01*
X171136281Y-76491518D01*
X171117898Y-76483562D01*
X171117892Y-76483560D01*
X171071874Y-76476272D01*
X171066152Y-76475087D01*
X171021021Y-76463500D01*
X171021019Y-76463500D01*
X171000984Y-76463500D01*
X170981586Y-76461973D01*
X170974162Y-76460797D01*
X170961805Y-76458840D01*
X170961804Y-76458840D01*
X170915416Y-76463225D01*
X170909578Y-76463500D01*
X170886188Y-76463500D01*
X170819149Y-76443815D01*
X170784613Y-76410623D01*
X170672045Y-76249858D01*
X170511141Y-76088954D01*
X170324734Y-75958432D01*
X170324728Y-75958429D01*
X170266725Y-75931382D01*
X170214285Y-75885210D01*
X170195133Y-75818017D01*
X170215348Y-75751135D01*
X170266725Y-75706618D01*
X170324734Y-75679568D01*
X170511139Y-75549047D01*
X170672047Y-75388139D01*
X170802568Y-75201734D01*
X170898739Y-74995496D01*
X170957635Y-74775692D01*
X170977468Y-74549000D01*
X170957635Y-74322308D01*
X170898739Y-74102504D01*
X170802568Y-73896266D01*
X170672047Y-73709861D01*
X170672045Y-73709858D01*
X170511141Y-73548954D01*
X170324734Y-73418432D01*
X170324732Y-73418431D01*
X170286916Y-73400797D01*
X170266724Y-73391381D01*
X170214286Y-73345209D01*
X170195134Y-73278016D01*
X170215350Y-73211135D01*
X170266726Y-73166618D01*
X170312017Y-73145498D01*
X170324734Y-73139568D01*
X170373749Y-73105247D01*
X170439953Y-73082921D01*
X170507721Y-73099931D01*
X170532551Y-73119141D01*
X171442697Y-74029288D01*
X172346197Y-74932788D01*
X172356022Y-74945051D01*
X172356243Y-74944869D01*
X172361211Y-74950874D01*
X172410932Y-74997566D01*
X172412332Y-74998923D01*
X172432523Y-75019115D01*
X172432527Y-75019118D01*
X172432529Y-75019120D01*
X172438011Y-75023373D01*
X172442443Y-75027157D01*
X172476418Y-75059062D01*
X172493976Y-75068714D01*
X172510235Y-75079395D01*
X172526064Y-75091673D01*
X172568838Y-75110182D01*
X172574056Y-75112738D01*
X172614908Y-75135197D01*
X172634316Y-75140180D01*
X172652717Y-75146480D01*
X172671104Y-75154437D01*
X172714488Y-75161308D01*
X172717119Y-75161725D01*
X172722839Y-75162909D01*
X172767981Y-75174500D01*
X172788016Y-75174500D01*
X172807414Y-75176026D01*
X172827194Y-75179159D01*
X172827195Y-75179160D01*
X172827195Y-75179159D01*
X172827196Y-75179160D01*
X172873583Y-75174775D01*
X172879422Y-75174500D01*
X175526479Y-75174500D01*
X175593518Y-75194185D01*
X175639273Y-75246989D01*
X175649217Y-75316147D01*
X175620192Y-75379703D01*
X175561414Y-75417477D01*
X175537287Y-75422028D01*
X175532683Y-75422430D01*
X175532673Y-75422432D01*
X175304516Y-75483566D01*
X175304507Y-75483570D01*
X175090422Y-75583399D01*
X175090420Y-75583400D01*
X174896926Y-75718886D01*
X174896920Y-75718891D01*
X174729891Y-75885920D01*
X174729886Y-75885926D01*
X174594400Y-76079420D01*
X174594399Y-76079422D01*
X174494570Y-76293507D01*
X174494567Y-76293513D01*
X174437364Y-76506999D01*
X174437364Y-76507000D01*
X175334314Y-76507000D01*
X175308507Y-76547156D01*
X175268000Y-76685111D01*
X175268000Y-76828889D01*
X175308507Y-76966844D01*
X175334314Y-77007000D01*
X174437364Y-77007000D01*
X174494567Y-77220486D01*
X174494570Y-77220492D01*
X174594399Y-77434578D01*
X174729894Y-77628082D01*
X174896917Y-77795105D01*
X175090421Y-77930600D01*
X175304507Y-78030429D01*
X175304516Y-78030433D01*
X175518000Y-78087634D01*
X175518000Y-77192501D01*
X175625685Y-77241680D01*
X175732237Y-77257000D01*
X175803763Y-77257000D01*
X175910315Y-77241680D01*
X176018000Y-77192501D01*
X176018000Y-78087633D01*
X176231483Y-78030433D01*
X176231492Y-78030429D01*
X176445578Y-77930600D01*
X176639082Y-77795105D01*
X176806105Y-77628082D01*
X176936119Y-77442405D01*
X176990696Y-77398781D01*
X177060195Y-77391588D01*
X177122549Y-77423110D01*
X177139269Y-77442405D01*
X177269505Y-77628401D01*
X177436599Y-77795495D01*
X177528980Y-77860181D01*
X177630165Y-77931032D01*
X177630167Y-77931033D01*
X177630170Y-77931035D01*
X177844337Y-78030903D01*
X178072592Y-78092063D01*
X178249034Y-78107500D01*
X178307999Y-78112659D01*
X178308000Y-78112659D01*
X178308001Y-78112659D01*
X178366966Y-78107500D01*
X178543408Y-78092063D01*
X178771663Y-78030903D01*
X178985830Y-77931035D01*
X179179401Y-77795495D01*
X179301329Y-77673566D01*
X179362648Y-77640084D01*
X179432340Y-77645068D01*
X179488274Y-77686939D01*
X179505189Y-77717917D01*
X179554202Y-77849328D01*
X179554206Y-77849335D01*
X179640452Y-77964544D01*
X179640455Y-77964547D01*
X179755664Y-78050793D01*
X179755671Y-78050797D01*
X179890517Y-78101091D01*
X179890516Y-78101091D01*
X179897444Y-78101835D01*
X179950127Y-78107500D01*
X181745872Y-78107499D01*
X181805483Y-78101091D01*
X181940331Y-78050796D01*
X182055546Y-77964546D01*
X182141796Y-77849331D01*
X182192091Y-77714483D01*
X182198500Y-77654873D01*
X182198499Y-75859128D01*
X182192091Y-75799517D01*
X182190810Y-75796083D01*
X182141797Y-75664671D01*
X182141793Y-75664664D01*
X182055547Y-75549455D01*
X182055544Y-75549452D01*
X181940335Y-75463206D01*
X181940328Y-75463202D01*
X181805482Y-75412908D01*
X181805483Y-75412908D01*
X181745883Y-75406501D01*
X181745881Y-75406500D01*
X181745873Y-75406500D01*
X181745864Y-75406500D01*
X179950129Y-75406500D01*
X179950123Y-75406501D01*
X179890516Y-75412908D01*
X179755671Y-75463202D01*
X179755664Y-75463206D01*
X179640455Y-75549452D01*
X179640452Y-75549455D01*
X179554206Y-75664664D01*
X179554203Y-75664669D01*
X179505189Y-75796083D01*
X179463317Y-75852016D01*
X179397853Y-75876433D01*
X179329580Y-75861581D01*
X179301326Y-75840430D01*
X179179402Y-75718506D01*
X179179395Y-75718501D01*
X179162424Y-75706618D01*
X179102518Y-75664671D01*
X178985834Y-75582967D01*
X178985830Y-75582965D01*
X178985829Y-75582964D01*
X178771663Y-75483097D01*
X178771659Y-75483096D01*
X178771655Y-75483094D01*
X178543413Y-75421938D01*
X178543403Y-75421936D01*
X178308001Y-75401341D01*
X178307999Y-75401341D01*
X178072596Y-75421936D01*
X178072586Y-75421938D01*
X177972126Y-75448856D01*
X177902276Y-75447193D01*
X177852352Y-75416762D01*
X176600803Y-74165212D01*
X176590980Y-74152950D01*
X176590759Y-74153134D01*
X176585786Y-74147122D01*
X176536066Y-74100432D01*
X176534666Y-74099075D01*
X176514476Y-74078884D01*
X176508986Y-74074625D01*
X176504561Y-74070847D01*
X176470582Y-74038938D01*
X176470580Y-74038936D01*
X176470577Y-74038935D01*
X176453029Y-74029288D01*
X176436763Y-74018604D01*
X176420933Y-74006325D01*
X176378168Y-73987818D01*
X176372922Y-73985248D01*
X176332093Y-73962803D01*
X176332092Y-73962802D01*
X176312693Y-73957822D01*
X176294281Y-73951518D01*
X176275898Y-73943562D01*
X176275892Y-73943560D01*
X176229874Y-73936272D01*
X176224152Y-73935087D01*
X176179021Y-73923500D01*
X176179019Y-73923500D01*
X176158984Y-73923500D01*
X176139586Y-73921973D01*
X176132162Y-73920797D01*
X176119805Y-73918840D01*
X176119804Y-73918840D01*
X176073416Y-73923225D01*
X176067578Y-73923500D01*
X173157453Y-73923500D01*
X173090414Y-73903815D01*
X173069772Y-73887181D01*
X170978470Y-71795879D01*
X170946376Y-71740292D01*
X170898739Y-71562504D01*
X170888666Y-71540904D01*
X170878175Y-71471827D01*
X170906695Y-71408043D01*
X170965171Y-71369804D01*
X171001049Y-71364500D01*
X172891257Y-71364500D01*
X172906877Y-71366224D01*
X172906904Y-71365939D01*
X172914666Y-71366673D01*
X172914666Y-71366672D01*
X172914667Y-71366673D01*
X172917999Y-71366568D01*
X172982847Y-71364531D01*
X172984794Y-71364500D01*
X173013347Y-71364500D01*
X173013350Y-71364500D01*
X173020228Y-71363630D01*
X173026041Y-71363172D01*
X173072627Y-71361709D01*
X173091869Y-71356117D01*
X173110912Y-71352174D01*
X173130792Y-71349664D01*
X173174122Y-71332507D01*
X173179646Y-71330617D01*
X173183396Y-71329527D01*
X173224390Y-71317618D01*
X173241629Y-71307422D01*
X173259103Y-71298862D01*
X173277727Y-71291488D01*
X173277727Y-71291487D01*
X173277732Y-71291486D01*
X173315449Y-71264082D01*
X173320305Y-71260892D01*
X173360420Y-71237170D01*
X173374589Y-71222999D01*
X173389379Y-71210368D01*
X173405587Y-71198594D01*
X173435297Y-71162678D01*
X173439204Y-71158384D01*
X173450776Y-71146812D01*
X173512099Y-71113332D01*
X173538451Y-71110500D01*
X174579510Y-71110500D01*
X174646549Y-71130185D01*
X174692304Y-71182989D01*
X174702248Y-71252147D01*
X174681085Y-71305624D01*
X174594398Y-71429424D01*
X174494570Y-71643507D01*
X174494567Y-71643513D01*
X174437364Y-71856999D01*
X174437364Y-71857000D01*
X175334314Y-71857000D01*
X175308507Y-71897156D01*
X175268000Y-72035111D01*
X175268000Y-72178889D01*
X175308507Y-72316844D01*
X175334314Y-72357000D01*
X174437364Y-72357000D01*
X174494567Y-72570486D01*
X174494570Y-72570492D01*
X174594399Y-72784578D01*
X174729894Y-72978082D01*
X174896917Y-73145105D01*
X175090421Y-73280600D01*
X175304507Y-73380429D01*
X175304516Y-73380433D01*
X175518000Y-73437634D01*
X175518000Y-72542501D01*
X175625685Y-72591680D01*
X175732237Y-72607000D01*
X175803763Y-72607000D01*
X175910315Y-72591680D01*
X176018000Y-72542501D01*
X176018000Y-73437633D01*
X176231483Y-73380433D01*
X176231492Y-73380429D01*
X176445578Y-73280600D01*
X176639082Y-73145105D01*
X176806105Y-72978082D01*
X176936119Y-72792405D01*
X176990696Y-72748781D01*
X177060195Y-72741588D01*
X177122549Y-72773110D01*
X177139269Y-72792405D01*
X177269505Y-72978401D01*
X177436599Y-73145495D01*
X177530343Y-73211135D01*
X177630165Y-73281032D01*
X177630167Y-73281033D01*
X177630170Y-73281035D01*
X177844337Y-73380903D01*
X178072592Y-73442063D01*
X178249034Y-73457500D01*
X178307999Y-73462659D01*
X178308000Y-73462659D01*
X178308001Y-73462659D01*
X178366966Y-73457500D01*
X178543408Y-73442063D01*
X178771663Y-73380903D01*
X178985830Y-73281035D01*
X179179401Y-73145495D01*
X179301329Y-73023566D01*
X179362648Y-72990084D01*
X179432340Y-72995068D01*
X179488274Y-73036939D01*
X179505189Y-73067917D01*
X179554202Y-73199328D01*
X179554206Y-73199335D01*
X179640452Y-73314544D01*
X179640455Y-73314547D01*
X179755664Y-73400793D01*
X179755671Y-73400797D01*
X179890517Y-73451091D01*
X179890516Y-73451091D01*
X179897444Y-73451835D01*
X179950127Y-73457500D01*
X181745872Y-73457499D01*
X181805483Y-73451091D01*
X181940331Y-73400796D01*
X182055546Y-73314546D01*
X182141796Y-73199331D01*
X182192091Y-73064483D01*
X182198500Y-73004873D01*
X182198499Y-71209128D01*
X182192091Y-71149517D01*
X182190810Y-71146083D01*
X182141797Y-71014671D01*
X182141793Y-71014664D01*
X182055547Y-70899455D01*
X182055544Y-70899452D01*
X181940335Y-70813206D01*
X181940328Y-70813202D01*
X181805482Y-70762908D01*
X181805483Y-70762908D01*
X181745883Y-70756501D01*
X181745881Y-70756500D01*
X181745873Y-70756500D01*
X181745864Y-70756500D01*
X179950129Y-70756500D01*
X179950123Y-70756501D01*
X179890516Y-70762908D01*
X179755671Y-70813202D01*
X179755664Y-70813206D01*
X179640455Y-70899452D01*
X179640452Y-70899455D01*
X179554206Y-71014664D01*
X179554203Y-71014669D01*
X179505189Y-71146083D01*
X179463317Y-71202016D01*
X179397853Y-71226433D01*
X179329580Y-71211581D01*
X179301326Y-71190430D01*
X179179402Y-71068506D01*
X179179395Y-71068501D01*
X178985834Y-70932967D01*
X178985830Y-70932965D01*
X178985829Y-70932964D01*
X178771663Y-70833097D01*
X178771659Y-70833096D01*
X178771655Y-70833094D01*
X178543413Y-70771938D01*
X178543403Y-70771936D01*
X178308001Y-70751341D01*
X178307999Y-70751341D01*
X178072590Y-70771937D01*
X178072589Y-70771937D01*
X177972124Y-70798855D01*
X177902274Y-70797191D01*
X177852352Y-70766761D01*
X177186803Y-70101212D01*
X177176980Y-70088950D01*
X177176759Y-70089134D01*
X177171786Y-70083122D01*
X177122066Y-70036432D01*
X177120666Y-70035075D01*
X177100476Y-70014884D01*
X177094986Y-70010625D01*
X177090561Y-70006847D01*
X177056582Y-69974938D01*
X177056580Y-69974936D01*
X177056577Y-69974935D01*
X177039029Y-69965288D01*
X177022763Y-69954604D01*
X177006932Y-69942324D01*
X176964171Y-69923819D01*
X176958928Y-69921251D01*
X176954870Y-69919021D01*
X176905601Y-69869479D01*
X176890938Y-69801165D01*
X176915536Y-69735769D01*
X176926903Y-69722686D01*
X177852353Y-68797235D01*
X177913674Y-68763752D01*
X177972125Y-68765143D01*
X177995514Y-68771410D01*
X178072592Y-68792063D01*
X178249034Y-68807500D01*
X178307999Y-68812659D01*
X178308000Y-68812659D01*
X178308001Y-68812659D01*
X178355582Y-68808496D01*
X178543408Y-68792063D01*
X178771663Y-68730903D01*
X178985830Y-68631035D01*
X179179401Y-68495495D01*
X179301329Y-68373566D01*
X179362648Y-68340084D01*
X179432340Y-68345068D01*
X179488274Y-68386939D01*
X179505189Y-68417917D01*
X179554202Y-68549328D01*
X179554206Y-68549335D01*
X179640452Y-68664544D01*
X179640455Y-68664547D01*
X179755664Y-68750793D01*
X179755671Y-68750797D01*
X179890517Y-68801091D01*
X179890516Y-68801091D01*
X179897444Y-68801835D01*
X179950127Y-68807500D01*
X181745872Y-68807499D01*
X181805483Y-68801091D01*
X181940331Y-68750796D01*
X182055546Y-68664546D01*
X182141796Y-68549331D01*
X182192091Y-68414483D01*
X182198500Y-68354873D01*
X182198499Y-66559128D01*
X182193299Y-66510757D01*
X182192091Y-66499516D01*
X182141797Y-66364671D01*
X182141793Y-66364664D01*
X182055547Y-66249455D01*
X182055544Y-66249452D01*
X181940335Y-66163206D01*
X181940328Y-66163202D01*
X181805482Y-66112908D01*
X181805483Y-66112908D01*
X181745883Y-66106501D01*
X181745881Y-66106500D01*
X181745873Y-66106500D01*
X181745864Y-66106500D01*
X179950129Y-66106500D01*
X179950123Y-66106501D01*
X179890516Y-66112908D01*
X179755671Y-66163202D01*
X179755664Y-66163206D01*
X179640455Y-66249452D01*
X179640452Y-66249455D01*
X179554206Y-66364664D01*
X179554203Y-66364669D01*
X179505189Y-66496083D01*
X179463317Y-66552016D01*
X179397853Y-66576433D01*
X179329580Y-66561581D01*
X179301326Y-66540430D01*
X179179402Y-66418506D01*
X179179395Y-66418501D01*
X179175123Y-66415510D01*
X179132198Y-66385453D01*
X178985834Y-66282967D01*
X178985830Y-66282965D01*
X178954784Y-66268488D01*
X178771663Y-66183097D01*
X178771659Y-66183096D01*
X178771655Y-66183094D01*
X178543413Y-66121938D01*
X178543403Y-66121936D01*
X178308001Y-66101341D01*
X178307999Y-66101341D01*
X178072596Y-66121936D01*
X178072586Y-66121938D01*
X177844344Y-66183094D01*
X177844335Y-66183098D01*
X177630171Y-66282964D01*
X177630169Y-66282965D01*
X177436597Y-66418505D01*
X177269508Y-66585594D01*
X177139269Y-66771595D01*
X177084692Y-66815219D01*
X177015193Y-66822412D01*
X176952839Y-66790890D01*
X176936119Y-66771594D01*
X176806113Y-66585926D01*
X176806108Y-66585920D01*
X176639082Y-66418894D01*
X176445578Y-66283399D01*
X176231492Y-66183570D01*
X176231486Y-66183567D01*
X176018000Y-66126364D01*
X176018000Y-67021498D01*
X175910315Y-66972320D01*
X175803763Y-66957000D01*
X175732237Y-66957000D01*
X175625685Y-66972320D01*
X175518000Y-67021498D01*
X175518000Y-66126364D01*
X175517999Y-66126364D01*
X175304513Y-66183567D01*
X175304507Y-66183570D01*
X175090422Y-66283399D01*
X175090420Y-66283400D01*
X174896926Y-66418886D01*
X174896920Y-66418891D01*
X174729891Y-66585920D01*
X174729886Y-66585926D01*
X174594400Y-66779420D01*
X174594399Y-66779422D01*
X174494570Y-66993507D01*
X174494567Y-66993513D01*
X174437364Y-67206999D01*
X174437364Y-67207000D01*
X175334314Y-67207000D01*
X175308507Y-67247156D01*
X175268000Y-67385111D01*
X175268000Y-67528889D01*
X175308507Y-67666844D01*
X175334314Y-67707000D01*
X174437364Y-67707000D01*
X174494567Y-67920486D01*
X174494570Y-67920492D01*
X174594399Y-68134578D01*
X174729894Y-68328082D01*
X174896917Y-68495105D01*
X175090421Y-68630600D01*
X175309416Y-68732719D01*
X175308795Y-68734048D01*
X175359533Y-68771410D01*
X175384465Y-68836680D01*
X175370151Y-68905068D01*
X175321136Y-68954861D01*
X175260854Y-68970500D01*
X174046453Y-68970500D01*
X173979414Y-68950815D01*
X173958772Y-68934181D01*
X172839803Y-67815212D01*
X172829980Y-67802950D01*
X172829759Y-67803134D01*
X172824786Y-67797122D01*
X172775066Y-67750432D01*
X172773666Y-67749075D01*
X172753476Y-67728884D01*
X172747986Y-67724625D01*
X172743561Y-67720847D01*
X172709582Y-67688938D01*
X172709580Y-67688936D01*
X172709577Y-67688935D01*
X172692029Y-67679288D01*
X172675763Y-67668604D01*
X172659933Y-67656325D01*
X172617168Y-67637818D01*
X172611922Y-67635248D01*
X172571093Y-67612803D01*
X172571092Y-67612802D01*
X172551693Y-67607822D01*
X172533281Y-67601518D01*
X172514898Y-67593562D01*
X172514892Y-67593560D01*
X172468874Y-67586272D01*
X172463152Y-67585087D01*
X172418021Y-67573500D01*
X172418019Y-67573500D01*
X172397984Y-67573500D01*
X172378586Y-67571973D01*
X172369872Y-67570593D01*
X172358805Y-67568840D01*
X172358804Y-67568840D01*
X172312416Y-67573225D01*
X172306578Y-67573500D01*
X171001049Y-67573500D01*
X170934010Y-67553815D01*
X170888255Y-67501011D01*
X170878311Y-67431853D01*
X170888667Y-67397095D01*
X170898739Y-67375496D01*
X170957635Y-67155692D01*
X170977468Y-66929000D01*
X170957635Y-66702308D01*
X170903297Y-66499516D01*
X170898741Y-66482511D01*
X170898738Y-66482502D01*
X170895115Y-66474732D01*
X170802568Y-66276266D01*
X170672047Y-66089861D01*
X170672045Y-66089858D01*
X170511141Y-65928954D01*
X170324734Y-65798432D01*
X170324728Y-65798429D01*
X170266725Y-65771382D01*
X170214285Y-65725210D01*
X170195133Y-65658017D01*
X170215348Y-65591135D01*
X170266725Y-65546618D01*
X170324734Y-65519568D01*
X170511139Y-65389047D01*
X170672047Y-65228139D01*
X170802568Y-65041734D01*
X170898739Y-64835496D01*
X170957635Y-64615692D01*
X170977468Y-64389000D01*
X170957635Y-64162308D01*
X170909063Y-63981034D01*
X170898741Y-63942511D01*
X170898740Y-63942510D01*
X170898739Y-63942504D01*
X170888666Y-63920904D01*
X170878175Y-63851827D01*
X170906695Y-63788043D01*
X170965171Y-63749804D01*
X171001049Y-63744500D01*
X171139548Y-63744500D01*
X171206587Y-63764185D01*
X171227229Y-63780819D01*
X172600194Y-65153784D01*
X172610019Y-65166048D01*
X172610240Y-65165866D01*
X172615210Y-65171874D01*
X172664949Y-65218582D01*
X172666316Y-65219906D01*
X172686530Y-65240120D01*
X172692004Y-65244366D01*
X172696442Y-65248156D01*
X172730418Y-65280062D01*
X172730422Y-65280064D01*
X172747973Y-65289713D01*
X172764231Y-65300392D01*
X172780064Y-65312674D01*
X172802015Y-65322172D01*
X172822837Y-65331183D01*
X172828081Y-65333752D01*
X172868908Y-65356197D01*
X172888312Y-65361179D01*
X172906710Y-65367478D01*
X172925105Y-65375438D01*
X172971129Y-65382726D01*
X172976832Y-65383907D01*
X173021981Y-65395500D01*
X173042016Y-65395500D01*
X173061413Y-65397026D01*
X173081196Y-65400160D01*
X173127583Y-65395775D01*
X173133422Y-65395500D01*
X176262257Y-65395500D01*
X176277877Y-65397224D01*
X176277904Y-65396939D01*
X176285666Y-65397673D01*
X176285666Y-65397672D01*
X176285667Y-65397673D01*
X176288999Y-65397568D01*
X176353847Y-65395531D01*
X176355794Y-65395500D01*
X176384347Y-65395500D01*
X176384350Y-65395500D01*
X176391228Y-65394630D01*
X176397041Y-65394172D01*
X176443627Y-65392709D01*
X176462869Y-65387117D01*
X176481912Y-65383174D01*
X176501792Y-65380664D01*
X176545122Y-65363507D01*
X176550646Y-65361617D01*
X176554396Y-65360527D01*
X176595390Y-65348618D01*
X176612629Y-65338422D01*
X176630103Y-65329862D01*
X176648727Y-65322488D01*
X176648727Y-65322487D01*
X176648732Y-65322486D01*
X176686449Y-65295082D01*
X176691305Y-65291892D01*
X176731420Y-65268170D01*
X176745589Y-65253999D01*
X176760379Y-65241368D01*
X176776587Y-65229594D01*
X176806299Y-65193676D01*
X176810212Y-65189376D01*
X177852353Y-64147235D01*
X177913674Y-64113752D01*
X177972125Y-64115143D01*
X177994503Y-64121139D01*
X178072592Y-64142063D01*
X178249034Y-64157500D01*
X178307999Y-64162659D01*
X178308000Y-64162659D01*
X178308001Y-64162659D01*
X178366966Y-64157500D01*
X178543408Y-64142063D01*
X178771663Y-64080903D01*
X178985830Y-63981035D01*
X179179401Y-63845495D01*
X179301329Y-63723566D01*
X179362648Y-63690084D01*
X179432340Y-63695068D01*
X179488274Y-63736939D01*
X179505189Y-63767917D01*
X179554202Y-63899328D01*
X179554206Y-63899335D01*
X179640452Y-64014544D01*
X179640455Y-64014547D01*
X179755664Y-64100793D01*
X179755671Y-64100797D01*
X179890517Y-64151091D01*
X179890516Y-64151091D01*
X179897444Y-64151835D01*
X179950127Y-64157500D01*
X181745872Y-64157499D01*
X181805483Y-64151091D01*
X181940331Y-64100796D01*
X182055546Y-64014546D01*
X182141796Y-63899331D01*
X182192091Y-63764483D01*
X182198500Y-63704873D01*
X182198499Y-61909128D01*
X182192091Y-61849517D01*
X182191898Y-61849000D01*
X182141797Y-61714671D01*
X182141793Y-61714664D01*
X182055547Y-61599455D01*
X182055544Y-61599452D01*
X181940335Y-61513206D01*
X181940328Y-61513202D01*
X181805482Y-61462908D01*
X181805483Y-61462908D01*
X181745883Y-61456501D01*
X181745881Y-61456500D01*
X181745873Y-61456500D01*
X181745864Y-61456500D01*
X179950129Y-61456500D01*
X179950123Y-61456501D01*
X179890516Y-61462908D01*
X179755671Y-61513202D01*
X179755664Y-61513206D01*
X179640455Y-61599452D01*
X179640452Y-61599455D01*
X179554206Y-61714664D01*
X179554203Y-61714669D01*
X179505189Y-61846083D01*
X179463317Y-61902016D01*
X179397853Y-61926433D01*
X179329580Y-61911581D01*
X179301326Y-61890430D01*
X179179402Y-61768506D01*
X179179395Y-61768501D01*
X178985834Y-61632967D01*
X178985830Y-61632965D01*
X178962963Y-61622302D01*
X178771663Y-61533097D01*
X178771659Y-61533096D01*
X178771655Y-61533094D01*
X178543413Y-61471938D01*
X178543403Y-61471936D01*
X178308001Y-61451341D01*
X178307999Y-61451341D01*
X178072596Y-61471936D01*
X178072586Y-61471938D01*
X177844344Y-61533094D01*
X177844335Y-61533098D01*
X177630171Y-61632964D01*
X177630169Y-61632965D01*
X177436597Y-61768505D01*
X177269508Y-61935594D01*
X177139269Y-62121595D01*
X177084692Y-62165219D01*
X177015193Y-62172412D01*
X176952839Y-62140890D01*
X176936119Y-62121594D01*
X176806113Y-61935926D01*
X176806108Y-61935920D01*
X176639082Y-61768894D01*
X176445578Y-61633399D01*
X176231492Y-61533570D01*
X176231486Y-61533567D01*
X176018000Y-61476364D01*
X176018000Y-62371498D01*
X175910315Y-62322320D01*
X175803763Y-62307000D01*
X175732237Y-62307000D01*
X175625685Y-62322320D01*
X175518000Y-62371498D01*
X175518000Y-61476364D01*
X175517999Y-61476364D01*
X175304513Y-61533567D01*
X175304507Y-61533570D01*
X175090422Y-61633399D01*
X175090420Y-61633400D01*
X174896926Y-61768886D01*
X174896920Y-61768891D01*
X174729891Y-61935920D01*
X174729886Y-61935926D01*
X174594400Y-62129420D01*
X174594399Y-62129422D01*
X174494570Y-62343507D01*
X174494567Y-62343513D01*
X174437364Y-62556999D01*
X174437364Y-62557000D01*
X175334314Y-62557000D01*
X175308507Y-62597156D01*
X175268000Y-62735111D01*
X175268000Y-62878889D01*
X175308507Y-63016844D01*
X175334314Y-63057000D01*
X174437364Y-63057000D01*
X174494567Y-63270486D01*
X174494570Y-63270492D01*
X174594399Y-63484578D01*
X174729894Y-63678082D01*
X174896921Y-63845109D01*
X175002341Y-63918926D01*
X175045966Y-63973503D01*
X175053158Y-64043001D01*
X175021635Y-64105356D01*
X174961405Y-64140769D01*
X174931217Y-64144500D01*
X173411452Y-64144500D01*
X173344413Y-64124815D01*
X173323771Y-64108181D01*
X171950803Y-62735212D01*
X171940980Y-62722950D01*
X171940759Y-62723134D01*
X171935786Y-62717122D01*
X171886066Y-62670432D01*
X171884666Y-62669075D01*
X171864476Y-62648884D01*
X171858986Y-62644625D01*
X171854561Y-62640847D01*
X171820582Y-62608938D01*
X171820580Y-62608936D01*
X171820577Y-62608935D01*
X171803029Y-62599288D01*
X171786763Y-62588604D01*
X171770933Y-62576325D01*
X171728168Y-62557818D01*
X171722922Y-62555248D01*
X171682093Y-62532803D01*
X171682092Y-62532802D01*
X171662693Y-62527822D01*
X171644281Y-62521518D01*
X171625898Y-62513562D01*
X171625892Y-62513560D01*
X171579874Y-62506272D01*
X171574152Y-62505087D01*
X171529021Y-62493500D01*
X171529019Y-62493500D01*
X171508984Y-62493500D01*
X171489586Y-62491973D01*
X171482162Y-62490797D01*
X171469805Y-62488840D01*
X171469804Y-62488840D01*
X171423416Y-62493225D01*
X171417578Y-62493500D01*
X171001049Y-62493500D01*
X170934010Y-62473815D01*
X170888255Y-62421011D01*
X170878311Y-62351853D01*
X170888667Y-62317095D01*
X170898739Y-62295496D01*
X170957635Y-62075692D01*
X170977468Y-61849000D01*
X170957635Y-61622308D01*
X170898739Y-61402504D01*
X170802568Y-61196266D01*
X170672047Y-61009861D01*
X170672045Y-61009858D01*
X170511141Y-60848954D01*
X170324734Y-60718432D01*
X170324732Y-60718431D01*
X170118497Y-60622261D01*
X170118488Y-60622258D01*
X169898697Y-60563366D01*
X169898693Y-60563365D01*
X169898692Y-60563365D01*
X169898691Y-60563364D01*
X169898686Y-60563364D01*
X169672002Y-60543532D01*
X169671998Y-60543532D01*
X169445313Y-60563364D01*
X169445302Y-60563366D01*
X169225511Y-60622258D01*
X169225502Y-60622261D01*
X169019267Y-60718431D01*
X169019265Y-60718432D01*
X168832858Y-60848954D01*
X168671954Y-61009858D01*
X168541432Y-61196265D01*
X168541431Y-61196267D01*
X168445261Y-61402502D01*
X168445258Y-61402511D01*
X168386366Y-61622302D01*
X168386364Y-61622313D01*
X168375604Y-61745307D01*
X168350152Y-61810376D01*
X168293561Y-61851355D01*
X168252076Y-61858500D01*
X165917056Y-61858500D01*
X165850017Y-61838815D01*
X165829375Y-61822181D01*
X163449116Y-59441921D01*
X163415631Y-59380598D01*
X163420615Y-59310906D01*
X163462487Y-59254973D01*
X163524198Y-59230882D01*
X163541775Y-59229087D01*
X163706925Y-59174362D01*
X163855003Y-59083026D01*
X163978026Y-58960003D01*
X163978455Y-58959306D01*
X163978874Y-58958929D01*
X163982507Y-58954336D01*
X163983291Y-58954956D01*
X164030397Y-58912578D01*
X164099358Y-58901349D01*
X164163443Y-58929186D01*
X164185343Y-58954454D01*
X164185493Y-58954336D01*
X164188117Y-58957655D01*
X164189531Y-58959286D01*
X164189970Y-58959998D01*
X164189974Y-58960003D01*
X164312996Y-59083025D01*
X164313000Y-59083028D01*
X164461066Y-59174357D01*
X164461069Y-59174358D01*
X164461075Y-59174362D01*
X164626225Y-59229087D01*
X164728152Y-59239500D01*
X164728157Y-59239500D01*
X165314843Y-59239500D01*
X165314848Y-59239500D01*
X165335159Y-59237425D01*
X165403852Y-59250194D01*
X165454737Y-59298074D01*
X165471658Y-59365864D01*
X165471083Y-59373743D01*
X165464540Y-59435999D01*
X165464540Y-59436000D01*
X165484326Y-59624256D01*
X165484327Y-59624259D01*
X165542818Y-59804277D01*
X165542821Y-59804284D01*
X165637467Y-59968216D01*
X165746460Y-60089265D01*
X165764129Y-60108888D01*
X165917265Y-60220148D01*
X165917270Y-60220151D01*
X166090192Y-60297142D01*
X166090197Y-60297144D01*
X166275354Y-60336500D01*
X166275355Y-60336500D01*
X166464644Y-60336500D01*
X166464646Y-60336500D01*
X166649803Y-60297144D01*
X166822730Y-60220151D01*
X166975871Y-60108888D01*
X167102533Y-59968216D01*
X167197179Y-59804284D01*
X167255674Y-59624256D01*
X167273321Y-59456344D01*
X167299904Y-59391734D01*
X167308942Y-59381647D01*
X167414773Y-59275816D01*
X167476094Y-59242334D01*
X167502452Y-59239500D01*
X168011843Y-59239500D01*
X168011848Y-59239500D01*
X168113775Y-59229087D01*
X168278925Y-59174362D01*
X168427003Y-59083026D01*
X168550026Y-58960003D01*
X168550458Y-58959301D01*
X168550881Y-58958921D01*
X168554507Y-58954336D01*
X168555290Y-58954955D01*
X168602402Y-58912575D01*
X168671364Y-58901349D01*
X168735448Y-58929188D01*
X168757342Y-58954455D01*
X168757493Y-58954336D01*
X168760143Y-58957687D01*
X168761540Y-58959299D01*
X168761971Y-58959998D01*
X168761975Y-58960004D01*
X168884996Y-59083025D01*
X168885000Y-59083028D01*
X169033066Y-59174357D01*
X169033069Y-59174358D01*
X169033075Y-59174362D01*
X169198225Y-59229087D01*
X169300152Y-59239500D01*
X169300157Y-59239500D01*
X169886843Y-59239500D01*
X169886848Y-59239500D01*
X169988775Y-59229087D01*
X170079122Y-59199148D01*
X170148946Y-59196747D01*
X170208988Y-59232478D01*
X170236054Y-59278535D01*
X170241818Y-59296277D01*
X170241821Y-59296284D01*
X170336467Y-59460216D01*
X170463128Y-59600888D01*
X170463129Y-59600888D01*
X170616265Y-59712148D01*
X170616270Y-59712151D01*
X170789192Y-59789142D01*
X170789197Y-59789144D01*
X170974354Y-59828500D01*
X170974355Y-59828500D01*
X171163644Y-59828500D01*
X171163646Y-59828500D01*
X171348803Y-59789144D01*
X171521730Y-59712151D01*
X171674871Y-59600888D01*
X171801533Y-59460216D01*
X171896179Y-59296284D01*
X171954674Y-59116256D01*
X171974460Y-58928000D01*
X171954674Y-58739744D01*
X171896179Y-58559716D01*
X171888838Y-58547001D01*
X184114532Y-58547001D01*
X184134364Y-58773686D01*
X184134366Y-58773697D01*
X184193258Y-58993488D01*
X184193261Y-58993497D01*
X184289431Y-59199732D01*
X184289432Y-59199734D01*
X184419954Y-59386141D01*
X184580858Y-59547045D01*
X184580861Y-59547047D01*
X184767266Y-59677568D01*
X184973504Y-59773739D01*
X185193308Y-59832635D01*
X185363214Y-59847499D01*
X185363215Y-59847500D01*
X185363216Y-59847500D01*
X185476785Y-59847500D01*
X185476785Y-59847499D01*
X185646692Y-59832635D01*
X185866496Y-59773739D01*
X186072734Y-59677568D01*
X186259139Y-59547047D01*
X186420047Y-59386139D01*
X186550568Y-59199734D01*
X186646739Y-58993496D01*
X186705635Y-58773692D01*
X186724355Y-58559722D01*
X186725468Y-58547001D01*
X186725468Y-58546998D01*
X186705635Y-58320313D01*
X186705635Y-58320308D01*
X186652172Y-58120780D01*
X186646741Y-58100511D01*
X186646738Y-58100502D01*
X186631049Y-58066857D01*
X186550568Y-57894266D01*
X186420047Y-57707861D01*
X186420045Y-57707858D01*
X186259141Y-57546954D01*
X186072734Y-57416432D01*
X186072732Y-57416431D01*
X185866497Y-57320261D01*
X185866488Y-57320258D01*
X185646697Y-57261366D01*
X185646687Y-57261364D01*
X185476785Y-57246500D01*
X185476784Y-57246500D01*
X185363216Y-57246500D01*
X185363215Y-57246500D01*
X185193312Y-57261364D01*
X185193302Y-57261366D01*
X184973511Y-57320258D01*
X184973502Y-57320261D01*
X184767267Y-57416431D01*
X184767265Y-57416432D01*
X184580858Y-57546954D01*
X184419954Y-57707858D01*
X184289432Y-57894265D01*
X184289431Y-57894267D01*
X184193261Y-58100502D01*
X184193258Y-58100511D01*
X184134366Y-58320302D01*
X184134364Y-58320313D01*
X184114532Y-58546998D01*
X184114532Y-58547001D01*
X171888838Y-58547001D01*
X171801533Y-58395784D01*
X171674871Y-58255112D01*
X171671528Y-58252683D01*
X171521734Y-58143851D01*
X171521729Y-58143848D01*
X171348807Y-58066857D01*
X171348802Y-58066855D01*
X171203001Y-58035865D01*
X171163646Y-58027500D01*
X171163645Y-58027500D01*
X171104453Y-58027500D01*
X171037414Y-58007815D01*
X171016772Y-57991181D01*
X170680803Y-57655212D01*
X170670980Y-57642950D01*
X170670759Y-57643134D01*
X170665786Y-57637122D01*
X170618071Y-57592315D01*
X170582676Y-57532074D01*
X170579597Y-57514525D01*
X170579533Y-57513902D01*
X170571087Y-57431225D01*
X170516362Y-57266075D01*
X170516358Y-57266069D01*
X170516357Y-57266066D01*
X170425028Y-57118000D01*
X170425025Y-57117996D01*
X170302003Y-56994974D01*
X170301999Y-56994971D01*
X170153933Y-56903642D01*
X170153927Y-56903639D01*
X170153925Y-56903638D01*
X170153922Y-56903637D01*
X169988776Y-56848913D01*
X169886855Y-56838500D01*
X169886848Y-56838500D01*
X169300152Y-56838500D01*
X169300144Y-56838500D01*
X169198223Y-56848913D01*
X169033077Y-56903637D01*
X169033066Y-56903642D01*
X168885000Y-56994971D01*
X168884996Y-56994974D01*
X168761974Y-57117996D01*
X168761971Y-57118000D01*
X168761538Y-57118703D01*
X168761114Y-57119083D01*
X168757493Y-57123664D01*
X168756710Y-57123045D01*
X168709590Y-57165428D01*
X168640628Y-57176649D01*
X168576546Y-57148806D01*
X168554657Y-57123544D01*
X168554507Y-57123664D01*
X168551859Y-57120315D01*
X168550462Y-57118703D01*
X168550028Y-57118000D01*
X168550025Y-57117996D01*
X168427003Y-56994974D01*
X168426999Y-56994971D01*
X168278933Y-56903642D01*
X168278927Y-56903639D01*
X168278925Y-56903638D01*
X168278922Y-56903637D01*
X168113776Y-56848913D01*
X168011855Y-56838500D01*
X168011848Y-56838500D01*
X167425152Y-56838500D01*
X167425144Y-56838500D01*
X167323223Y-56848913D01*
X167158077Y-56903637D01*
X167158068Y-56903642D01*
X167106101Y-56935695D01*
X167038708Y-56954135D01*
X166972045Y-56933212D01*
X166933618Y-56892156D01*
X166902640Y-56838500D01*
X166848533Y-56744784D01*
X166721871Y-56604112D01*
X166721870Y-56604111D01*
X166568734Y-56492851D01*
X166568729Y-56492848D01*
X166395807Y-56415857D01*
X166395802Y-56415855D01*
X166250000Y-56384865D01*
X166210646Y-56376500D01*
X166021354Y-56376500D01*
X165988897Y-56383398D01*
X165836197Y-56415855D01*
X165836192Y-56415857D01*
X165663270Y-56492848D01*
X165663265Y-56492851D01*
X165510129Y-56604111D01*
X165383467Y-56744783D01*
X165365155Y-56776501D01*
X165314587Y-56824716D01*
X165257768Y-56838500D01*
X164728144Y-56838500D01*
X164626223Y-56848913D01*
X164461077Y-56903637D01*
X164461066Y-56903642D01*
X164313000Y-56994971D01*
X164312996Y-56994974D01*
X164189974Y-57117996D01*
X164189971Y-57118000D01*
X164189538Y-57118703D01*
X164189114Y-57119083D01*
X164185493Y-57123664D01*
X164184710Y-57123045D01*
X164137590Y-57165428D01*
X164068628Y-57176649D01*
X164004546Y-57148806D01*
X163982657Y-57123544D01*
X163982507Y-57123664D01*
X163979859Y-57120315D01*
X163978462Y-57118703D01*
X163978028Y-57118000D01*
X163978025Y-57117996D01*
X163855003Y-56994974D01*
X163854999Y-56994971D01*
X163706933Y-56903642D01*
X163706927Y-56903639D01*
X163706925Y-56903638D01*
X163706922Y-56903637D01*
X163541776Y-56848913D01*
X163439855Y-56838500D01*
X163439848Y-56838500D01*
X162853152Y-56838500D01*
X162853144Y-56838500D01*
X162751223Y-56848913D01*
X162586077Y-56903637D01*
X162586066Y-56903642D01*
X162438000Y-56994971D01*
X162437996Y-56994974D01*
X162314974Y-57117996D01*
X162314971Y-57118000D01*
X162223639Y-57266071D01*
X162223638Y-57266074D01*
X162202951Y-57328504D01*
X162163178Y-57385949D01*
X162098662Y-57412772D01*
X162085245Y-57413500D01*
X162007743Y-57413500D01*
X161992122Y-57411775D01*
X161992095Y-57412061D01*
X161984333Y-57411326D01*
X161916140Y-57413469D01*
X161914193Y-57413500D01*
X161885649Y-57413500D01*
X161878778Y-57414367D01*
X161872959Y-57414825D01*
X161826374Y-57416289D01*
X161826368Y-57416290D01*
X161807126Y-57421880D01*
X161788087Y-57425823D01*
X161768217Y-57428334D01*
X161768203Y-57428337D01*
X161724883Y-57445488D01*
X161719358Y-57447380D01*
X161674613Y-57460380D01*
X161674610Y-57460381D01*
X161657366Y-57470579D01*
X161639905Y-57479133D01*
X161621274Y-57486510D01*
X161621262Y-57486517D01*
X161583570Y-57513902D01*
X161578687Y-57517109D01*
X161538580Y-57540829D01*
X161524414Y-57554995D01*
X161509624Y-57567627D01*
X161493414Y-57579404D01*
X161493411Y-57579407D01*
X161463714Y-57615304D01*
X161459782Y-57619626D01*
X161342229Y-57737180D01*
X161280906Y-57770666D01*
X161254547Y-57773500D01*
X161195354Y-57773500D01*
X161162897Y-57780398D01*
X161010197Y-57812855D01*
X161010192Y-57812857D01*
X160837270Y-57889848D01*
X160837265Y-57889851D01*
X160684129Y-58001111D01*
X160557466Y-58141785D01*
X160462821Y-58305715D01*
X160462818Y-58305722D01*
X160416870Y-58447137D01*
X160404326Y-58485744D01*
X160384540Y-58674000D01*
X160404326Y-58862256D01*
X160436086Y-58960004D01*
X160458564Y-59029182D01*
X160460559Y-59099023D01*
X160424479Y-59158856D01*
X160361778Y-59189684D01*
X160340633Y-59191500D01*
X151979742Y-59191500D01*
X151964121Y-59189775D01*
X151964094Y-59190061D01*
X151956332Y-59189326D01*
X151888139Y-59191469D01*
X151886192Y-59191500D01*
X151857648Y-59191500D01*
X151850777Y-59192367D01*
X151844958Y-59192825D01*
X151798373Y-59194289D01*
X151798367Y-59194290D01*
X151779125Y-59199880D01*
X151760086Y-59203823D01*
X151740216Y-59206334D01*
X151740202Y-59206337D01*
X151696882Y-59223488D01*
X151691357Y-59225380D01*
X151646612Y-59238380D01*
X151646609Y-59238381D01*
X151629365Y-59248579D01*
X151611904Y-59257133D01*
X151593273Y-59264510D01*
X151593261Y-59264517D01*
X151555569Y-59291902D01*
X151550686Y-59295109D01*
X151510579Y-59318829D01*
X151496413Y-59332995D01*
X151481623Y-59345627D01*
X151465413Y-59357404D01*
X151465410Y-59357407D01*
X151435714Y-59393303D01*
X151431781Y-59397625D01*
X151386820Y-59442586D01*
X151325497Y-59476071D01*
X151267047Y-59474680D01*
X151198696Y-59456366D01*
X151198692Y-59456365D01*
X151198691Y-59456365D01*
X151085345Y-59446448D01*
X150972000Y-59436532D01*
X150971997Y-59436532D01*
X150745312Y-59456364D01*
X150745301Y-59456366D01*
X150525510Y-59515258D01*
X150525501Y-59515261D01*
X150319266Y-59611431D01*
X150319264Y-59611432D01*
X150132857Y-59741954D01*
X149971953Y-59902858D01*
X149841431Y-60089265D01*
X149841430Y-60089267D01*
X149745260Y-60295502D01*
X149745257Y-60295511D01*
X149686365Y-60515302D01*
X149686363Y-60515313D01*
X149666531Y-60741998D01*
X149666531Y-60742001D01*
X149686363Y-60968686D01*
X149686365Y-60968697D01*
X149745257Y-61188488D01*
X149745260Y-61188497D01*
X149841430Y-61394732D01*
X149841431Y-61394734D01*
X149971953Y-61581141D01*
X150132857Y-61742045D01*
X150132860Y-61742047D01*
X150319265Y-61872568D01*
X150377864Y-61899893D01*
X150430304Y-61946065D01*
X150449456Y-62013258D01*
X150429241Y-62080139D01*
X150377866Y-62124657D01*
X150319510Y-62151869D01*
X150246526Y-62202972D01*
X150246525Y-62202973D01*
X150927599Y-62884046D01*
X150846851Y-62896835D01*
X150733954Y-62954359D01*
X150644358Y-63043955D01*
X150586834Y-63156852D01*
X150574045Y-63237599D01*
X149892972Y-62556526D01*
X149892971Y-62556527D01*
X149841867Y-62629513D01*
X149745733Y-62835673D01*
X149745729Y-62835682D01*
X149686859Y-63055389D01*
X149686857Y-63055400D01*
X149667033Y-63281997D01*
X149667033Y-63282002D01*
X149686857Y-63508599D01*
X149686859Y-63508610D01*
X149745729Y-63728317D01*
X149745733Y-63728326D01*
X149841864Y-63934481D01*
X149841865Y-63934483D01*
X149892972Y-64007471D01*
X149892973Y-64007472D01*
X150574045Y-63326399D01*
X150586834Y-63407148D01*
X150644358Y-63520045D01*
X150733954Y-63609641D01*
X150846851Y-63667165D01*
X150927598Y-63679953D01*
X150246525Y-64361025D01*
X150246525Y-64361026D01*
X150319511Y-64412131D01*
X150319519Y-64412135D01*
X150377864Y-64439342D01*
X150430304Y-64485514D01*
X150449456Y-64552707D01*
X150429241Y-64619589D01*
X150377866Y-64664105D01*
X150319267Y-64691431D01*
X150319263Y-64691433D01*
X150132857Y-64821954D01*
X149971953Y-64982858D01*
X149841431Y-65169265D01*
X149841430Y-65169267D01*
X149745260Y-65375502D01*
X149745257Y-65375511D01*
X149686365Y-65595302D01*
X149686363Y-65595313D01*
X149666531Y-65821998D01*
X149666531Y-65822001D01*
X149686363Y-66048686D01*
X149686365Y-66048697D01*
X149745257Y-66268488D01*
X149745260Y-66268497D01*
X149841430Y-66474732D01*
X149841431Y-66474734D01*
X149971953Y-66661141D01*
X150132857Y-66822045D01*
X150132860Y-66822047D01*
X150319265Y-66952568D01*
X150377274Y-66979618D01*
X150429713Y-67025791D01*
X150448865Y-67092984D01*
X150428649Y-67159865D01*
X150377274Y-67204381D01*
X150360271Y-67212310D01*
X150319266Y-67231431D01*
X150319264Y-67231432D01*
X150132857Y-67361954D01*
X149971953Y-67522858D01*
X149841431Y-67709265D01*
X149841430Y-67709267D01*
X149745260Y-67915502D01*
X149745257Y-67915511D01*
X149686365Y-68135302D01*
X149686363Y-68135313D01*
X149666531Y-68361998D01*
X149666531Y-68362001D01*
X149686363Y-68588686D01*
X149686365Y-68588697D01*
X149745257Y-68808488D01*
X149745260Y-68808497D01*
X149841430Y-69014732D01*
X149841431Y-69014734D01*
X149971953Y-69201141D01*
X150132857Y-69362045D01*
X150132860Y-69362047D01*
X150319265Y-69492568D01*
X150377274Y-69519618D01*
X150429713Y-69565791D01*
X150448865Y-69632984D01*
X150428649Y-69699865D01*
X150377274Y-69744382D01*
X150319266Y-69771431D01*
X150319264Y-69771432D01*
X150132857Y-69901954D01*
X149971953Y-70062858D01*
X149841431Y-70249265D01*
X149841430Y-70249267D01*
X149745260Y-70455502D01*
X149745257Y-70455511D01*
X149686365Y-70675302D01*
X149686363Y-70675313D01*
X149666531Y-70901998D01*
X149666531Y-70902001D01*
X149686363Y-71128686D01*
X149686365Y-71128697D01*
X149745257Y-71348488D01*
X149745260Y-71348497D01*
X149841430Y-71554732D01*
X149841431Y-71554734D01*
X149971953Y-71741141D01*
X150132857Y-71902045D01*
X150132860Y-71902047D01*
X150319265Y-72032568D01*
X150377274Y-72059618D01*
X150429713Y-72105791D01*
X150448865Y-72172984D01*
X150428649Y-72239865D01*
X150377274Y-72284382D01*
X150319266Y-72311431D01*
X150319264Y-72311432D01*
X150132857Y-72441954D01*
X149971953Y-72602858D01*
X149841431Y-72789265D01*
X149841430Y-72789267D01*
X149745260Y-72995502D01*
X149745257Y-72995511D01*
X149686365Y-73215302D01*
X149686363Y-73215313D01*
X149666531Y-73441998D01*
X149666531Y-73442001D01*
X149686363Y-73668686D01*
X149686365Y-73668697D01*
X149745257Y-73888488D01*
X149745260Y-73888497D01*
X149841430Y-74094732D01*
X149841431Y-74094734D01*
X149971953Y-74281141D01*
X150132857Y-74442045D01*
X150132860Y-74442047D01*
X150319265Y-74572568D01*
X150377274Y-74599618D01*
X150429713Y-74645791D01*
X150448865Y-74712984D01*
X150428649Y-74779865D01*
X150377274Y-74824382D01*
X150319266Y-74851431D01*
X150319264Y-74851432D01*
X150132857Y-74981954D01*
X149971953Y-75142858D01*
X149841431Y-75329265D01*
X149841430Y-75329267D01*
X149745260Y-75535502D01*
X149745257Y-75535511D01*
X149686365Y-75755302D01*
X149686363Y-75755313D01*
X149666531Y-75981998D01*
X149666531Y-75982001D01*
X149686363Y-76208686D01*
X149686365Y-76208697D01*
X149745257Y-76428488D01*
X149745260Y-76428497D01*
X149841430Y-76634732D01*
X149841431Y-76634734D01*
X149971953Y-76821141D01*
X150132857Y-76982045D01*
X150132860Y-76982047D01*
X150319265Y-77112568D01*
X150377274Y-77139618D01*
X150429713Y-77185791D01*
X150448865Y-77252984D01*
X150428649Y-77319865D01*
X150377274Y-77364382D01*
X150319266Y-77391431D01*
X150319264Y-77391432D01*
X150132857Y-77521954D01*
X149971953Y-77682858D01*
X149841431Y-77869265D01*
X149841430Y-77869267D01*
X149745260Y-78075502D01*
X149745257Y-78075511D01*
X149686365Y-78295302D01*
X149686363Y-78295313D01*
X149666531Y-78521998D01*
X149666531Y-78522001D01*
X149686363Y-78748686D01*
X149686365Y-78748697D01*
X149745257Y-78968488D01*
X149745260Y-78968497D01*
X149841430Y-79174732D01*
X149841431Y-79174734D01*
X149971953Y-79361141D01*
X150132857Y-79522045D01*
X150132860Y-79522047D01*
X150319265Y-79652568D01*
X150377274Y-79679618D01*
X150429713Y-79725791D01*
X150448865Y-79792984D01*
X150428649Y-79859865D01*
X150377274Y-79904382D01*
X150319266Y-79931431D01*
X150319264Y-79931432D01*
X150132857Y-80061954D01*
X149971953Y-80222858D01*
X149841431Y-80409265D01*
X149841430Y-80409267D01*
X149745260Y-80615502D01*
X149745257Y-80615511D01*
X149686365Y-80835302D01*
X149686363Y-80835313D01*
X149666531Y-81061998D01*
X149666531Y-81062002D01*
X149676531Y-81176304D01*
X149662764Y-81244804D01*
X149614149Y-81294987D01*
X149546120Y-81310920D01*
X149480277Y-81287545D01*
X149469117Y-81278326D01*
X149468584Y-81277940D01*
X149468582Y-81277938D01*
X149451030Y-81268288D01*
X149434763Y-81257604D01*
X149418936Y-81245327D01*
X149418935Y-81245326D01*
X149418933Y-81245325D01*
X149376168Y-81226818D01*
X149370922Y-81224248D01*
X149330093Y-81201803D01*
X149330092Y-81201802D01*
X149310693Y-81196822D01*
X149292281Y-81190518D01*
X149273898Y-81182562D01*
X149273892Y-81182560D01*
X149227874Y-81175272D01*
X149222152Y-81174087D01*
X149177021Y-81162500D01*
X149177019Y-81162500D01*
X149156984Y-81162500D01*
X149137586Y-81160973D01*
X149130162Y-81159797D01*
X149117805Y-81157840D01*
X149117804Y-81157840D01*
X149071416Y-81162225D01*
X149065578Y-81162500D01*
X137648736Y-81162500D01*
X137633119Y-81160776D01*
X137633092Y-81161062D01*
X137625330Y-81160327D01*
X137557170Y-81162469D01*
X137555223Y-81162500D01*
X137526649Y-81162500D01*
X137525928Y-81162590D01*
X137519756Y-81163369D01*
X137513944Y-81163826D01*
X137467371Y-81165290D01*
X137467368Y-81165291D01*
X137448125Y-81170881D01*
X137429082Y-81174825D01*
X137409203Y-81177336D01*
X137409202Y-81177337D01*
X137365877Y-81194490D01*
X137360351Y-81196382D01*
X137315607Y-81209383D01*
X137315603Y-81209385D01*
X137298364Y-81219580D01*
X137280897Y-81228137D01*
X137262268Y-81235512D01*
X137247480Y-81246257D01*
X137181673Y-81269735D01*
X137113619Y-81253908D01*
X137064926Y-81203801D01*
X137051052Y-81135322D01*
X137051069Y-81135129D01*
X137057467Y-81062000D01*
X137057467Y-81061998D01*
X137046309Y-80934468D01*
X137037634Y-80835308D01*
X136978738Y-80615504D01*
X136882567Y-80409266D01*
X136752046Y-80222861D01*
X136752044Y-80222858D01*
X136591140Y-80061954D01*
X136404733Y-79931432D01*
X136404727Y-79931429D01*
X136346724Y-79904382D01*
X136294284Y-79858210D01*
X136275132Y-79791017D01*
X136295347Y-79724135D01*
X136346724Y-79679618D01*
X136404733Y-79652568D01*
X136591138Y-79522047D01*
X136752046Y-79361139D01*
X136882567Y-79174734D01*
X136978738Y-78968496D01*
X137037634Y-78748692D01*
X137057467Y-78522000D01*
X137053038Y-78471382D01*
X137043120Y-78358017D01*
X137037634Y-78295308D01*
X136978738Y-78075504D01*
X136882567Y-77869266D01*
X136774187Y-77714482D01*
X136752044Y-77682858D01*
X136591140Y-77521954D01*
X136404733Y-77391432D01*
X136404727Y-77391429D01*
X136346724Y-77364382D01*
X136294284Y-77318210D01*
X136275132Y-77251017D01*
X136295347Y-77184135D01*
X136346724Y-77139618D01*
X136404733Y-77112568D01*
X136591138Y-76982047D01*
X136752046Y-76821139D01*
X136882567Y-76634734D01*
X136978738Y-76428496D01*
X137037634Y-76208692D01*
X137057467Y-75982000D01*
X137053038Y-75931382D01*
X137046717Y-75859127D01*
X137037634Y-75755308D01*
X136978738Y-75535504D01*
X136882567Y-75329266D01*
X136752046Y-75142861D01*
X136752044Y-75142858D01*
X136591140Y-74981954D01*
X136404734Y-74851433D01*
X136404735Y-74851433D01*
X136404733Y-74851432D01*
X136346721Y-74824380D01*
X136294283Y-74778208D01*
X136275132Y-74711014D01*
X136295348Y-74644133D01*
X136346720Y-74599619D01*
X136404733Y-74572568D01*
X136591138Y-74442047D01*
X136752046Y-74281139D01*
X136882567Y-74094734D01*
X136978738Y-73888496D01*
X137037634Y-73668692D01*
X137056672Y-73451091D01*
X137057467Y-73442001D01*
X137057467Y-73441998D01*
X137043120Y-73278016D01*
X137037634Y-73215308D01*
X136981251Y-73004883D01*
X136978740Y-72995511D01*
X136978737Y-72995502D01*
X136910020Y-72848139D01*
X136882567Y-72789266D01*
X136752046Y-72602861D01*
X136752044Y-72602858D01*
X136591140Y-72441954D01*
X136404734Y-72311433D01*
X136404735Y-72311433D01*
X136404733Y-72311432D01*
X136346721Y-72284380D01*
X136294283Y-72238208D01*
X136275132Y-72171014D01*
X136295348Y-72104133D01*
X136346720Y-72059619D01*
X136404733Y-72032568D01*
X136591138Y-71902047D01*
X136752046Y-71741139D01*
X136882567Y-71554734D01*
X136978738Y-71348496D01*
X137037634Y-71128692D01*
X137057467Y-70902000D01*
X137057244Y-70899455D01*
X137051439Y-70833097D01*
X137037634Y-70675308D01*
X136978738Y-70455504D01*
X136882567Y-70249266D01*
X136770314Y-70088950D01*
X136752044Y-70062858D01*
X136591140Y-69901954D01*
X136404733Y-69771432D01*
X136404727Y-69771429D01*
X136346724Y-69744382D01*
X136294284Y-69698210D01*
X136275132Y-69631017D01*
X136295347Y-69564135D01*
X136346724Y-69519618D01*
X136404733Y-69492568D01*
X136591138Y-69362047D01*
X136752046Y-69201139D01*
X136882567Y-69014734D01*
X136978738Y-68808496D01*
X137037634Y-68588692D01*
X137057467Y-68362000D01*
X137056843Y-68354873D01*
X137043206Y-68199000D01*
X137037634Y-68135308D01*
X136978738Y-67915504D01*
X136882567Y-67709266D01*
X136752046Y-67522861D01*
X136752044Y-67522858D01*
X136591140Y-67361954D01*
X136404733Y-67231432D01*
X136404727Y-67231429D01*
X136377037Y-67218517D01*
X136346723Y-67204381D01*
X136294284Y-67158210D01*
X136275132Y-67091017D01*
X136295347Y-67024135D01*
X136346724Y-66979618D01*
X136404733Y-66952568D01*
X136591138Y-66822047D01*
X136752046Y-66661139D01*
X136882567Y-66474734D01*
X136978738Y-66268496D01*
X137037634Y-66048692D01*
X137057467Y-65822000D01*
X137053038Y-65771382D01*
X137037634Y-65595313D01*
X137037634Y-65595308D01*
X136984505Y-65397027D01*
X136978740Y-65375511D01*
X136978737Y-65375502D01*
X136959129Y-65333453D01*
X136882567Y-65169266D01*
X136765568Y-65002173D01*
X136752044Y-64982858D01*
X136591140Y-64821954D01*
X136404733Y-64691432D01*
X136404727Y-64691429D01*
X136346724Y-64664382D01*
X136294284Y-64618210D01*
X136275132Y-64551017D01*
X136295347Y-64484135D01*
X136346724Y-64439618D01*
X136347318Y-64439341D01*
X136404733Y-64412568D01*
X136591138Y-64282047D01*
X136752046Y-64121139D01*
X136882567Y-63934734D01*
X136978738Y-63728496D01*
X137037634Y-63508692D01*
X137057467Y-63282000D01*
X137037634Y-63055308D01*
X136978738Y-62835504D01*
X136882567Y-62629266D01*
X136752046Y-62442861D01*
X136752044Y-62442858D01*
X136591140Y-62281954D01*
X136404733Y-62151432D01*
X136404727Y-62151429D01*
X136377037Y-62138517D01*
X136346723Y-62124381D01*
X136294284Y-62078210D01*
X136275132Y-62011017D01*
X136295347Y-61944135D01*
X136346724Y-61899618D01*
X136404733Y-61872568D01*
X136591138Y-61742047D01*
X136752046Y-61581139D01*
X136882567Y-61394734D01*
X136978738Y-61188496D01*
X137037634Y-60968692D01*
X137057467Y-60742000D01*
X137037634Y-60515308D01*
X136989723Y-60336500D01*
X136978740Y-60295511D01*
X136978737Y-60295502D01*
X136943600Y-60220151D01*
X136882567Y-60089266D01*
X136752046Y-59902861D01*
X136752044Y-59902858D01*
X136591140Y-59741954D01*
X136404733Y-59611432D01*
X136404731Y-59611431D01*
X136198496Y-59515261D01*
X136198487Y-59515258D01*
X135978696Y-59456366D01*
X135978692Y-59456365D01*
X135978691Y-59456365D01*
X135978690Y-59456364D01*
X135978685Y-59456364D01*
X135752001Y-59436532D01*
X135751997Y-59436532D01*
X135525312Y-59456364D01*
X135525301Y-59456366D01*
X135305510Y-59515258D01*
X135305501Y-59515261D01*
X135099266Y-59611431D01*
X135099264Y-59611432D01*
X134912857Y-59741954D01*
X134751953Y-59902858D01*
X134621431Y-60089265D01*
X134621430Y-60089267D01*
X134525260Y-60295502D01*
X134525257Y-60295511D01*
X134466365Y-60515302D01*
X134466363Y-60515313D01*
X134446531Y-60741998D01*
X134446531Y-60742001D01*
X134466363Y-60968686D01*
X134466365Y-60968697D01*
X134525257Y-61188488D01*
X134525260Y-61188497D01*
X134621430Y-61394732D01*
X134621431Y-61394734D01*
X134751953Y-61581141D01*
X134912857Y-61742045D01*
X135079174Y-61858500D01*
X135099265Y-61872568D01*
X135157277Y-61899619D01*
X135209712Y-61945788D01*
X135228865Y-62012982D01*
X135208650Y-62079863D01*
X135157276Y-62124380D01*
X135099267Y-62151430D01*
X135099264Y-62151432D01*
X134912857Y-62281954D01*
X134751953Y-62442858D01*
X134621431Y-62629265D01*
X134621430Y-62629267D01*
X134525260Y-62835502D01*
X134525257Y-62835511D01*
X134466365Y-63055302D01*
X134466363Y-63055313D01*
X134446531Y-63281998D01*
X134446531Y-63282001D01*
X134466363Y-63508686D01*
X134466365Y-63508697D01*
X134525257Y-63728488D01*
X134525260Y-63728497D01*
X134621430Y-63934732D01*
X134621431Y-63934734D01*
X134751953Y-64121141D01*
X134912857Y-64282045D01*
X134912860Y-64282047D01*
X135099265Y-64412568D01*
X135156680Y-64439341D01*
X135157274Y-64439618D01*
X135209713Y-64485791D01*
X135228865Y-64552984D01*
X135208649Y-64619865D01*
X135157274Y-64664382D01*
X135099266Y-64691431D01*
X135099264Y-64691432D01*
X134912857Y-64821954D01*
X134751953Y-64982858D01*
X134621431Y-65169265D01*
X134621430Y-65169267D01*
X134525260Y-65375502D01*
X134525257Y-65375511D01*
X134466365Y-65595302D01*
X134466363Y-65595313D01*
X134446531Y-65821998D01*
X134446531Y-65822001D01*
X134466363Y-66048686D01*
X134466365Y-66048697D01*
X134525257Y-66268488D01*
X134525260Y-66268497D01*
X134621430Y-66474732D01*
X134621431Y-66474734D01*
X134751953Y-66661141D01*
X134912857Y-66822045D01*
X134912860Y-66822047D01*
X135099265Y-66952568D01*
X135157274Y-66979618D01*
X135209713Y-67025791D01*
X135228865Y-67092984D01*
X135208649Y-67159865D01*
X135157274Y-67204381D01*
X135140271Y-67212310D01*
X135099266Y-67231431D01*
X135099264Y-67231432D01*
X134912857Y-67361954D01*
X134751953Y-67522858D01*
X134621431Y-67709265D01*
X134621430Y-67709267D01*
X134525260Y-67915502D01*
X134525257Y-67915511D01*
X134466365Y-68135302D01*
X134466363Y-68135313D01*
X134446531Y-68361998D01*
X134446531Y-68362001D01*
X134466363Y-68588686D01*
X134466365Y-68588697D01*
X134525257Y-68808488D01*
X134525260Y-68808497D01*
X134621430Y-69014732D01*
X134621431Y-69014734D01*
X134751953Y-69201141D01*
X134912857Y-69362045D01*
X134912860Y-69362047D01*
X135099265Y-69492568D01*
X135157274Y-69519618D01*
X135209713Y-69565791D01*
X135228865Y-69632984D01*
X135208649Y-69699865D01*
X135157274Y-69744382D01*
X135099266Y-69771431D01*
X135099264Y-69771432D01*
X134912857Y-69901954D01*
X134751953Y-70062858D01*
X134621431Y-70249265D01*
X134621430Y-70249267D01*
X134525260Y-70455502D01*
X134525257Y-70455511D01*
X134466365Y-70675302D01*
X134466363Y-70675313D01*
X134446531Y-70901998D01*
X134446531Y-70902001D01*
X134466363Y-71128686D01*
X134466365Y-71128697D01*
X134525257Y-71348488D01*
X134525260Y-71348497D01*
X134621430Y-71554732D01*
X134621431Y-71554734D01*
X134751953Y-71741141D01*
X134912857Y-71902045D01*
X134912860Y-71902047D01*
X135099265Y-72032568D01*
X135157274Y-72059618D01*
X135209713Y-72105791D01*
X135228865Y-72172984D01*
X135208649Y-72239865D01*
X135157274Y-72284382D01*
X135099266Y-72311431D01*
X135099264Y-72311432D01*
X134912857Y-72441954D01*
X134751953Y-72602858D01*
X134621431Y-72789265D01*
X134621430Y-72789267D01*
X134525260Y-72995502D01*
X134525257Y-72995511D01*
X134466365Y-73215302D01*
X134466363Y-73215313D01*
X134446531Y-73441998D01*
X134446531Y-73442001D01*
X134466363Y-73668686D01*
X134466365Y-73668697D01*
X134525257Y-73888488D01*
X134525260Y-73888497D01*
X134621430Y-74094732D01*
X134621431Y-74094734D01*
X134751953Y-74281141D01*
X134912857Y-74442045D01*
X134912860Y-74442047D01*
X135099265Y-74572568D01*
X135157274Y-74599618D01*
X135209713Y-74645791D01*
X135228865Y-74712984D01*
X135208649Y-74779865D01*
X135157274Y-74824382D01*
X135099266Y-74851431D01*
X135099264Y-74851432D01*
X134912857Y-74981954D01*
X134751953Y-75142858D01*
X134621431Y-75329265D01*
X134621430Y-75329267D01*
X134525260Y-75535502D01*
X134525257Y-75535511D01*
X134466365Y-75755302D01*
X134466363Y-75755313D01*
X134446531Y-75981998D01*
X134446531Y-75982001D01*
X134466363Y-76208686D01*
X134466365Y-76208697D01*
X134525257Y-76428488D01*
X134525260Y-76428497D01*
X134621430Y-76634732D01*
X134621431Y-76634734D01*
X134751953Y-76821141D01*
X134912857Y-76982045D01*
X134912860Y-76982047D01*
X135099265Y-77112568D01*
X135157274Y-77139618D01*
X135209713Y-77185791D01*
X135228865Y-77252984D01*
X135208649Y-77319865D01*
X135157274Y-77364382D01*
X135099266Y-77391431D01*
X135099264Y-77391432D01*
X134912857Y-77521954D01*
X134751953Y-77682858D01*
X134621431Y-77869265D01*
X134621430Y-77869267D01*
X134525260Y-78075502D01*
X134525257Y-78075511D01*
X134466365Y-78295302D01*
X134466363Y-78295313D01*
X134446531Y-78521998D01*
X134446531Y-78522001D01*
X134466363Y-78748686D01*
X134466365Y-78748697D01*
X134525257Y-78968488D01*
X134525260Y-78968497D01*
X134621430Y-79174732D01*
X134621431Y-79174734D01*
X134751953Y-79361141D01*
X134912857Y-79522045D01*
X134912860Y-79522047D01*
X135099265Y-79652568D01*
X135157274Y-79679618D01*
X135209713Y-79725791D01*
X135228865Y-79792984D01*
X135208649Y-79859865D01*
X135157274Y-79904382D01*
X135099266Y-79931431D01*
X135099264Y-79931432D01*
X134912857Y-80061954D01*
X134751953Y-80222858D01*
X134621431Y-80409265D01*
X134621430Y-80409267D01*
X134525260Y-80615502D01*
X134525257Y-80615511D01*
X134466365Y-80835302D01*
X134466363Y-80835313D01*
X134446531Y-81061998D01*
X134446531Y-81062001D01*
X134466363Y-81288686D01*
X134466365Y-81288697D01*
X134525257Y-81508488D01*
X134525260Y-81508497D01*
X134621430Y-81714732D01*
X134621431Y-81714734D01*
X134751953Y-81901141D01*
X134912857Y-82062045D01*
X134912860Y-82062047D01*
X135099265Y-82192568D01*
X135157274Y-82219618D01*
X135209713Y-82265791D01*
X135228865Y-82332984D01*
X135208649Y-82399865D01*
X135157274Y-82444381D01*
X135145616Y-82449818D01*
X135099266Y-82471431D01*
X135099264Y-82471432D01*
X134912857Y-82601954D01*
X134751953Y-82762858D01*
X134621431Y-82949265D01*
X134621430Y-82949267D01*
X134525260Y-83155502D01*
X134525257Y-83155511D01*
X134466365Y-83375302D01*
X134466363Y-83375313D01*
X134446531Y-83601998D01*
X134446531Y-83602001D01*
X134466363Y-83828686D01*
X134466365Y-83828697D01*
X134525257Y-84048488D01*
X134525260Y-84048497D01*
X134621430Y-84254732D01*
X134621431Y-84254734D01*
X134751953Y-84441141D01*
X134912857Y-84602045D01*
X134956586Y-84632664D01*
X135099265Y-84732568D01*
X135157274Y-84759618D01*
X135209713Y-84805791D01*
X135228865Y-84872984D01*
X135208649Y-84939865D01*
X135157274Y-84984382D01*
X135099266Y-85011431D01*
X135099264Y-85011432D01*
X134912857Y-85141954D01*
X134751953Y-85302858D01*
X134621431Y-85489265D01*
X134621430Y-85489267D01*
X134525260Y-85695502D01*
X134525257Y-85695511D01*
X134466365Y-85915302D01*
X134466363Y-85915313D01*
X134446531Y-86141998D01*
X134446531Y-86142001D01*
X134466363Y-86368686D01*
X134466365Y-86368697D01*
X134525257Y-86588488D01*
X134525260Y-86588497D01*
X134621430Y-86794732D01*
X134621431Y-86794734D01*
X134751953Y-86981141D01*
X134912857Y-87142045D01*
X134912860Y-87142047D01*
X135099265Y-87272568D01*
X135157274Y-87299618D01*
X135209713Y-87345791D01*
X135228865Y-87412984D01*
X135208649Y-87479865D01*
X135157274Y-87524382D01*
X135099266Y-87551431D01*
X135099264Y-87551432D01*
X134912857Y-87681954D01*
X134751953Y-87842858D01*
X134621431Y-88029265D01*
X134621430Y-88029267D01*
X134525260Y-88235502D01*
X134525257Y-88235511D01*
X134466365Y-88455302D01*
X134466363Y-88455313D01*
X134446531Y-88681998D01*
X134446531Y-88682001D01*
X134466363Y-88908686D01*
X134466365Y-88908697D01*
X134525257Y-89128488D01*
X134525260Y-89128497D01*
X134621430Y-89334732D01*
X134621431Y-89334734D01*
X134751953Y-89521141D01*
X134912857Y-89682045D01*
X134912860Y-89682047D01*
X135099265Y-89812568D01*
X135157274Y-89839618D01*
X135209713Y-89885791D01*
X135228865Y-89952984D01*
X135208649Y-90019865D01*
X135157274Y-90064382D01*
X135099266Y-90091431D01*
X135099264Y-90091432D01*
X134912857Y-90221954D01*
X134751953Y-90382858D01*
X134621431Y-90569265D01*
X134621430Y-90569267D01*
X134525260Y-90775502D01*
X134525257Y-90775511D01*
X134466365Y-90995302D01*
X134466363Y-90995313D01*
X134446531Y-91221998D01*
X134446531Y-91222001D01*
X134466363Y-91448686D01*
X134466365Y-91448697D01*
X134525257Y-91668488D01*
X134525260Y-91668497D01*
X134621430Y-91874732D01*
X134621431Y-91874734D01*
X134751953Y-92061141D01*
X134912857Y-92222045D01*
X134912860Y-92222047D01*
X135099265Y-92352568D01*
X135157274Y-92379618D01*
X135209713Y-92425791D01*
X135228865Y-92492984D01*
X135208649Y-92559865D01*
X135157274Y-92604382D01*
X135099266Y-92631431D01*
X135099264Y-92631432D01*
X134912857Y-92761954D01*
X134751953Y-92922858D01*
X134621431Y-93109265D01*
X134621430Y-93109267D01*
X134525260Y-93315502D01*
X134525257Y-93315511D01*
X134466365Y-93535302D01*
X134466363Y-93535313D01*
X134446531Y-93761998D01*
X134446531Y-93762001D01*
X134466363Y-93988686D01*
X134466365Y-93988697D01*
X134525257Y-94208488D01*
X134525260Y-94208497D01*
X134621430Y-94414732D01*
X134621431Y-94414734D01*
X134751953Y-94601141D01*
X134912857Y-94762045D01*
X134912860Y-94762047D01*
X135099265Y-94892568D01*
X135157274Y-94919618D01*
X135209713Y-94965791D01*
X135228865Y-95032984D01*
X135208649Y-95099865D01*
X135157274Y-95144382D01*
X135099266Y-95171431D01*
X135099264Y-95171432D01*
X134912857Y-95301954D01*
X134751953Y-95462858D01*
X134621431Y-95649265D01*
X134621430Y-95649267D01*
X134525260Y-95855502D01*
X134525257Y-95855511D01*
X134466365Y-96075302D01*
X134466363Y-96075313D01*
X134446531Y-96301998D01*
X134446531Y-96302001D01*
X134466363Y-96528686D01*
X134466365Y-96528697D01*
X134525257Y-96748488D01*
X134525260Y-96748497D01*
X134621430Y-96954732D01*
X134621431Y-96954734D01*
X134751953Y-97141141D01*
X134912857Y-97302045D01*
X134912860Y-97302047D01*
X135099265Y-97432568D01*
X135157274Y-97459618D01*
X135209713Y-97505791D01*
X135228865Y-97572984D01*
X135208649Y-97639865D01*
X135157274Y-97684382D01*
X135099266Y-97711431D01*
X135099264Y-97711432D01*
X134912857Y-97841954D01*
X134751953Y-98002858D01*
X134621431Y-98189265D01*
X134621430Y-98189267D01*
X134525260Y-98395502D01*
X134525257Y-98395511D01*
X134466365Y-98615302D01*
X134466363Y-98615313D01*
X134446531Y-98841998D01*
X134446531Y-98842001D01*
X134466363Y-99068686D01*
X134466365Y-99068697D01*
X134525257Y-99288488D01*
X134525260Y-99288497D01*
X134621430Y-99494732D01*
X134621431Y-99494734D01*
X134751953Y-99681141D01*
X134912857Y-99842045D01*
X134912860Y-99842047D01*
X135099265Y-99972568D01*
X135157274Y-99999618D01*
X135209713Y-100045791D01*
X135228865Y-100112984D01*
X135208649Y-100179865D01*
X135157274Y-100224382D01*
X135099266Y-100251431D01*
X135099264Y-100251432D01*
X134912857Y-100381954D01*
X134751953Y-100542858D01*
X134621431Y-100729265D01*
X134621430Y-100729267D01*
X134525260Y-100935502D01*
X134525257Y-100935511D01*
X134466365Y-101155302D01*
X134466363Y-101155313D01*
X134446531Y-101381998D01*
X134446531Y-101382001D01*
X134466363Y-101608686D01*
X134466365Y-101608697D01*
X134525257Y-101828488D01*
X134525260Y-101828497D01*
X134621430Y-102034732D01*
X134621431Y-102034734D01*
X134751953Y-102221141D01*
X134912857Y-102382045D01*
X134912860Y-102382047D01*
X135099265Y-102512568D01*
X135157274Y-102539618D01*
X135209713Y-102585791D01*
X135228865Y-102652984D01*
X135208649Y-102719865D01*
X135157274Y-102764382D01*
X135099266Y-102791431D01*
X135099264Y-102791432D01*
X134912857Y-102921954D01*
X134751953Y-103082858D01*
X134621431Y-103269265D01*
X134621430Y-103269267D01*
X134525260Y-103475502D01*
X134525257Y-103475511D01*
X134466365Y-103695302D01*
X134466363Y-103695313D01*
X134446531Y-103921998D01*
X134446531Y-103922001D01*
X134466363Y-104148686D01*
X134466365Y-104148697D01*
X134525257Y-104368488D01*
X134525260Y-104368497D01*
X134621430Y-104574732D01*
X134621431Y-104574734D01*
X134751953Y-104761141D01*
X134912857Y-104922045D01*
X134912860Y-104922047D01*
X135099265Y-105052568D01*
X135157864Y-105079893D01*
X135210304Y-105126065D01*
X135229456Y-105193258D01*
X135209241Y-105260139D01*
X135157866Y-105304657D01*
X135099510Y-105331869D01*
X135026526Y-105382972D01*
X135026525Y-105382973D01*
X135707599Y-106064046D01*
X135626851Y-106076835D01*
X135513954Y-106134359D01*
X135424358Y-106223955D01*
X135366834Y-106336852D01*
X135354045Y-106417599D01*
X134672972Y-105736526D01*
X134672971Y-105736527D01*
X134621867Y-105809513D01*
X134525733Y-106015673D01*
X134525729Y-106015682D01*
X134466859Y-106235389D01*
X134466857Y-106235400D01*
X134447033Y-106461997D01*
X134447033Y-106462002D01*
X134466857Y-106688599D01*
X134466859Y-106688610D01*
X134525729Y-106908317D01*
X134525733Y-106908326D01*
X134621864Y-107114481D01*
X134621865Y-107114483D01*
X134672972Y-107187471D01*
X134672973Y-107187472D01*
X135354045Y-106506399D01*
X135366834Y-106587148D01*
X135424358Y-106700045D01*
X135513954Y-106789641D01*
X135626851Y-106847165D01*
X135707598Y-106859953D01*
X135026525Y-107541025D01*
X135026525Y-107541026D01*
X135099511Y-107592131D01*
X135099519Y-107592135D01*
X135157864Y-107619342D01*
X135210304Y-107665514D01*
X135229456Y-107732707D01*
X135209241Y-107799589D01*
X135157866Y-107844105D01*
X135099267Y-107871431D01*
X135099263Y-107871433D01*
X134912857Y-108001954D01*
X134751953Y-108162858D01*
X134621431Y-108349265D01*
X134621430Y-108349267D01*
X134525260Y-108555502D01*
X134525257Y-108555511D01*
X134466365Y-108775302D01*
X134466363Y-108775313D01*
X134446531Y-109001998D01*
X134446531Y-109002001D01*
X128270500Y-109002001D01*
X128270500Y-58548739D01*
X128270549Y-58547001D01*
X129504532Y-58547001D01*
X129524364Y-58773686D01*
X129524366Y-58773697D01*
X129583258Y-58993488D01*
X129583261Y-58993497D01*
X129679431Y-59199732D01*
X129679432Y-59199734D01*
X129809954Y-59386141D01*
X129970858Y-59547045D01*
X129970861Y-59547047D01*
X130157266Y-59677568D01*
X130363504Y-59773739D01*
X130583308Y-59832635D01*
X130753214Y-59847499D01*
X130753215Y-59847500D01*
X130753216Y-59847500D01*
X130866785Y-59847500D01*
X130866785Y-59847499D01*
X131036692Y-59832635D01*
X131256496Y-59773739D01*
X131462734Y-59677568D01*
X131649139Y-59547047D01*
X131810047Y-59386139D01*
X131940568Y-59199734D01*
X132036739Y-58993496D01*
X132095635Y-58773692D01*
X132114355Y-58559722D01*
X132115468Y-58547001D01*
X132115468Y-58546998D01*
X132095635Y-58320313D01*
X132095635Y-58320308D01*
X132042172Y-58120780D01*
X132036741Y-58100511D01*
X132036738Y-58100502D01*
X132021049Y-58066857D01*
X131940568Y-57894266D01*
X131810047Y-57707861D01*
X131810045Y-57707858D01*
X131649141Y-57546954D01*
X131462734Y-57416432D01*
X131462732Y-57416431D01*
X131256497Y-57320261D01*
X131256488Y-57320258D01*
X131036697Y-57261366D01*
X131036687Y-57261364D01*
X130866785Y-57246500D01*
X130866784Y-57246500D01*
X130753216Y-57246500D01*
X130753215Y-57246500D01*
X130583312Y-57261364D01*
X130583302Y-57261366D01*
X130363511Y-57320258D01*
X130363502Y-57320261D01*
X130157267Y-57416431D01*
X130157265Y-57416432D01*
X129970858Y-57546954D01*
X129809954Y-57707858D01*
X129679432Y-57894265D01*
X129679431Y-57894267D01*
X129583261Y-58100502D01*
X129583258Y-58100511D01*
X129524366Y-58320302D01*
X129524364Y-58320313D01*
X129504532Y-58546998D01*
X129504532Y-58547001D01*
X128270549Y-58547001D01*
X128270598Y-58545262D01*
X128276108Y-58447137D01*
X128276993Y-58431372D01*
X128287401Y-58259304D01*
X128288160Y-58252704D01*
X128311281Y-58116623D01*
X128338562Y-57967758D01*
X128339960Y-57961810D01*
X128379225Y-57825518D01*
X128379552Y-57824428D01*
X128423264Y-57684155D01*
X128425159Y-57678921D01*
X128480080Y-57546330D01*
X128480732Y-57544820D01*
X128540343Y-57412370D01*
X128542599Y-57407861D01*
X128612393Y-57281579D01*
X128613542Y-57279591D01*
X128688221Y-57156057D01*
X128690701Y-57152274D01*
X128774461Y-57034226D01*
X128776145Y-57031967D01*
X128864932Y-56918638D01*
X128867472Y-56915605D01*
X128964052Y-56807531D01*
X128966373Y-56805077D01*
X129068077Y-56703373D01*
X129070531Y-56701052D01*
X129178605Y-56604472D01*
X129181638Y-56601932D01*
X129294967Y-56513145D01*
X129297226Y-56511461D01*
X129415274Y-56427701D01*
X129419057Y-56425221D01*
X129542591Y-56350542D01*
X129544579Y-56349393D01*
X129670861Y-56279599D01*
X129675370Y-56277343D01*
X129807820Y-56217732D01*
X129809330Y-56217080D01*
X129941921Y-56162159D01*
X129947155Y-56160264D01*
X130087428Y-56116552D01*
X130088518Y-56116225D01*
X130224810Y-56076960D01*
X130230758Y-56075562D01*
X130379626Y-56048281D01*
X130515704Y-56025160D01*
X130522304Y-56024401D01*
X130694288Y-56013998D01*
X130785501Y-56008875D01*
X130808264Y-56007598D01*
X130811740Y-56007500D01*
X130861836Y-56007500D01*
X130861857Y-56007496D01*
X185418187Y-56004327D01*
X185421808Y-56004432D01*
G37*
%TD.AperFunction*%
%TD*%
M02*
